<svg width="18" height="17" viewBox="0 0 18 17" fill="none" xmlns="http://www.w3.org/2000/svg">
<path d="M14.544 16.4572L13.248 15.1612L14.4206 13.9474H11.1497V12.0754H14.4206L13.2274 10.8823L14.544 9.56573L18 13.0217L14.544 16.4572ZM2.18057 13.9474C1.56343 13.9474 1.04585 13.7382 0.62784 13.3196C0.20928 12.9016 0 12.384 0 11.7669V2.18058C0 1.56344 0.20928 1.04559 0.62784 0.627029C1.04585 0.209017 1.56343 1.14441e-05 2.18057 1.14441e-05H15.0583C15.6754 1.14441e-05 16.1933 0.209017 16.6118 0.627029C17.0299 1.04559 17.2389 1.56344 17.2389 2.18058V8.96915C16.8411 8.7223 16.416 8.53386 15.9634 8.40385C15.5109 8.27329 15.0514 8.20801 14.5851 8.20801C13.1726 8.20801 11.9726 8.69816 10.9851 9.67846C9.99771 10.6593 9.504 11.856 9.504 13.2686V13.9474H2.18057ZM8.61943 8.2903L15.0583 4.17601V2.18058L8.61943 6.29487L2.18057 2.18058V4.17601L8.61943 8.2903Z" fill="#00113D"/>
</svg>
