<svg width="24" height="24" viewBox="0 0 24 24" fill="none" xmlns="http://www.w3.org/2000/svg">
<path d="M10.6253 17.957H13.3747V10.8544H10.6253V17.957ZM12 8.87828C12.42 8.87828 12.7687 8.73967 13.0459 8.46243C13.3224 8.18597 13.4606 7.83771 13.4606 7.41766C13.4606 6.99761 13.3224 6.64897 13.0459 6.37174C12.7687 6.09527 12.42 5.95704 12 5.95704C11.58 5.95704 11.2317 6.09527 10.9552 6.37174C10.678 6.64897 10.5394 6.99761 10.5394 7.41766C10.5394 7.83771 10.678 8.18597 10.9552 8.46243C11.2317 8.73967 11.58 8.87828 12 8.87828ZM12 24C10.3198 24 8.75418 23.685 7.3031 23.0549C5.85203 22.4248 4.5873 21.5706 3.50893 20.4922C2.42978 19.4131 1.57518 18.148 0.945107 16.6969C0.315036 15.2458 0 13.6802 0 12C0 10.3198 0.315036 8.75418 0.945107 7.3031C1.57518 5.85203 2.42978 4.58692 3.50893 3.50778C4.5873 2.4294 5.85203 1.57518 7.3031 0.945107C8.75418 0.315036 10.3198 0 12 0C13.6802 0 15.2458 0.315036 16.6969 0.945107C18.148 1.57518 19.4131 2.4294 20.4922 3.50778C21.5706 4.58692 22.4248 5.85203 23.0549 7.3031C23.685 8.75418 24 10.3198 24 12C24 13.6802 23.685 15.2458 23.0549 16.6969C22.4248 18.148 21.5706 19.4131 20.4922 20.4922C19.4131 21.5706 18.148 22.4248 16.6969 23.0549C15.2458 23.685 13.6802 24 12 24Z" fill="#00113D"/>
</svg>
