<svg width="18" height="16" viewBox="0 0 18 16" fill="none" xmlns="http://www.w3.org/2000/svg">
<path d="M2.27685 15.0634C1.63246 15.0634 1.09203 14.8448 0.655561 14.4078C0.21852 13.9713 0 13.4309 0 12.7865V2.77697C0 2.13258 0.21852 1.59186 0.655561 1.15482C1.09203 0.718356 1.63246 0.500122 2.27685 0.500122H15.7232C16.3675 0.500122 16.9083 0.718356 17.3453 1.15482C17.7818 1.59186 18 2.13258 18 2.77697V12.7865C18 13.4309 17.7818 13.9713 17.3453 14.4078C16.9083 14.8448 16.3675 15.0634 15.7232 15.0634H2.27685ZM9 9.15645L15.7232 4.8605V2.77697L9 7.07291L2.27685 2.77697V4.8605L9 9.15645Z" fill="#00113D"/>
</svg>
