<svg width="24" height="24" viewBox="0 0 24 24" fill="none" xmlns="http://www.w3.org/2000/svg">
<path d="M8.4 12.6H9.6V10.2H10.8C11.14 10.2 11.4252 10.0848 11.6556 9.8544C11.8852 9.6248 12 9.34 12 9V7.8C12 7.46 11.8852 7.1748 11.6556 6.9444C11.4252 6.7148 11.14 6.6 10.8 6.6H8.4V12.6ZM9.6 9V7.8H10.8V9H9.6ZM13.2 12.6H15.6C15.94 12.6 16.2252 12.4848 16.4556 12.2544C16.6852 12.0248 16.8 11.74 16.8 11.4V7.8C16.8 7.46 16.6852 7.1748 16.4556 6.9444C16.2252 6.7148 15.94 6.6 15.6 6.6H13.2V12.6ZM14.4 11.4V7.8H15.6V11.4H14.4ZM18 12.6H19.2V10.2H20.4V9H19.2V7.8H20.4V6.6H18V12.6ZM7.2 19.2C6.54 19.2 5.9752 18.9652 5.5056 18.4956C5.0352 18.0252 4.8 17.46 4.8 16.8V2.4C4.8 1.74 5.0352 1.1748 5.5056 0.7044C5.9752 0.2348 6.54 0 7.2 0H21.6C22.26 0 22.8252 0.2348 23.2956 0.7044C23.7652 1.1748 24 1.74 24 2.4V16.8C24 17.46 23.7652 18.0252 23.2956 18.4956C22.8252 18.9652 22.26 19.2 21.6 19.2H7.2ZM2.4 24C1.74 24 1.1752 23.7652 0.7056 23.2956C0.2352 22.8252 0 22.26 0 21.6V4.8H2.4V21.6H19.2V24H2.4Z" fill="white"/>
</svg>
