<svg width="39" height="48" viewBox="0 0 39 48" fill="none" xmlns="http://www.w3.org/2000/svg">
<path d="M16.8 35.6H21.9429V21.6571H16.8V35.6ZM19.3714 17.8286C20.1714 17.8286 20.829 17.5619 21.344 17.0286C21.8575 16.4952 22.1143 15.8286 22.1143 15.0286C22.1143 14.2667 21.8575 13.619 21.344 13.0857C20.829 12.5524 20.1714 12.2857 19.3714 12.2857C18.5714 12.2857 17.9147 12.5524 17.4011 13.0857C16.8861 13.619 16.6286 14.2667 16.6286 15.0286C16.6286 15.8286 16.8861 16.4952 17.4011 17.0286C17.9147 17.5619 18.5714 17.8286 19.3714 17.8286ZM19.3714 48C13.7714 46.5905 9.14286 43.4095 5.48571 38.4571C1.82857 33.5048 0 28 0 21.9429V7.25714L19.3714 0L38.7429 7.25714V21.9429C38.7429 28 36.9143 33.5048 33.2571 38.4571C29.6 43.4095 24.9714 46.5905 19.3714 48Z" fill="#11B0F9"/>
</svg>
