<svg width="1440" height="510" viewBox="0 0 1440 510" fill="none" xmlns="http://www.w3.org/2000/svg">
<g style="mix-blend-mode:luminosity" opacity="0.04" clip-path="url(#clip0_32_2043)">
<path d="M1174.43 392.16V392.182H1174.45L1174.43 392.16Z" fill="#0020EA"/>
<path d="M1174.43 392.204V392.16L1127.92 365.326L1071.06 398.155L1024.58 424.989V456.048V478.657V490.669L1034.98 484.674V484.652L1081.44 457.84V457.818L1127.92 430.984H1127.94L1157.95 448.305" fill="#0047F9"/>
<path d="M1174.43 392.204V404.15V457.818L1157.95 448.306L1174.43 457.818L1157.95 448.306L1174.43 392.204Z" fill="#0020EA"/>
<path d="M1081.44 509.008V480.449V457.84L1034.98 484.674L1024.58 490.669V544.337L1071.06 571.171L1081.44 577.144V509.008Z" fill="url(#paint0_linear_32_2043)"/>
<path d="M1174.43 511.508L1220.91 484.652L1174.43 511.508Z" fill="#0047F9"/>
<path d="M1112.3 440.01L1127.94 430.984L1081.44 457.84L1112.3 440.01Z" fill="#0047F9"/>
<path d="M1081.44 457.84L1034.98 484.652L1081.44 457.84Z" fill="#0047F9"/>
<path d="M1231.29 490.647V478.679L1220.91 484.652L1174.43 511.508L1127.94 538.342H1127.92L1097.92 521.02L1095.97 519.892L1081.44 511.508V565.176V577.144L1127.92 604L1184.8 571.171L1231.29 544.337V490.647Z" fill="#0047F9"/>
<path d="M1157.95 448.306L1153.12 445.54L1127.94 430.984L1157.95 448.306Z" fill="#0047F9"/>
<path d="M1184.8 398.155L1174.45 392.182H1174.43V392.204V404.15V457.818V460.296V466.269V511.508L1220.91 484.652L1231.29 478.679V424.989L1184.8 398.155Z" fill="url(#paint1_linear_32_2043)"/>
<path d="M967.717 392.204V392.16L921.211 365.326L864.351 398.155L817.867 424.989V456.048V478.657V490.669L828.265 484.674L828.243 484.652H828.265L874.727 457.84V457.818L921.211 430.984H921.233L951.234 448.305" fill="#0047F9"/>
<path d="M967.717 392.204V404.15V457.818L951.234 448.306L967.717 457.818L951.234 448.306L967.717 392.204Z" fill="#0020EA"/>
<path d="M874.727 509.008V480.449V457.84L828.265 484.674L817.867 490.669V544.337L864.351 571.171L874.727 577.144V509.008Z" fill="url(#paint2_linear_32_2043)"/>
<path d="M967.717 511.508L1014.2 484.652L967.717 511.508Z" fill="#0047F9"/>
<path d="M905.591 440.01L921.233 430.984L874.727 457.84L905.591 440.01Z" fill="#0047F9"/>
<path d="M874.727 457.84L828.265 484.652L874.727 457.84Z" fill="#0047F9"/>
<path d="M1024.58 490.647V478.679L1014.2 484.652L967.717 511.508L921.211 538.342L891.21 521.02L889.263 519.892L874.727 511.508V565.176V577.144L921.211 604L978.072 571.171L1024.58 544.337V490.647Z" fill="#0047F9"/>
<path d="M951.234 448.306L946.411 445.54L921.233 430.984L951.234 448.306Z" fill="#0047F9"/>
<path d="M978.094 398.155L967.717 392.182V392.204V404.15V457.818V460.296V466.269V511.508L1014.2 484.652L1024.58 478.679V424.989L978.094 398.155Z" fill="url(#paint3_linear_32_2043)"/>
<path d="M761.006 392.182L760.984 392.16V392.204L761.006 392.182Z" fill="#0047F9"/>
<path d="M760.984 392.204V392.16L714.5 365.326L657.639 398.155L611.155 424.989V456.048V478.657V490.669L621.532 484.674V484.652H621.554L668.016 457.84V457.818L714.5 430.984H714.522L744.523 448.305" fill="#0047F9"/>
<path d="M760.984 392.204V404.15V457.818L744.523 448.306L760.984 457.818L744.523 448.306L760.984 392.204Z" fill="#0020EA"/>
<path d="M668.016 509.008V480.449V457.84L621.532 484.674L611.155 490.669V544.337L657.639 571.171L668.016 577.144V509.008Z" fill="url(#paint4_linear_32_2043)"/>
<path d="M760.984 511.508L807.49 484.652L760.984 511.508Z" fill="#0047F9"/>
<path d="M698.88 440.01L714.522 430.984L668.016 457.84L698.88 440.01Z" fill="#0047F9"/>
<path d="M668.016 457.84L621.554 484.652L668.016 457.84Z" fill="#0047F9"/>
<path d="M817.867 490.647V478.679L807.49 484.652L760.984 511.508L714.5 538.342L684.499 521.02L682.552 519.892L668.016 511.508V565.176V577.144L714.5 604L771.36 571.171L817.867 544.337V490.647Z" fill="#0047F9"/>
<path d="M744.523 448.306L739.7 445.54L714.522 430.984L744.523 448.306Z" fill="#0047F9"/>
<path d="M771.383 398.155L761.006 392.182L760.984 392.204V404.15V457.818V460.296V466.269V511.508L807.49 484.652L817.867 478.679V424.989L771.383 398.155Z" fill="url(#paint5_linear_32_2043)"/>
<path d="M554.295 392.182L554.273 392.16V392.204L554.295 392.182Z" fill="#0047F9"/>
<path d="M554.273 392.204V392.16L507.789 365.326L450.928 398.155L404.422 424.989V456.048V478.657V490.669L414.821 484.674V484.652L461.305 457.84V457.818L507.789 430.984L537.79 448.305" fill="#0047F9"/>
<path d="M554.273 392.204V404.15V457.818L537.79 448.306L554.273 457.818L537.79 448.306L554.273 392.204Z" fill="#0020EA"/>
<path d="M461.305 509.008V480.449V457.84L414.821 484.674L404.422 490.669V544.337L450.928 571.171L461.305 577.144V509.008Z" fill="url(#paint6_linear_32_2043)"/>
<path d="M554.273 511.508L600.757 484.652L554.273 511.508Z" fill="#0047F9"/>
<path d="M492.169 440.01L507.789 430.984L461.305 457.84L492.169 440.01Z" fill="#0047F9"/>
<path d="M461.305 457.84L414.821 484.652L461.305 457.84Z" fill="#0047F9"/>
<path d="M611.155 490.647V478.679L600.757 484.652L554.273 511.508L507.789 538.342L477.788 521.02L475.841 519.892L461.305 511.508V565.176V577.144L507.789 604L564.649 571.171L611.155 544.337V490.647Z" fill="#0047F9"/>
<path d="M537.79 448.306L532.989 445.54L507.789 430.984L537.79 448.306Z" fill="#0047F9"/>
<path d="M564.671 398.155L554.295 392.182L554.273 392.204V404.15V457.818V460.296V466.269V511.508L600.757 484.652L611.155 478.679V424.989L564.671 398.155Z" fill="url(#paint7_linear_32_2043)"/>
<path d="M347.584 392.16L347.562 392.182H347.584V392.16Z" fill="#0020EA"/>
<path d="M347.562 392.204V392.16L301.078 365.326L244.195 398.155L197.711 424.989V456.048V478.657V490.669L208.11 484.674V484.652L254.572 457.84V457.818L301.078 430.984L331.079 448.305" fill="#0047F9"/>
<path d="M347.562 392.204V404.15V457.818L331.079 448.306L347.562 457.818L331.079 448.306L347.562 392.204Z" fill="#0020EA"/>
<path d="M254.572 509.008V480.449V457.84L208.11 484.674L197.711 490.669V544.337L244.195 571.171L254.572 577.144V509.008Z" fill="url(#paint8_linear_32_2043)"/>
<path d="M347.562 511.508L394.046 484.652L347.562 511.508Z" fill="#0047F9"/>
<path d="M285.458 440.01L301.078 430.984L254.572 457.84L285.458 440.01Z" fill="#0047F9"/>
<path d="M254.572 457.84L208.11 484.652L254.572 457.84Z" fill="#0047F9"/>
<path d="M404.422 490.647V478.679L394.046 484.652L347.562 511.508L301.078 538.342L271.077 521.02L269.108 519.892L254.572 511.508V565.176V577.144L301.078 604L357.938 571.171L404.422 544.337V490.647Z" fill="#0047F9"/>
<path d="M331.079 448.306L326.256 445.54L301.078 430.984L331.079 448.306Z" fill="#0047F9"/>
<path d="M357.96 398.155L347.584 392.182H347.562V392.204V404.15V457.818V460.296V466.269V511.508L394.046 484.652L404.422 478.679V424.989L357.96 398.155Z" fill="url(#paint9_linear_32_2043)"/>
<path d="M140.873 392.16L140.851 392.182H140.873V392.16Z" fill="#0020EA"/>
<path d="M140.851 392.204V392.16L94.3667 365.326L37.484 398.155L-8.99997 424.989V456.048V478.657V490.669L1.39864 484.674V484.652L47.8605 457.84V457.818L94.3445 430.984H94.3667L124.368 448.305" fill="#0047F9"/>
<path d="M140.851 392.204V404.15V457.818L124.368 448.306L140.851 457.818L124.368 448.306L140.851 392.204Z" fill="#0020EA"/>
<path d="M47.8605 509.008V480.449V457.84L1.39864 484.674L-8.99997 490.669V544.337L37.484 571.171L47.8605 577.144V509.008Z" fill="url(#paint10_linear_32_2043)"/>
<path d="M140.851 511.508L187.335 484.652L140.851 511.508Z" fill="#0047F9"/>
<path d="M78.7245 440.01L94.3666 430.984L47.8605 457.84L78.7245 440.01Z" fill="#0047F9"/>
<path d="M47.8605 457.84L1.39859 484.652L47.8605 457.84Z" fill="#0047F9"/>
<path d="M197.711 490.647V478.679L187.335 484.652L140.851 511.508L94.3666 538.342H94.3445L64.3434 521.02L62.3964 519.892L47.8605 511.508V565.176V577.144L94.3666 604L151.227 571.171L197.711 544.337V490.647Z" fill="#0047F9"/>
<path d="M124.368 448.306L119.545 445.54L94.3666 430.984L124.368 448.306Z" fill="#0047F9"/>
<path d="M151.227 398.155L140.873 392.182H140.851V392.204V404.15V457.818V460.296V466.269V511.508L187.335 484.652L197.711 478.679V424.989L151.227 398.155Z" fill="url(#paint11_linear_32_2043)"/>
<path d="M1174.43 153.486V153.508H1174.45L1174.43 153.486Z" fill="#0020EA"/>
<path d="M1174.43 153.53V153.508L1127.92 126.674L1071.06 159.503L1024.58 186.337V217.374V239.983V251.995L1034.98 246L1081.44 219.166L1127.92 192.31L1127.94 192.332L1157.95 209.654" fill="#0047F9"/>
<path d="M1174.43 153.53V165.498V219.166L1157.95 209.654L1174.43 219.166L1157.95 209.654L1174.43 153.53Z" fill="#0020EA"/>
<path d="M1081.44 270.334V241.775V219.166L1034.98 246L1024.58 251.995V305.663L1071.06 332.497L1081.44 338.492V270.334Z" fill="url(#paint12_linear_32_2043)"/>
<path d="M1127.94 299.668L1169.43 275.71L1174.43 272.834L1127.94 299.668Z" fill="#0047F9"/>
<path d="M1174.43 272.834L1220.91 246L1174.43 272.834Z" fill="#0047F9"/>
<path d="M1066.08 335.373L1071.06 332.497L1066.08 335.373Z" fill="#0047F9"/>
<path d="M1112.3 201.358L1127.94 192.332L1081.44 219.166L1112.3 201.358Z" fill="#0047F9"/>
<path d="M1081.44 219.166L1034.98 246L1081.44 219.166Z" fill="#0047F9"/>
<path d="M1231.29 251.995V240.005L1220.91 246L1174.43 272.834L1127.94 299.668H1127.92L1097.92 282.346L1095.97 281.218L1081.44 272.834V326.502V338.492L1127.92 365.326L1184.8 332.497L1231.29 305.663V251.995Z" fill="#0047F9"/>
<path d="M1157.95 209.654L1153.12 206.866L1127.94 192.332L1157.95 209.654Z" fill="#0047F9"/>
<path d="M1184.8 159.503L1174.45 153.508H1174.43V153.53V165.498V219.166V221.622V227.595V272.834L1220.91 246L1231.29 240.005V186.337L1184.8 159.503Z" fill="url(#paint13_linear_32_2043)"/>
<path d="M1097.92 282.346L1095.97 281.218L1081.44 272.834V326.502V338.492" fill="#0020EA"/>
<path d="M967.717 153.53V153.508L921.211 126.674L864.351 159.503L817.867 186.337V217.374V239.983V251.995L828.265 246H828.243H828.265L874.727 219.166L921.211 192.31L921.233 192.332L951.234 209.654" fill="#0047F9"/>
<path d="M967.717 153.53V165.498V219.166L951.234 209.654L967.717 219.166L951.234 209.654L967.717 153.53Z" fill="#0020EA"/>
<path d="M874.727 270.334V241.775V219.166L828.265 246L817.867 251.995V305.663L864.351 332.497L874.727 338.492V270.334Z" fill="url(#paint14_linear_32_2043)"/>
<path d="M921.211 299.668L962.717 275.71L967.717 272.834L921.211 299.668Z" fill="#0047F9"/>
<path d="M967.717 272.834L1014.2 246L967.717 272.834Z" fill="#0047F9"/>
<path d="M859.372 335.373L864.351 332.497L859.372 335.373Z" fill="#0047F9"/>
<path d="M905.591 201.358L921.233 192.332L874.727 219.166L905.591 201.358Z" fill="#0047F9"/>
<path d="M874.727 219.166L828.265 246L874.727 219.166Z" fill="#0047F9"/>
<path d="M1024.58 251.995V240.005L1014.2 246L967.717 272.834L921.211 299.668L891.21 282.346L889.263 281.218L874.727 272.834V326.502V338.492L921.211 365.326L978.072 332.497L1024.58 305.663V251.995Z" fill="#0047F9"/>
<path d="M951.234 209.654L946.411 206.866L921.233 192.332L951.234 209.654Z" fill="#0047F9"/>
<path d="M978.094 159.503L967.717 153.508V153.53V165.498V219.166V221.622V227.595V272.834L1014.2 246L1024.58 240.005V186.337L978.094 159.503Z" fill="url(#paint15_linear_32_2043)"/>
<path d="M891.21 282.346L889.263 281.218L874.727 272.834V326.502V338.492" fill="#0020EA"/>
<path d="M761.006 153.508H760.984V153.53L761.006 153.508Z" fill="#0047F9"/>
<path d="M760.984 153.53V153.508L714.5 126.674L657.639 159.503L611.155 186.337V217.374V239.983V251.995L621.532 246H621.554L668.016 219.166L714.5 192.31L714.522 192.332L744.523 209.654" fill="#0047F9"/>
<path d="M760.984 153.53V165.498V219.166L744.523 209.654L760.984 219.166L744.523 209.654L760.984 153.53Z" fill="#0020EA"/>
<path d="M668.016 270.334V241.775V219.166L621.532 246L611.155 251.995V305.663L657.639 332.497L668.016 338.492V270.334Z" fill="url(#paint16_linear_32_2043)"/>
<path d="M714.5 299.668L756.006 275.71L760.984 272.834L714.5 299.668Z" fill="#0047F9"/>
<path d="M760.984 272.834L807.49 246L760.984 272.834Z" fill="#0047F9"/>
<path d="M652.639 335.373L657.639 332.497L652.639 335.373Z" fill="#0047F9"/>
<path d="M698.88 201.358L714.522 192.332L668.016 219.166L698.88 201.358Z" fill="#0047F9"/>
<path d="M668.016 219.166L621.554 246L668.016 219.166Z" fill="#0047F9"/>
<path d="M817.867 251.995V240.005L807.49 246L760.984 272.834L714.5 299.668L684.499 282.346L682.552 281.218L668.016 272.834V326.502V338.492L714.5 365.326L771.36 332.497L817.867 305.663V251.995Z" fill="#0047F9"/>
<path d="M744.523 209.654L739.7 206.866L714.522 192.332L744.523 209.654Z" fill="#0047F9"/>
<path d="M771.383 159.503L761.006 153.508L760.984 153.53V165.498V219.166V221.622V227.595V272.834L807.49 246L817.867 240.005V186.337L771.383 159.503Z" fill="url(#paint17_linear_32_2043)"/>
<path d="M684.499 282.346L682.552 281.218L668.016 272.834V326.502V338.492" fill="#0020EA"/>
<path d="M554.295 153.508H554.273V153.53L554.295 153.508Z" fill="#0047F9"/>
<path d="M554.273 153.53V153.508L507.789 126.674L450.928 159.503L404.422 186.337V217.374V239.983V251.995L414.821 246L461.305 219.166L507.789 192.31V192.332L537.79 209.654" fill="#0047F9"/>
<path d="M554.273 153.53V165.498V219.166L537.79 209.654L554.273 219.166L537.79 209.654L554.273 153.53Z" fill="#0020EA"/>
<path d="M461.305 270.334V241.775V219.166L414.821 246L404.422 251.995V305.663L450.928 332.497L461.305 338.492V270.334Z" fill="url(#paint18_linear_32_2043)"/>
<path d="M507.789 299.668L549.295 275.71L554.273 272.834L507.789 299.668Z" fill="#0047F9"/>
<path d="M554.273 272.834L600.757 246L554.273 272.834Z" fill="#0047F9"/>
<path d="M445.928 335.373L450.928 332.497L445.928 335.373Z" fill="#0047F9"/>
<path d="M492.169 201.358L507.789 192.332L461.305 219.166L492.169 201.358Z" fill="#0047F9"/>
<path d="M461.305 219.166L414.821 246L461.305 219.166Z" fill="#0047F9"/>
<path d="M611.155 251.995V240.005L600.757 246L554.273 272.834L507.789 299.668L477.788 282.346L475.841 281.218L461.305 272.834V326.502V338.492L507.789 365.326L564.649 332.497L611.155 305.663V251.995Z" fill="#0047F9"/>
<path d="M537.79 209.654L532.989 206.866L507.789 192.332L537.79 209.654Z" fill="#0047F9"/>
<path d="M564.671 159.503L554.295 153.508L554.273 153.53V165.498V219.166V221.622V227.595V272.834L600.757 246L611.155 240.005V186.337L564.671 159.503Z" fill="url(#paint19_linear_32_2043)"/>
<path d="M477.788 282.346L475.841 281.218L461.305 272.834V326.502V338.492" fill="#0020EA"/>
<path d="M347.584 153.486L347.562 153.508H347.584V153.486Z" fill="#0020EA"/>
<path d="M347.562 153.53V153.508L301.078 126.674L244.195 159.503L197.711 186.337V217.374V239.983V251.995L208.11 246L254.572 219.166L301.078 192.31V192.332L331.079 209.654" fill="#0047F9"/>
<path d="M347.562 153.53V165.498V219.166L331.079 209.654L347.562 219.166L331.079 209.654L347.562 153.53Z" fill="#0020EA"/>
<path d="M254.572 270.334V241.775V219.166L208.11 246L197.711 251.995V305.663L244.195 332.497L254.572 338.492V270.334Z" fill="url(#paint20_linear_32_2043)"/>
<path d="M301.078 299.668L342.584 275.71L347.562 272.834L301.078 299.668Z" fill="#0047F9"/>
<path d="M347.562 272.834L394.046 246L347.562 272.834Z" fill="#0047F9"/>
<path d="M239.217 335.373L244.195 332.497L239.217 335.373Z" fill="#0047F9"/>
<path d="M285.458 201.358L301.078 192.332L254.572 219.166L285.458 201.358Z" fill="#0047F9"/>
<path d="M254.572 219.166L208.11 246L254.572 219.166Z" fill="#0047F9"/>
<path d="M404.422 251.995V240.005L394.046 246L347.562 272.834L301.078 299.668L271.077 282.346L269.108 281.218L254.572 272.834V326.502V338.492L301.078 365.326L357.938 332.497L404.422 305.663V251.995Z" fill="#0047F9"/>
<path d="M331.079 209.654L326.256 206.866L301.078 192.332L331.079 209.654Z" fill="#0047F9"/>
<path d="M357.96 159.503L347.584 153.508H347.562V153.53V165.498V219.166V221.622V227.595V272.834L394.046 246L404.422 240.005V186.337L357.96 159.503Z" fill="url(#paint21_linear_32_2043)"/>
<path d="M271.077 282.346L269.108 281.218L254.572 272.834V326.502V338.492" fill="#0020EA"/>
<path d="M140.873 153.486L140.851 153.508H140.873V153.486Z" fill="#0020EA"/>
<path d="M140.851 153.53V153.508L94.3666 126.674L37.484 159.503L-9 186.337V217.374V239.983V251.995L1.39861 246L47.8605 219.166L94.3445 192.31H94.3666V192.332L124.368 209.654" fill="#0047F9"/>
<path d="M140.851 153.53V165.498V219.166L124.368 209.654L140.851 219.166L124.368 209.654L140.851 153.53Z" fill="#0020EA"/>
<path d="M47.8605 270.334V241.775V219.166L1.39861 246L-9 251.995V305.663L37.484 332.497L47.8605 338.492V270.334Z" fill="url(#paint22_linear_32_2043)"/>
<path d="M94.3666 299.668L135.85 275.71L140.851 272.834L94.3666 299.668Z" fill="#0047F9"/>
<path d="M140.851 272.834L187.335 246L140.851 272.834Z" fill="#0047F9"/>
<path d="M32.5059 335.373L37.484 332.497L32.5059 335.373Z" fill="#0047F9"/>
<path d="M78.7244 201.358L94.3666 192.332L47.8605 219.166L78.7244 201.358Z" fill="#0047F9"/>
<path d="M47.8605 219.166L1.39859 246L47.8605 219.166Z" fill="#0047F9"/>
<path d="M197.711 251.995V240.005L187.335 246L140.851 272.834L94.3666 299.668H94.3445L64.3434 282.346L62.3964 281.218L47.8605 272.834V326.502V338.492L94.3666 365.326L151.227 332.497L197.711 305.663V251.995Z" fill="#0047F9"/>
<path d="M124.368 209.654L119.545 206.866L94.3666 192.332L124.368 209.654Z" fill="#0047F9"/>
<path d="M151.227 159.503L140.873 153.508H140.851V153.53V165.498V219.166V221.622V227.595V272.834L187.335 246L197.711 240.005V186.337L151.227 159.503Z" fill="url(#paint23_linear_32_2043)"/>
<path d="M64.3434 282.346L62.3964 281.218L47.8605 272.834V326.502V338.492" fill="#0020EA"/>
<path d="M1174.43 -85.1218V-85.166L1127.92 -112L1071.06 -79.171L1024.58 -52.337V-21.2778V1.3309V13.3431L1034.98 7.32596L1081.44 -19.4859V-19.508L1127.92 -46.342H1127.94L1157.95 -29.0205" fill="#0047F9"/>
<path d="M1081.44 31.6822V3.12276V-19.4859L1034.98 7.32593L1024.58 13.3431V66.9889L1071.06 93.845L1081.44 99.8179V31.6822Z" fill="url(#paint24_linear_32_2043)"/>
<path d="M1127.94 61.016L1169.43 37.0579L1174.43 34.1599L1127.94 61.016Z" fill="#0047F9"/>
<path d="M1174.43 34.1599L1220.91 7.32593L1174.43 34.1599Z" fill="#0047F9"/>
<path d="M1066.08 96.7209L1071.06 93.845L1066.08 96.7209Z" fill="#0047F9"/>
<path d="M1081.44 -19.4859L1034.98 7.32594L1081.44 -19.4859Z" fill="#0047F9"/>
<path d="M1231.29 13.3211V1.33093L1220.91 7.32599L1174.43 34.16L1127.94 61.016H1127.92L1097.92 43.6945L1095.97 42.5663L1081.44 34.1821V87.85V99.818L1127.92 126.674L1184.8 93.8451L1231.29 66.989V13.3211Z" fill="#0047F9"/>
<path d="M1184.8 -79.171L1174.45 -85.1439L1174.43 -85.166V-85.1218V-73.1759V-19.508V-17.0303V-11.0574V34.1599L1220.91 7.32598L1231.29 1.33092V-52.337L1184.8 -79.171Z" fill="url(#paint25_linear_32_2043)"/>
<path d="M1097.92 43.6945L1095.97 42.5663L1081.44 34.1821V87.85V99.818" fill="#0020EA"/>
<path d="M967.717 -85.1218V-85.166L921.211 -112L864.351 -79.171L817.867 -52.337V-21.2778V1.3309V13.3431L828.265 7.32596H828.243H828.265L874.727 -19.4859V-19.508L921.211 -46.342H921.233L951.234 -29.0205" fill="#0047F9"/>
<path d="M874.727 31.6822V3.12276V-19.4859L828.265 7.32593L817.867 13.3431V66.9889L864.351 93.845L874.727 99.8179V31.6822Z" fill="url(#paint26_linear_32_2043)"/>
<path d="M921.211 61.016L962.717 37.0579L967.717 34.1599L921.211 61.016Z" fill="#0047F9"/>
<path d="M967.717 34.1599L1014.2 7.32593L967.717 34.1599Z" fill="#0047F9"/>
<path d="M859.372 96.7209L864.351 93.845L859.372 96.7209Z" fill="#0047F9"/>
<path d="M874.727 -19.4859L828.265 7.32594L874.727 -19.4859Z" fill="#0047F9"/>
<path d="M1024.58 13.3211V1.33093L1014.2 7.32599L967.717 34.16L921.211 61.016L891.21 43.6945L889.263 42.5663L874.727 34.1821V87.85V99.818L921.211 126.674L978.072 93.8451L1024.58 66.989V13.3211Z" fill="#0047F9"/>
<path d="M978.094 -79.171L967.717 -85.1439V-85.166V-85.1218V-73.1759V-19.508V-17.0303V-11.0574V34.1599L1014.2 7.32598L1024.58 1.33092V-52.337L978.094 -79.171Z" fill="url(#paint27_linear_32_2043)"/>
<path d="M891.21 43.6945L889.263 42.5663L874.727 34.1821V87.85V99.818" fill="#0020EA"/>
<path d="M760.984 -85.1218V-85.166L714.5 -112L657.639 -79.171L611.155 -52.337V-21.2778V1.3309V13.3431L621.532 7.32596H621.554L668.016 -19.4859V-19.508L714.5 -46.342H714.522L744.523 -29.0205" fill="#0047F9"/>
<path d="M668.016 31.6822V3.12276V-19.4859L621.532 7.32593L611.155 13.3431V66.9889L657.639 93.845L668.016 99.8179V31.6822Z" fill="url(#paint28_linear_32_2043)"/>
<path d="M714.5 61.016L756.006 37.0579L760.984 34.1599L714.5 61.016Z" fill="#0047F9"/>
<path d="M760.984 34.1599L807.49 7.32593L760.984 34.1599Z" fill="#0047F9"/>
<path d="M652.639 96.7209L657.639 93.845L652.639 96.7209Z" fill="#0047F9"/>
<path d="M668.016 -19.4859L621.554 7.32594L668.016 -19.4859Z" fill="#0047F9"/>
<path d="M817.867 13.3211V1.33093L807.49 7.32599L760.984 34.16L714.5 61.016L684.499 43.6945L682.552 42.5663L668.016 34.1821V87.85V99.818L714.5 126.674L771.36 93.8451L817.867 66.989V13.3211Z" fill="#0047F9"/>
<path d="M771.383 -79.171L761.006 -85.1439V-85.166L760.984 -85.1218V-73.1759V-19.508V-17.0303V-11.0574V34.1599L807.49 7.32598L817.867 1.33092V-52.337L771.383 -79.171Z" fill="url(#paint29_linear_32_2043)"/>
<path d="M684.499 43.6945L682.552 42.5663L668.016 34.1821V87.85V99.818" fill="#0020EA"/>
<path d="M554.273 -85.1218V-85.166L507.789 -112L450.928 -79.171L404.422 -52.337V-21.2778V1.3309V13.3431L414.821 7.32596L461.305 -19.4859V-19.508L507.789 -46.342L537.79 -29.0205" fill="#0047F9"/>
<path d="M461.305 31.6822V3.12276V-19.4859L414.821 7.32593L404.422 13.3431V66.9889L450.928 93.845L461.305 99.8179V31.6822Z" fill="url(#paint30_linear_32_2043)"/>
<path d="M507.789 61.016L549.295 37.0579L554.273 34.1599L507.789 61.016Z" fill="#0047F9"/>
<path d="M554.273 34.1599L600.757 7.32593L554.273 34.1599Z" fill="#0047F9"/>
<path d="M445.928 96.7209L450.928 93.845L445.928 96.7209Z" fill="#0047F9"/>
<path d="M461.305 -19.4859L414.821 7.32594L461.305 -19.4859Z" fill="#0047F9"/>
<path d="M611.155 13.3211V1.33093L600.757 7.32599L554.273 34.16L507.789 61.016L477.788 43.6945L475.841 42.5663L461.305 34.1821V87.85V99.818L507.789 126.674L564.649 93.8451L611.155 66.989V13.3211Z" fill="#0047F9"/>
<path d="M564.671 -79.171L554.295 -85.1439V-85.166L554.273 -85.1218V-73.1759V-19.508V-17.0303V-11.0574V34.1599L600.757 7.32598L611.155 1.33092V-52.337L564.671 -79.171Z" fill="url(#paint31_linear_32_2043)"/>
<path d="M477.788 43.6945L475.841 42.5663L461.305 34.1821V87.85V99.818" fill="#0020EA"/>
<path d="M347.562 -85.1218V-85.166L301.078 -112L244.195 -79.171L197.711 -52.337V-21.2778V1.3309V13.3431L208.11 7.32596L254.572 -19.4859V-19.508L301.078 -46.342L331.079 -29.0205" fill="#0047F9"/>
<path d="M254.572 31.6822V3.12276V-19.4859L208.11 7.32593L197.711 13.3431V66.9889L244.195 93.845L254.572 99.8179V31.6822Z" fill="url(#paint32_linear_32_2043)"/>
<path d="M301.078 61.016L342.584 37.0579L347.562 34.1599L301.078 61.016Z" fill="#0047F9"/>
<path d="M347.562 34.1599L394.046 7.32593L347.562 34.1599Z" fill="#0047F9"/>
<path d="M239.217 96.7209L244.195 93.845L239.217 96.7209Z" fill="#0047F9"/>
<path d="M254.572 -19.4859L208.11 7.32594L254.572 -19.4859Z" fill="#0047F9"/>
<path d="M404.422 13.3211V1.33093L394.046 7.32599L347.562 34.16L301.078 61.016L271.077 43.6945L269.108 42.5663L254.572 34.1821V87.85V99.818L301.078 126.674L357.938 93.8451L404.422 66.989V13.3211Z" fill="#0047F9"/>
<path d="M357.96 -79.171L347.584 -85.1439L347.562 -85.166V-85.1218V-73.1759V-19.508V-17.0303V-11.0574V34.1599L394.046 7.32598L404.422 1.33092V-52.337L357.96 -79.171Z" fill="url(#paint33_linear_32_2043)"/>
<path d="M271.077 43.6945L269.108 42.5663L254.572 34.1821V87.85V99.818" fill="#0020EA"/>
<path d="M140.851 -85.1218V-85.166L94.3666 -112L37.484 -79.171L-8.99999 -52.337V-21.2778V1.3309V13.3431L1.39862 7.32596L47.8605 -19.4859V-19.508L94.3445 -46.342H94.3666L124.368 -29.0205" fill="#0047F9"/>
<path d="M47.8605 31.6822V3.12276V-19.4859L1.39862 7.32593L-8.99999 13.3431V66.9889L37.484 93.845L47.8605 99.8179V31.6822Z" fill="url(#paint34_linear_32_2043)"/>
<path d="M94.3666 61.016L135.85 37.0579L140.851 34.1599L94.3666 61.016Z" fill="#0047F9"/>
<path d="M140.851 34.1599L187.335 7.32593L140.851 34.1599Z" fill="#0047F9"/>
<path d="M32.506 96.7208L37.484 93.845L32.506 96.7208Z" fill="#0047F9"/>
<path d="M47.8605 -19.4859L1.39862 7.32594L47.8605 -19.4859Z" fill="#0047F9"/>
<path d="M197.711 13.321V1.33087L187.335 7.32593L140.851 34.1599L94.3666 61.016H94.3445L64.3434 43.6945L62.3964 42.5662L47.8605 34.182V87.8499V99.8179L94.3666 126.674L151.227 93.845L197.711 66.9889V13.321Z" fill="#0047F9"/>
<path d="M151.227 -79.171L140.873 -85.144L140.851 -85.1661V-85.1218V-73.176V-19.508V-17.0304V-11.0574V34.1599L187.335 7.32592L197.711 1.33086V-52.3371L151.227 -79.171Z" fill="url(#paint35_linear_32_2043)"/>
<path d="M64.3434 43.6944L62.3964 42.5662L47.8605 34.182V87.8499V99.8179" fill="#0020EA"/>
<path d="M1381.16 392.16L1381.14 392.182H1381.16V392.16Z" fill="#0020EA"/>
<path d="M1381.14 392.204V392.16L1334.66 365.326L1277.77 398.155L1231.29 424.989V456.048V478.657V490.669L1241.69 484.674V484.652L1288.15 457.84V457.818L1334.66 430.984L1364.66 448.305" fill="#0047F9"/>
<path d="M1381.14 392.204V404.15V457.818L1364.66 448.306L1381.14 457.818L1364.66 448.306L1381.14 392.204Z" fill="#0020EA"/>
<path d="M1288.15 509.008V480.449V457.84L1241.69 484.674L1231.29 490.669V544.337L1277.77 571.171L1288.15 577.144V509.008Z" fill="url(#paint36_linear_32_2043)"/>
<path d="M1381.14 511.508L1427.62 484.652L1381.14 511.508Z" fill="#0047F9"/>
<path d="M1319.04 440.01L1334.66 430.984L1288.15 457.84L1319.04 440.01Z" fill="#0047F9"/>
<path d="M1288.15 457.84L1241.69 484.652L1288.15 457.84Z" fill="#0047F9"/>
<path d="M1438 490.647V478.679L1427.62 484.652L1381.14 511.508L1334.66 538.342H1334.63L1304.65 521.02L1302.69 519.892L1288.15 511.508V565.176V577.144L1334.66 604L1391.52 571.171L1438 544.337V490.647Z" fill="#0047F9"/>
<path d="M1364.66 448.306L1359.83 445.54L1334.66 430.984L1364.66 448.306Z" fill="#0047F9"/>
<path d="M1391.52 398.155L1381.16 392.182H1381.14V392.204V404.15V457.818V460.296V466.269V511.508L1427.62 484.652L1438 478.679V424.989L1391.52 398.155Z" fill="url(#paint37_linear_32_2043)"/>
<path d="M1381.16 153.486L1381.14 153.508H1381.16V153.486Z" fill="#0020EA"/>
<path d="M1381.14 153.53V153.508L1334.66 126.674L1277.77 159.503L1231.29 186.337V217.374V239.983V251.995L1241.69 246L1288.15 219.166L1334.66 192.31V192.332L1364.66 209.654" fill="#0047F9"/>
<path d="M1381.14 153.53V165.498V219.166L1364.66 209.654L1381.14 219.166L1364.66 209.654L1381.14 153.53Z" fill="#0020EA"/>
<path d="M1288.15 270.334V241.775V219.166L1241.69 246L1231.29 251.995V305.663L1277.77 332.497L1288.15 338.492V270.334Z" fill="url(#paint38_linear_32_2043)"/>
<path d="M1334.66 299.668L1376.14 275.71L1381.14 272.834L1334.66 299.668Z" fill="#0047F9"/>
<path d="M1381.14 272.834L1427.62 246L1381.14 272.834Z" fill="#0047F9"/>
<path d="M1272.79 335.373L1277.77 332.497L1272.79 335.373Z" fill="#0047F9"/>
<path d="M1319.04 201.358L1334.66 192.332L1288.15 219.166L1319.04 201.358Z" fill="#0047F9"/>
<path d="M1288.15 219.166L1241.69 246L1288.15 219.166Z" fill="#0047F9"/>
<path d="M1438 251.995V240.005L1427.62 246L1381.14 272.834L1334.66 299.668H1334.63L1304.65 282.346L1302.69 281.218L1288.15 272.834V326.502V338.492L1334.66 365.326L1391.52 332.497L1438 305.663V251.995Z" fill="#0047F9"/>
<path d="M1364.66 209.654L1359.83 206.866L1334.66 192.332L1364.66 209.654Z" fill="#0047F9"/>
<path d="M1391.52 159.503L1381.16 153.508H1381.14V153.53V165.498V219.166V221.622V227.595V272.834L1427.62 246L1438 240.005V186.337L1391.52 159.503Z" fill="url(#paint39_linear_32_2043)"/>
<path d="M1304.65 282.346L1302.69 281.218L1288.15 272.834V326.502V338.492" fill="#0020EA"/>
<path d="M1381.14 -85.1218V-85.166L1334.66 -112L1277.77 -79.171L1231.29 -52.337V-21.2778V1.3309V13.3431L1241.69 7.32596L1288.15 -19.4859V-19.508L1334.66 -46.342L1364.66 -29.0205" fill="#0047F9"/>
<path d="M1288.15 31.6822V3.12276V-19.4859L1241.69 7.32593L1231.29 13.3431V66.9889L1277.77 93.845L1288.15 99.8179V31.6822Z" fill="url(#paint40_linear_32_2043)"/>
<path d="M1334.66 61.016L1376.14 37.0579L1381.14 34.1599L1334.66 61.016Z" fill="#0047F9"/>
<path d="M1381.14 34.1599L1427.62 7.32593L1381.14 34.1599Z" fill="#0047F9"/>
<path d="M1272.79 96.7209L1277.77 93.845L1272.79 96.7209Z" fill="#0047F9"/>
<path d="M1288.15 -19.4859L1241.69 7.32594L1288.15 -19.4859Z" fill="#0047F9"/>
<path d="M1438 13.3211V1.33093L1427.62 7.32599L1381.14 34.16L1334.66 61.016H1334.63L1304.65 43.6945L1302.69 42.5663L1288.15 34.1821V87.85V99.818L1334.66 126.674L1391.52 93.8451L1438 66.989V13.3211Z" fill="#0047F9"/>
<path d="M1391.52 -79.171L1381.16 -85.1439L1381.14 -85.166V-85.1218V-73.1759V-19.508V-17.0303V-11.0574V34.1599L1427.62 7.32598L1438 1.33092V-52.337L1391.52 -79.171Z" fill="url(#paint41_linear_32_2043)"/>
<path d="M1304.65 43.6945L1302.69 42.5663L1288.15 34.1821V87.85V99.818" fill="#0020EA"/>
</g>
<defs>
<linearGradient id="paint0_linear_32_2043" x1="1041.9" y1="534.471" x2="1154.95" y2="485.925" gradientUnits="userSpaceOnUse">
<stop stop-color="#17E0F9"/>
<stop offset="1" stop-color="#11B0F9"/>
</linearGradient>
<linearGradient id="paint1_linear_32_2043" x1="1174.43" y1="451.845" x2="1297.82" y2="451.845" gradientUnits="userSpaceOnUse">
<stop stop-color="#17E0F9"/>
<stop offset="1" stop-color="#11B0F9"/>
</linearGradient>
<linearGradient id="paint2_linear_32_2043" x1="835.19" y1="534.471" x2="948.221" y2="485.925" gradientUnits="userSpaceOnUse">
<stop stop-color="#17E0F9"/>
<stop offset="1" stop-color="#11B0F9"/>
</linearGradient>
<linearGradient id="paint3_linear_32_2043" x1="967.717" y1="451.845" x2="1091.11" y2="451.845" gradientUnits="userSpaceOnUse">
<stop stop-color="#17E0F9"/>
<stop offset="1" stop-color="#11B0F9"/>
</linearGradient>
<linearGradient id="paint4_linear_32_2043" x1="628.457" y1="534.471" x2="741.51" y2="485.925" gradientUnits="userSpaceOnUse">
<stop stop-color="#17E0F9"/>
<stop offset="1" stop-color="#11B0F9"/>
</linearGradient>
<linearGradient id="paint5_linear_32_2043" x1="760.984" y1="451.845" x2="884.374" y2="451.845" gradientUnits="userSpaceOnUse">
<stop stop-color="#17E0F9"/>
<stop offset="1" stop-color="#11B0F9"/>
</linearGradient>
<linearGradient id="paint6_linear_32_2043" x1="421.746" y1="534.471" x2="534.799" y2="485.925" gradientUnits="userSpaceOnUse">
<stop stop-color="#17E0F9"/>
<stop offset="1" stop-color="#11B0F9"/>
</linearGradient>
<linearGradient id="paint7_linear_32_2043" x1="554.273" y1="451.845" x2="677.662" y2="451.845" gradientUnits="userSpaceOnUse">
<stop stop-color="#17E0F9"/>
<stop offset="1" stop-color="#11B0F9"/>
</linearGradient>
<linearGradient id="paint8_linear_32_2043" x1="215.035" y1="534.471" x2="328.088" y2="485.925" gradientUnits="userSpaceOnUse">
<stop stop-color="#17E0F9"/>
<stop offset="1" stop-color="#11B0F9"/>
</linearGradient>
<linearGradient id="paint9_linear_32_2043" x1="347.562" y1="451.845" x2="470.951" y2="451.845" gradientUnits="userSpaceOnUse">
<stop stop-color="#17E0F9"/>
<stop offset="1" stop-color="#11B0F9"/>
</linearGradient>
<linearGradient id="paint10_linear_32_2043" x1="8.32367" y1="534.471" x2="121.377" y2="485.925" gradientUnits="userSpaceOnUse">
<stop stop-color="#17E0F9"/>
<stop offset="1" stop-color="#11B0F9"/>
</linearGradient>
<linearGradient id="paint11_linear_32_2043" x1="140.851" y1="451.845" x2="264.24" y2="451.845" gradientUnits="userSpaceOnUse">
<stop stop-color="#17E0F9"/>
<stop offset="1" stop-color="#11B0F9"/>
</linearGradient>
<linearGradient id="paint12_linear_32_2043" x1="1041.9" y1="295.819" x2="1154.95" y2="247.251" gradientUnits="userSpaceOnUse">
<stop stop-color="#17E0F9"/>
<stop offset="1" stop-color="#11B0F9"/>
</linearGradient>
<linearGradient id="paint13_linear_32_2043" x1="1174.43" y1="213.171" x2="1297.82" y2="213.171" gradientUnits="userSpaceOnUse">
<stop stop-color="#17E0F9"/>
<stop offset="1" stop-color="#11B0F9"/>
</linearGradient>
<linearGradient id="paint14_linear_32_2043" x1="835.19" y1="295.819" x2="948.221" y2="247.251" gradientUnits="userSpaceOnUse">
<stop stop-color="#17E0F9"/>
<stop offset="1" stop-color="#11B0F9"/>
</linearGradient>
<linearGradient id="paint15_linear_32_2043" x1="967.717" y1="213.171" x2="1091.11" y2="213.171" gradientUnits="userSpaceOnUse">
<stop stop-color="#17E0F9"/>
<stop offset="1" stop-color="#11B0F9"/>
</linearGradient>
<linearGradient id="paint16_linear_32_2043" x1="628.457" y1="295.819" x2="741.51" y2="247.251" gradientUnits="userSpaceOnUse">
<stop stop-color="#17E0F9"/>
<stop offset="1" stop-color="#11B0F9"/>
</linearGradient>
<linearGradient id="paint17_linear_32_2043" x1="760.984" y1="213.171" x2="884.374" y2="213.171" gradientUnits="userSpaceOnUse">
<stop stop-color="#17E0F9"/>
<stop offset="1" stop-color="#11B0F9"/>
</linearGradient>
<linearGradient id="paint18_linear_32_2043" x1="421.746" y1="295.819" x2="534.799" y2="247.251" gradientUnits="userSpaceOnUse">
<stop stop-color="#17E0F9"/>
<stop offset="1" stop-color="#11B0F9"/>
</linearGradient>
<linearGradient id="paint19_linear_32_2043" x1="554.273" y1="213.171" x2="677.662" y2="213.171" gradientUnits="userSpaceOnUse">
<stop stop-color="#17E0F9"/>
<stop offset="1" stop-color="#11B0F9"/>
</linearGradient>
<linearGradient id="paint20_linear_32_2043" x1="215.035" y1="295.819" x2="328.088" y2="247.251" gradientUnits="userSpaceOnUse">
<stop stop-color="#17E0F9"/>
<stop offset="1" stop-color="#11B0F9"/>
</linearGradient>
<linearGradient id="paint21_linear_32_2043" x1="347.562" y1="213.171" x2="470.951" y2="213.171" gradientUnits="userSpaceOnUse">
<stop stop-color="#17E0F9"/>
<stop offset="1" stop-color="#11B0F9"/>
</linearGradient>
<linearGradient id="paint22_linear_32_2043" x1="8.32364" y1="295.819" x2="121.377" y2="247.251" gradientUnits="userSpaceOnUse">
<stop stop-color="#17E0F9"/>
<stop offset="1" stop-color="#11B0F9"/>
</linearGradient>
<linearGradient id="paint23_linear_32_2043" x1="140.851" y1="213.171" x2="264.24" y2="213.171" gradientUnits="userSpaceOnUse">
<stop stop-color="#17E0F9"/>
<stop offset="1" stop-color="#11B0F9"/>
</linearGradient>
<linearGradient id="paint24_linear_32_2043" x1="1041.9" y1="57.1446" x2="1154.95" y2="8.59897" gradientUnits="userSpaceOnUse">
<stop stop-color="#17E0F9"/>
<stop offset="1" stop-color="#11B0F9"/>
</linearGradient>
<linearGradient id="paint25_linear_32_2043" x1="1174.43" y1="-25.503" x2="1297.82" y2="-25.503" gradientUnits="userSpaceOnUse">
<stop stop-color="#17E0F9"/>
<stop offset="1" stop-color="#11B0F9"/>
</linearGradient>
<linearGradient id="paint26_linear_32_2043" x1="835.19" y1="57.1446" x2="948.221" y2="8.59897" gradientUnits="userSpaceOnUse">
<stop stop-color="#17E0F9"/>
<stop offset="1" stop-color="#11B0F9"/>
</linearGradient>
<linearGradient id="paint27_linear_32_2043" x1="967.717" y1="-25.503" x2="1091.11" y2="-25.503" gradientUnits="userSpaceOnUse">
<stop stop-color="#17E0F9"/>
<stop offset="1" stop-color="#11B0F9"/>
</linearGradient>
<linearGradient id="paint28_linear_32_2043" x1="628.457" y1="57.1446" x2="741.51" y2="8.59887" gradientUnits="userSpaceOnUse">
<stop stop-color="#17E0F9"/>
<stop offset="1" stop-color="#11B0F9"/>
</linearGradient>
<linearGradient id="paint29_linear_32_2043" x1="760.984" y1="-25.503" x2="884.374" y2="-25.503" gradientUnits="userSpaceOnUse">
<stop stop-color="#17E0F9"/>
<stop offset="1" stop-color="#11B0F9"/>
</linearGradient>
<linearGradient id="paint30_linear_32_2043" x1="421.746" y1="57.1446" x2="534.799" y2="8.59888" gradientUnits="userSpaceOnUse">
<stop stop-color="#17E0F9"/>
<stop offset="1" stop-color="#11B0F9"/>
</linearGradient>
<linearGradient id="paint31_linear_32_2043" x1="554.273" y1="-25.503" x2="677.662" y2="-25.503" gradientUnits="userSpaceOnUse">
<stop stop-color="#17E0F9"/>
<stop offset="1" stop-color="#11B0F9"/>
</linearGradient>
<linearGradient id="paint32_linear_32_2043" x1="215.035" y1="57.1446" x2="328.088" y2="8.59892" gradientUnits="userSpaceOnUse">
<stop stop-color="#17E0F9"/>
<stop offset="1" stop-color="#11B0F9"/>
</linearGradient>
<linearGradient id="paint33_linear_32_2043" x1="347.562" y1="-25.503" x2="470.951" y2="-25.503" gradientUnits="userSpaceOnUse">
<stop stop-color="#17E0F9"/>
<stop offset="1" stop-color="#11B0F9"/>
</linearGradient>
<linearGradient id="paint34_linear_32_2043" x1="8.32365" y1="57.1446" x2="121.377" y2="8.59891" gradientUnits="userSpaceOnUse">
<stop stop-color="#17E0F9"/>
<stop offset="1" stop-color="#11B0F9"/>
</linearGradient>
<linearGradient id="paint35_linear_32_2043" x1="140.851" y1="-25.5031" x2="264.24" y2="-25.5031" gradientUnits="userSpaceOnUse">
<stop stop-color="#17E0F9"/>
<stop offset="1" stop-color="#11B0F9"/>
</linearGradient>
<linearGradient id="paint36_linear_32_2043" x1="1248.61" y1="534.471" x2="1361.67" y2="485.925" gradientUnits="userSpaceOnUse">
<stop stop-color="#17E0F9"/>
<stop offset="1" stop-color="#11B0F9"/>
</linearGradient>
<linearGradient id="paint37_linear_32_2043" x1="1381.14" y1="451.845" x2="1504.53" y2="451.845" gradientUnits="userSpaceOnUse">
<stop stop-color="#17E0F9"/>
<stop offset="1" stop-color="#11B0F9"/>
</linearGradient>
<linearGradient id="paint38_linear_32_2043" x1="1248.61" y1="295.819" x2="1361.67" y2="247.251" gradientUnits="userSpaceOnUse">
<stop stop-color="#17E0F9"/>
<stop offset="1" stop-color="#11B0F9"/>
</linearGradient>
<linearGradient id="paint39_linear_32_2043" x1="1381.14" y1="213.171" x2="1504.53" y2="213.171" gradientUnits="userSpaceOnUse">
<stop stop-color="#17E0F9"/>
<stop offset="1" stop-color="#11B0F9"/>
</linearGradient>
<linearGradient id="paint40_linear_32_2043" x1="1248.61" y1="57.1446" x2="1361.67" y2="8.59907" gradientUnits="userSpaceOnUse">
<stop stop-color="#17E0F9"/>
<stop offset="1" stop-color="#11B0F9"/>
</linearGradient>
<linearGradient id="paint41_linear_32_2043" x1="1381.14" y1="-25.503" x2="1504.53" y2="-25.503" gradientUnits="userSpaceOnUse">
<stop stop-color="#17E0F9"/>
<stop offset="1" stop-color="#11B0F9"/>
</linearGradient>
<clipPath id="clip0_32_2043">
<rect width="1440" height="510" fill="white"/>
</clipPath>
</defs>
</svg>
