<svg width="1440" height="450" viewBox="0 0 1440 450" fill="none" xmlns="http://www.w3.org/2000/svg">
<g filter="url(#filter0_dd_19_182)">
<rect width="1440" height="450" fill="#00113D"/>
</g>
<g style="mix-blend-mode:luminosity" opacity="0.1" clip-path="url(#clip0_19_182)">
<path d="M1176.43 243.16V243.182H1176.45L1176.43 243.16Z" fill="#0020EA"/>
<path d="M1176.43 243.204V243.16L1129.92 216.326L1073.06 249.155L1026.58 275.989V307.048V329.657V341.669L1036.98 335.674V335.652L1083.44 308.84V308.818L1129.92 281.984H1129.94L1159.95 299.305" fill="#0047F9"/>
<path d="M1176.43 243.204V255.15V308.818L1159.95 299.306L1176.43 308.818L1159.95 299.306L1176.43 243.204Z" fill="#0020EA"/>
<path d="M1083.44 360.008V331.449V308.84L1036.98 335.674L1026.58 341.669V395.337L1073.06 422.171L1083.44 428.144V360.008Z" fill="url(#paint0_linear_19_182)"/>
<path d="M1129.94 389.342L1171.43 365.384L1176.43 362.508L1129.94 389.342Z" fill="#0047F9"/>
<path d="M1176.43 362.508L1222.91 335.652L1176.43 362.508Z" fill="#0047F9"/>
<path d="M1068.08 425.047L1073.06 422.171L1068.08 425.047Z" fill="#0047F9"/>
<path d="M1114.3 291.01L1129.94 281.984L1083.44 308.84L1114.3 291.01Z" fill="#0047F9"/>
<path d="M1083.44 308.84L1036.98 335.652L1083.44 308.84Z" fill="#0047F9"/>
<path d="M1233.29 341.647V329.679L1222.91 335.652L1176.43 362.508L1129.94 389.342H1129.92L1099.92 372.02L1097.97 370.892L1083.44 362.508V416.176V428.144L1129.92 455L1186.8 422.171L1233.29 395.337V341.647Z" fill="#0047F9"/>
<path d="M1159.95 299.306L1155.12 296.54L1129.94 281.984L1159.95 299.306Z" fill="#0047F9"/>
<path d="M1186.8 249.155L1176.45 243.182H1176.43V243.204V255.15V308.818V311.296V317.268V362.508L1222.91 335.652L1233.29 329.679V275.989L1186.8 249.155Z" fill="url(#paint1_linear_19_182)"/>
<path d="M1099.92 372.02L1097.97 370.892L1083.44 362.508V416.176V428.144" fill="#0020EA"/>
<path d="M969.717 243.204V243.16L923.211 216.326L866.351 249.155L819.867 275.989V307.048V329.657V341.669L830.265 335.674L830.243 335.652H830.265L876.727 308.84V308.818L923.211 281.984H923.233L953.234 299.305" fill="#0047F9"/>
<path d="M969.717 243.204V255.15V308.818L953.234 299.306L969.717 308.818L953.234 299.306L969.717 243.204Z" fill="#0020EA"/>
<path d="M876.727 360.008V331.449V308.84L830.265 335.674L819.867 341.669V395.337L866.351 422.171L876.727 428.144V360.008Z" fill="url(#paint2_linear_19_182)"/>
<path d="M923.211 389.342L964.717 365.384L969.717 362.508L923.211 389.342Z" fill="#0047F9"/>
<path d="M969.717 362.508L1016.2 335.652L969.717 362.508Z" fill="#0047F9"/>
<path d="M861.372 425.047L866.351 422.171L861.372 425.047Z" fill="#0047F9"/>
<path d="M907.591 291.01L923.233 281.984L876.727 308.84L907.591 291.01Z" fill="#0047F9"/>
<path d="M876.727 308.84L830.265 335.652L876.727 308.84Z" fill="#0047F9"/>
<path d="M1026.58 341.647V329.679L1016.2 335.652L969.717 362.508L923.211 389.342L893.21 372.02L891.263 370.892L876.727 362.508V416.176V428.144L923.211 455L980.072 422.171L1026.58 395.337V341.647Z" fill="#0047F9"/>
<path d="M953.234 299.306L948.411 296.54L923.233 281.984L953.234 299.306Z" fill="#0047F9"/>
<path d="M980.094 249.155L969.717 243.182V243.204V255.15V308.818V311.296V317.268V362.508L1016.2 335.652L1026.58 329.679V275.989L980.094 249.155Z" fill="url(#paint3_linear_19_182)"/>
<path d="M893.21 372.02L891.263 370.892L876.727 362.508V416.176V428.144" fill="#0020EA"/>
<path d="M763.006 243.182L762.984 243.16V243.204L763.006 243.182Z" fill="#0047F9"/>
<path d="M762.984 243.204V243.16L716.5 216.326L659.639 249.155L613.155 275.989V307.048V329.657V341.669L623.532 335.674V335.652H623.554L670.016 308.84V308.818L716.5 281.984H716.522L746.523 299.305" fill="#0047F9"/>
<path d="M762.984 243.204V255.15V308.818L746.523 299.306L762.984 308.818L746.523 299.306L762.984 243.204Z" fill="#0020EA"/>
<path d="M670.016 360.008V331.449V308.84L623.532 335.674L613.155 341.669V395.337L659.639 422.171L670.016 428.144V360.008Z" fill="url(#paint4_linear_19_182)"/>
<path d="M716.5 389.342L758.006 365.384L762.984 362.508L716.5 389.342Z" fill="#0047F9"/>
<path d="M762.984 362.508L809.49 335.652L762.984 362.508Z" fill="#0047F9"/>
<path d="M654.639 425.047L659.639 422.171L654.639 425.047Z" fill="#0047F9"/>
<path d="M700.88 291.01L716.522 281.984L670.016 308.84L700.88 291.01Z" fill="#0047F9"/>
<path d="M670.016 308.84L623.554 335.652L670.016 308.84Z" fill="#0047F9"/>
<path d="M819.867 341.647V329.679L809.49 335.652L762.984 362.508L716.5 389.342L686.499 372.02L684.552 370.892L670.016 362.508V416.176V428.144L716.5 455L773.36 422.171L819.867 395.337V341.647Z" fill="#0047F9"/>
<path d="M746.523 299.306L741.7 296.54L716.522 281.984L746.523 299.306Z" fill="#0047F9"/>
<path d="M773.383 249.155L763.006 243.182L762.984 243.204V255.15V308.818V311.296V317.268V362.508L809.49 335.652L819.867 329.679V275.989L773.383 249.155Z" fill="url(#paint5_linear_19_182)"/>
<path d="M686.499 372.02L684.552 370.892L670.016 362.508V416.176V428.144" fill="#0020EA"/>
<path d="M556.295 243.182L556.273 243.16V243.204L556.295 243.182Z" fill="#0047F9"/>
<path d="M556.273 243.204V243.16L509.789 216.326L452.928 249.155L406.422 275.989V307.048V329.657V341.669L416.821 335.674V335.652L463.305 308.84V308.818L509.789 281.984L539.79 299.305" fill="#0047F9"/>
<path d="M556.273 243.204V255.15V308.818L539.79 299.306L556.273 308.818L539.79 299.306L556.273 243.204Z" fill="#0020EA"/>
<path d="M463.305 360.008V331.449V308.84L416.821 335.674L406.422 341.669V395.337L452.928 422.171L463.305 428.144V360.008Z" fill="url(#paint6_linear_19_182)"/>
<path d="M509.789 389.342L551.295 365.384L556.273 362.508L509.789 389.342Z" fill="#0047F9"/>
<path d="M556.273 362.508L602.757 335.652L556.273 362.508Z" fill="#0047F9"/>
<path d="M447.928 425.047L452.928 422.171L447.928 425.047Z" fill="#0047F9"/>
<path d="M494.169 291.01L509.789 281.984L463.305 308.84L494.169 291.01Z" fill="#0047F9"/>
<path d="M463.305 308.84L416.821 335.652L463.305 308.84Z" fill="#0047F9"/>
<path d="M613.155 341.647V329.679L602.757 335.652L556.273 362.508L509.789 389.342L479.788 372.02L477.841 370.892L463.305 362.508V416.176V428.144L509.789 455L566.649 422.171L613.155 395.337V341.647Z" fill="#0047F9"/>
<path d="M539.79 299.306L534.989 296.54L509.789 281.984L539.79 299.306Z" fill="#0047F9"/>
<path d="M566.671 249.155L556.295 243.182L556.273 243.204V255.15V308.818V311.296V317.268V362.508L602.757 335.652L613.155 329.679V275.989L566.671 249.155Z" fill="url(#paint7_linear_19_182)"/>
<path d="M479.788 372.02L477.841 370.892L463.305 362.508V416.176V428.144" fill="#0020EA"/>
<path d="M349.584 243.16L349.562 243.182H349.584V243.16Z" fill="#0020EA"/>
<path d="M349.562 243.204V243.16L303.078 216.326L246.195 249.155L199.711 275.989V307.048V329.657V341.669L210.11 335.674V335.652L256.572 308.84V308.818L303.078 281.984L333.079 299.305" fill="#0047F9"/>
<path d="M349.562 243.204V255.15V308.818L333.079 299.306L349.562 308.818L333.079 299.306L349.562 243.204Z" fill="#0020EA"/>
<path d="M256.572 360.008V331.449V308.84L210.11 335.674L199.711 341.669V395.337L246.195 422.171L256.572 428.144V360.008Z" fill="url(#paint8_linear_19_182)"/>
<path d="M303.078 389.342L344.584 365.384L349.562 362.508L303.078 389.342Z" fill="#0047F9"/>
<path d="M349.562 362.508L396.046 335.652L349.562 362.508Z" fill="#0047F9"/>
<path d="M241.217 425.047L246.195 422.171L241.217 425.047Z" fill="#0047F9"/>
<path d="M287.458 291.01L303.078 281.984L256.572 308.84L287.458 291.01Z" fill="#0047F9"/>
<path d="M256.572 308.84L210.11 335.652L256.572 308.84Z" fill="#0047F9"/>
<path d="M406.422 341.647V329.679L396.046 335.652L349.562 362.508L303.078 389.342L273.077 372.02L271.108 370.892L256.572 362.508V416.176V428.144L303.078 455L359.938 422.171L406.422 395.337V341.647Z" fill="#0047F9"/>
<path d="M333.079 299.306L328.256 296.54L303.078 281.984L333.079 299.306Z" fill="#0047F9"/>
<path d="M359.96 249.155L349.584 243.182H349.562V243.204V255.15V308.818V311.296V317.268V362.508L396.046 335.652L406.422 329.679V275.989L359.96 249.155Z" fill="url(#paint9_linear_19_182)"/>
<path d="M273.077 372.02L271.108 370.892L256.572 362.508V416.176V428.144" fill="#0020EA"/>
<path d="M142.873 243.16L142.851 243.182H142.873V243.16Z" fill="#0020EA"/>
<path d="M142.851 243.204V243.16L96.3667 216.326L39.484 249.155L-6.99997 275.989V307.048V329.657V341.669L3.39864 335.674V335.652L49.8605 308.84V308.818L96.3445 281.984H96.3667L126.368 299.305" fill="#0047F9"/>
<path d="M142.851 243.204V255.15V308.818L126.368 299.306L142.851 308.818L126.368 299.306L142.851 243.204Z" fill="#0020EA"/>
<path d="M49.8605 360.008V331.449V308.84L3.39864 335.674L-6.99997 341.669V395.337L39.484 422.171L49.8605 428.144V360.008Z" fill="url(#paint10_linear_19_182)"/>
<path d="M96.3666 389.342L137.85 365.384L142.851 362.508L96.3666 389.342Z" fill="#0047F9"/>
<path d="M142.851 362.508L189.335 335.652L142.851 362.508Z" fill="#0047F9"/>
<path d="M34.506 425.047L39.484 422.171L34.506 425.047Z" fill="#0047F9"/>
<path d="M80.7245 291.01L96.3666 281.984L49.8605 308.84L80.7245 291.01Z" fill="#0047F9"/>
<path d="M49.8605 308.84L3.39859 335.652L49.8605 308.84Z" fill="#0047F9"/>
<path d="M199.711 341.647V329.679L189.335 335.652L142.851 362.508L96.3666 389.342H96.3445L66.3434 372.02L64.3964 370.892L49.8605 362.508V416.176V428.144L96.3666 455L153.227 422.171L199.711 395.337V341.647Z" fill="#0047F9"/>
<path d="M126.368 299.306L121.545 296.54L96.3666 281.984L126.368 299.306Z" fill="#0047F9"/>
<path d="M153.227 249.155L142.873 243.182H142.851V243.204V255.15V308.818V311.296V317.268V362.508L189.335 335.652L199.711 329.679V275.989L153.227 249.155Z" fill="url(#paint11_linear_19_182)"/>
<path d="M66.3434 372.02L64.3964 370.892L49.8605 362.508V416.176V428.144" fill="#0020EA"/>
<path d="M1176.43 4.48584V4.50783H1176.45L1176.43 4.48584Z" fill="#0020EA"/>
<path d="M1176.43 4.53016V4.50803L1129.92 -22.3259L1073.06 10.5031L1026.58 37.3371V68.3742V90.9829V102.995L1036.98 97L1083.44 70.1661L1129.92 43.31L1129.94 43.3321L1159.95 60.6536" fill="#0047F9"/>
<path d="M1176.43 4.53015V16.4982V70.1661L1159.95 60.6536L1176.43 70.1661L1159.95 60.6536L1176.43 4.53015Z" fill="#0020EA"/>
<path d="M1083.44 121.334V92.7747V70.166L1036.98 97L1026.58 102.995V156.663L1073.06 183.497L1083.44 189.492V121.334Z" fill="url(#paint12_linear_19_182)"/>
<path d="M1129.94 150.668L1171.43 126.71L1176.43 123.834L1129.94 150.668Z" fill="#0047F9"/>
<path d="M1176.43 123.834L1222.91 97L1176.43 123.834Z" fill="#0047F9"/>
<path d="M1068.08 186.373L1073.06 183.497L1068.08 186.373Z" fill="#0047F9"/>
<path d="M1114.3 52.3578L1129.94 43.3321L1083.44 70.166L1114.3 52.3578Z" fill="#0047F9"/>
<path d="M1083.44 70.166L1036.98 97L1083.44 70.166Z" fill="#0047F9"/>
<path d="M1233.29 102.995V91.0049L1222.91 97L1176.43 123.834L1129.94 150.668H1129.92L1099.92 133.346L1097.97 132.218L1083.44 123.834V177.502V189.492L1129.92 216.326L1186.8 183.497L1233.29 156.663V102.995Z" fill="#0047F9"/>
<path d="M1159.95 60.6536L1155.12 57.8662L1129.94 43.3321L1159.95 60.6536Z" fill="#0047F9"/>
<path d="M1186.8 10.5031L1176.45 4.508H1176.43V4.53012V16.4981V70.166V72.6216V78.5945V123.834L1222.91 97L1233.29 91.0049V37.337L1186.8 10.5031Z" fill="url(#paint13_linear_19_182)"/>
<path d="M1099.92 133.346L1097.97 132.218L1083.44 123.834V177.502V189.492" fill="#0020EA"/>
<path d="M969.717 4.53016V4.50803L923.211 -22.3259L866.351 10.5031L819.867 37.3371V68.3742V90.9829V102.995L830.265 97H830.243H830.265L876.727 70.1661L923.211 43.31L923.233 43.3321L953.234 60.6536" fill="#0047F9"/>
<path d="M969.717 4.53015V16.4982V70.1661L953.234 60.6536L969.717 70.1661L953.234 60.6536L969.717 4.53015Z" fill="#0020EA"/>
<path d="M876.727 121.334V92.7747V70.166L830.265 97L819.867 102.995V156.663L866.351 183.497L876.727 189.492V121.334Z" fill="url(#paint14_linear_19_182)"/>
<path d="M923.211 150.668L964.717 126.71L969.717 123.834L923.211 150.668Z" fill="#0047F9"/>
<path d="M969.717 123.834L1016.2 97L969.717 123.834Z" fill="#0047F9"/>
<path d="M861.372 186.373L866.351 183.497L861.372 186.373Z" fill="#0047F9"/>
<path d="M907.591 52.3578L923.233 43.3321L876.727 70.166L907.591 52.3578Z" fill="#0047F9"/>
<path d="M876.727 70.166L830.265 97L876.727 70.166Z" fill="#0047F9"/>
<path d="M1026.58 102.995V91.0049L1016.2 97L969.717 123.834L923.211 150.668L893.21 133.346L891.263 132.218L876.727 123.834V177.502V189.492L923.211 216.326L980.072 183.497L1026.58 156.663V102.995Z" fill="#0047F9"/>
<path d="M953.234 60.6536L948.411 57.8662L923.233 43.3321L953.234 60.6536Z" fill="#0047F9"/>
<path d="M980.094 10.5031L969.717 4.508V4.53012V16.4981V70.166V72.6216V78.5945V123.834L1016.2 97L1026.58 91.0049V37.337L980.094 10.5031Z" fill="url(#paint15_linear_19_182)"/>
<path d="M893.21 133.346L891.263 132.218L876.727 123.834V177.502V189.492" fill="#0020EA"/>
<path d="M763.006 4.508H762.984V4.53L763.006 4.508Z" fill="#0047F9"/>
<path d="M762.984 4.53016V4.50803L716.5 -22.3259L659.639 10.5031L613.155 37.3371V68.3742V90.9829V102.995L623.532 97H623.554L670.016 70.1661L716.5 43.31L716.522 43.3321L746.523 60.6536" fill="#0047F9"/>
<path d="M762.984 4.53015V16.4982V70.1661L746.523 60.6536L762.984 70.1661L746.523 60.6536L762.984 4.53015Z" fill="#0020EA"/>
<path d="M670.016 121.334V92.7747V70.166L623.532 97L613.155 102.995V156.663L659.639 183.497L670.016 189.492V121.334Z" fill="url(#paint16_linear_19_182)"/>
<path d="M716.5 150.668L758.006 126.71L762.984 123.834L716.5 150.668Z" fill="#0047F9"/>
<path d="M762.984 123.834L809.49 97L762.984 123.834Z" fill="#0047F9"/>
<path d="M654.639 186.373L659.639 183.497L654.639 186.373Z" fill="#0047F9"/>
<path d="M700.88 52.3578L716.522 43.3321L670.016 70.166L700.88 52.3578Z" fill="#0047F9"/>
<path d="M670.016 70.166L623.554 97L670.016 70.166Z" fill="#0047F9"/>
<path d="M819.867 102.995V91.0049L809.49 97L762.984 123.834L716.5 150.668L686.499 133.346L684.552 132.218L670.016 123.834V177.502V189.492L716.5 216.326L773.36 183.497L819.867 156.663V102.995Z" fill="#0047F9"/>
<path d="M746.523 60.6536L741.7 57.8662L716.522 43.3321L746.523 60.6536Z" fill="#0047F9"/>
<path d="M773.383 10.5031L763.006 4.508L762.984 4.53012V16.4981V70.166V72.6216V78.5945V123.834L809.49 97L819.867 91.0049V37.337L773.383 10.5031Z" fill="url(#paint17_linear_19_182)"/>
<path d="M686.499 133.346L684.552 132.218L670.016 123.834V177.502V189.492" fill="#0020EA"/>
<path d="M556.295 4.508H556.273V4.53L556.295 4.508Z" fill="#0047F9"/>
<path d="M556.273 4.53016V4.50803L509.789 -22.3259L452.928 10.5031L406.422 37.3371V68.3742V90.9829V102.995L416.821 97L463.305 70.1661L509.789 43.31V43.3321L539.79 60.6536" fill="#0047F9"/>
<path d="M556.273 4.53015V16.4982V70.1661L539.79 60.6536L556.273 70.1661L539.79 60.6536L556.273 4.53015Z" fill="#0020EA"/>
<path d="M463.305 121.334V92.7747V70.166L416.821 97L406.422 102.995V156.663L452.928 183.497L463.305 189.492V121.334Z" fill="url(#paint18_linear_19_182)"/>
<path d="M509.789 150.668L551.295 126.71L556.273 123.834L509.789 150.668Z" fill="#0047F9"/>
<path d="M556.273 123.834L602.757 97L556.273 123.834Z" fill="#0047F9"/>
<path d="M447.928 186.373L452.928 183.497L447.928 186.373Z" fill="#0047F9"/>
<path d="M494.169 52.3578L509.789 43.3321L463.305 70.166L494.169 52.3578Z" fill="#0047F9"/>
<path d="M463.305 70.166L416.821 97L463.305 70.166Z" fill="#0047F9"/>
<path d="M613.155 102.995V91.0049L602.757 97L556.273 123.834L509.789 150.668L479.788 133.346L477.841 132.218L463.305 123.834V177.502V189.492L509.789 216.326L566.649 183.497L613.155 156.663V102.995Z" fill="#0047F9"/>
<path d="M539.79 60.6536L534.989 57.8662L509.789 43.3321L539.79 60.6536Z" fill="#0047F9"/>
<path d="M566.671 10.5031L556.295 4.508L556.273 4.53012V16.4981V70.166V72.6216V78.5945V123.834L602.757 97L613.155 91.0049V37.337L566.671 10.5031Z" fill="url(#paint19_linear_19_182)"/>
<path d="M479.788 133.346L477.841 132.218L463.305 123.834V177.502V189.492" fill="#0020EA"/>
<path d="M349.584 4.48584L349.562 4.50783H349.584V4.48584Z" fill="#0020EA"/>
<path d="M349.562 4.53016V4.50803L303.078 -22.3259L246.195 10.5031L199.711 37.3371V68.3742V90.9829V102.995L210.11 97L256.572 70.1661L303.078 43.31V43.3321L333.079 60.6536" fill="#0047F9"/>
<path d="M349.562 4.53015V16.4982V70.1661L333.079 60.6536L349.562 70.1661L333.079 60.6536L349.562 4.53015Z" fill="#0020EA"/>
<path d="M256.572 121.334V92.7747V70.166L210.11 97L199.711 102.995V156.663L246.195 183.497L256.572 189.492V121.334Z" fill="url(#paint20_linear_19_182)"/>
<path d="M303.078 150.668L344.584 126.71L349.562 123.834L303.078 150.668Z" fill="#0047F9"/>
<path d="M349.562 123.834L396.046 97L349.562 123.834Z" fill="#0047F9"/>
<path d="M241.217 186.373L246.195 183.497L241.217 186.373Z" fill="#0047F9"/>
<path d="M287.458 52.3578L303.078 43.3321L256.572 70.166L287.458 52.3578Z" fill="#0047F9"/>
<path d="M256.572 70.166L210.11 97L256.572 70.166Z" fill="#0047F9"/>
<path d="M406.422 102.995V91.0049L396.046 97L349.562 123.834L303.078 150.668L273.077 133.346L271.108 132.218L256.572 123.834V177.502V189.492L303.078 216.326L359.938 183.497L406.422 156.663V102.995Z" fill="#0047F9"/>
<path d="M333.079 60.6536L328.256 57.8662L303.078 43.3321L333.079 60.6536Z" fill="#0047F9"/>
<path d="M359.96 10.5031L349.584 4.508H349.562V4.53012V16.4981V70.166V72.6216V78.5945V123.834L396.046 97L406.422 91.0049V37.337L359.96 10.5031Z" fill="url(#paint21_linear_19_182)"/>
<path d="M273.077 133.346L271.108 132.218L256.572 123.834V177.502V189.492" fill="#0020EA"/>
<path d="M142.873 4.48584L142.851 4.50783H142.873V4.48584Z" fill="#0020EA"/>
<path d="M142.851 4.53016V4.50803L96.3666 -22.3259L39.484 10.5031L-7 37.3371V68.3742V90.9829V102.995L3.39861 97L49.8605 70.1661L96.3445 43.31H96.3666V43.3321L126.368 60.6536" fill="#0047F9"/>
<path d="M142.851 4.53015V16.4982V70.1661L126.368 60.6536L142.851 70.1661L126.368 60.6536L142.851 4.53015Z" fill="#0020EA"/>
<path d="M49.8605 121.334V92.7747V70.166L3.39861 97L-7 102.995V156.663L39.484 183.497L49.8605 189.492V121.334Z" fill="url(#paint22_linear_19_182)"/>
<path d="M96.3666 150.668L137.85 126.71L142.851 123.834L96.3666 150.668Z" fill="#0047F9"/>
<path d="M142.851 123.834L189.335 97L142.851 123.834Z" fill="#0047F9"/>
<path d="M34.5059 186.373L39.484 183.497L34.5059 186.373Z" fill="#0047F9"/>
<path d="M80.7244 52.3578L96.3666 43.3321L49.8605 70.166L80.7244 52.3578Z" fill="#0047F9"/>
<path d="M49.8605 70.166L3.39859 97L49.8605 70.166Z" fill="#0047F9"/>
<path d="M199.711 102.995V91.0049L189.335 97L142.851 123.834L96.3666 150.668H96.3445L66.3434 133.346L64.3964 132.218L49.8605 123.834V177.502V189.492L96.3666 216.326L153.227 183.497L199.711 156.663V102.995Z" fill="#0047F9"/>
<path d="M126.368 60.6536L121.545 57.8662L96.3666 43.3321L126.368 60.6536Z" fill="#0047F9"/>
<path d="M153.227 10.5031L142.873 4.508H142.851V4.53012V16.4981V70.166V72.6216V78.5945V123.834L189.335 97L199.711 91.0049V37.337L153.227 10.5031Z" fill="url(#paint23_linear_19_182)"/>
<path d="M66.3434 133.346L64.3964 132.218L49.8605 123.834V177.502V189.492" fill="#0020EA"/>
<path d="M1383.16 243.16L1383.14 243.182H1383.16V243.16Z" fill="#0020EA"/>
<path d="M1383.14 243.204V243.16L1336.66 216.326L1279.77 249.155L1233.29 275.989V307.048V329.657V341.669L1243.69 335.674V335.652L1290.15 308.84V308.818L1336.66 281.984L1366.66 299.305" fill="#0047F9"/>
<path d="M1383.14 243.204V255.15V308.818L1366.66 299.306L1383.14 308.818L1366.66 299.306L1383.14 243.204Z" fill="#0020EA"/>
<path d="M1290.15 360.008V331.449V308.84L1243.69 335.674L1233.29 341.669V395.337L1279.77 422.171L1290.15 428.144V360.008Z" fill="url(#paint24_linear_19_182)"/>
<path d="M1336.66 389.342L1378.14 365.384L1383.14 362.508L1336.66 389.342Z" fill="#0047F9"/>
<path d="M1383.14 362.508L1429.62 335.652L1383.14 362.508Z" fill="#0047F9"/>
<path d="M1274.79 425.047L1279.77 422.171L1274.79 425.047Z" fill="#0047F9"/>
<path d="M1321.04 291.01L1336.66 281.984L1290.15 308.84L1321.04 291.01Z" fill="#0047F9"/>
<path d="M1290.15 308.84L1243.69 335.652L1290.15 308.84Z" fill="#0047F9"/>
<path d="M1440 341.647V329.679L1429.62 335.652L1383.14 362.508L1336.66 389.342H1336.63L1306.65 372.02L1304.69 370.892L1290.15 362.508V416.176V428.144L1336.66 455L1393.52 422.171L1440 395.337V341.647Z" fill="#0047F9"/>
<path d="M1366.66 299.306L1361.83 296.54L1336.66 281.984L1366.66 299.306Z" fill="#0047F9"/>
<path d="M1393.52 249.155L1383.16 243.182H1383.14V243.204V255.15V308.818V311.296V317.268V362.508L1429.62 335.652L1440 329.679V275.989L1393.52 249.155Z" fill="url(#paint25_linear_19_182)"/>
<path d="M1306.65 372.02L1304.69 370.892L1290.15 362.508V416.176V428.144" fill="#0020EA"/>
<path d="M1383.16 4.48584L1383.14 4.50783H1383.16V4.48584Z" fill="#0020EA"/>
<path d="M1383.14 4.53016V4.50803L1336.66 -22.3259L1279.77 10.5031L1233.29 37.3371V68.3742V90.9829V102.995L1243.69 97L1290.15 70.1661L1336.66 43.31V43.3321L1366.66 60.6536" fill="#0047F9"/>
<path d="M1383.14 4.53015V16.4982V70.1661L1366.66 60.6536L1383.14 70.1661L1366.66 60.6536L1383.14 4.53015Z" fill="#0020EA"/>
<path d="M1290.15 121.334V92.7747V70.166L1243.69 97L1233.29 102.995V156.663L1279.77 183.497L1290.15 189.492V121.334Z" fill="url(#paint26_linear_19_182)"/>
<path d="M1336.66 150.668L1378.14 126.71L1383.14 123.834L1336.66 150.668Z" fill="#0047F9"/>
<path d="M1383.14 123.834L1429.62 97L1383.14 123.834Z" fill="#0047F9"/>
<path d="M1274.79 186.373L1279.77 183.497L1274.79 186.373Z" fill="#0047F9"/>
<path d="M1321.04 52.3578L1336.66 43.3321L1290.15 70.166L1321.04 52.3578Z" fill="#0047F9"/>
<path d="M1290.15 70.166L1243.69 97L1290.15 70.166Z" fill="#0047F9"/>
<path d="M1440 102.995V91.0049L1429.62 97L1383.14 123.834L1336.66 150.668H1336.63L1306.65 133.346L1304.69 132.218L1290.15 123.834V177.502V189.492L1336.66 216.326L1393.52 183.497L1440 156.663V102.995Z" fill="#0047F9"/>
<path d="M1366.66 60.6536L1361.83 57.8662L1336.66 43.3321L1366.66 60.6536Z" fill="#0047F9"/>
<path d="M1393.52 10.5031L1383.16 4.508H1383.14V4.53012V16.4981V70.166V72.6216V78.5945V123.834L1429.62 97L1440 91.0049V37.337L1393.52 10.5031Z" fill="url(#paint27_linear_19_182)"/>
<path d="M1306.65 133.346L1304.69 132.218L1290.15 123.834V177.502V189.492" fill="#0020EA"/>
</g>
<defs>
<filter id="filter0_dd_19_182" x="-10" y="-8" width="1460" height="470" filterUnits="userSpaceOnUse" color-interpolation-filters="sRGB">
<feFlood flood-opacity="0" result="BackgroundImageFix"/>
<feColorMatrix in="SourceAlpha" type="matrix" values="0 0 0 0 0 0 0 0 0 0 0 0 0 0 0 0 0 0 127 0" result="hardAlpha"/>
<feOffset dy="2"/>
<feGaussianBlur stdDeviation="5"/>
<feColorMatrix type="matrix" values="0 0 0 0 0 0 0 0 0 0 0 0 0 0 0 0 0 0 0.12 0"/>
<feBlend mode="normal" in2="BackgroundImageFix" result="effect1_dropShadow_19_182"/>
<feColorMatrix in="SourceAlpha" type="matrix" values="0 0 0 0 0 0 0 0 0 0 0 0 0 0 0 0 0 0 127 0" result="hardAlpha"/>
<feOffset dy="2"/>
<feGaussianBlur stdDeviation="2.5"/>
<feColorMatrix type="matrix" values="0 0 0 0 0 0 0 0 0 0 0 0 0 0 0 0 0 0 0.16 0"/>
<feBlend mode="normal" in2="effect1_dropShadow_19_182" result="effect2_dropShadow_19_182"/>
<feBlend mode="normal" in="SourceGraphic" in2="effect2_dropShadow_19_182" result="shape"/>
</filter>
<linearGradient id="paint0_linear_19_182" x1="1043.9" y1="385.471" x2="1156.95" y2="336.925" gradientUnits="userSpaceOnUse">
<stop stop-color="#17E0F9"/>
<stop offset="1" stop-color="#11B0F9"/>
</linearGradient>
<linearGradient id="paint1_linear_19_182" x1="1176.43" y1="302.845" x2="1299.82" y2="302.845" gradientUnits="userSpaceOnUse">
<stop stop-color="#17E0F9"/>
<stop offset="1" stop-color="#11B0F9"/>
</linearGradient>
<linearGradient id="paint2_linear_19_182" x1="837.19" y1="385.471" x2="950.221" y2="336.925" gradientUnits="userSpaceOnUse">
<stop stop-color="#17E0F9"/>
<stop offset="1" stop-color="#11B0F9"/>
</linearGradient>
<linearGradient id="paint3_linear_19_182" x1="969.717" y1="302.845" x2="1093.11" y2="302.845" gradientUnits="userSpaceOnUse">
<stop stop-color="#17E0F9"/>
<stop offset="1" stop-color="#11B0F9"/>
</linearGradient>
<linearGradient id="paint4_linear_19_182" x1="630.457" y1="385.471" x2="743.51" y2="336.925" gradientUnits="userSpaceOnUse">
<stop stop-color="#17E0F9"/>
<stop offset="1" stop-color="#11B0F9"/>
</linearGradient>
<linearGradient id="paint5_linear_19_182" x1="762.984" y1="302.845" x2="886.374" y2="302.845" gradientUnits="userSpaceOnUse">
<stop stop-color="#17E0F9"/>
<stop offset="1" stop-color="#11B0F9"/>
</linearGradient>
<linearGradient id="paint6_linear_19_182" x1="423.746" y1="385.471" x2="536.799" y2="336.925" gradientUnits="userSpaceOnUse">
<stop stop-color="#17E0F9"/>
<stop offset="1" stop-color="#11B0F9"/>
</linearGradient>
<linearGradient id="paint7_linear_19_182" x1="556.273" y1="302.845" x2="679.662" y2="302.845" gradientUnits="userSpaceOnUse">
<stop stop-color="#17E0F9"/>
<stop offset="1" stop-color="#11B0F9"/>
</linearGradient>
<linearGradient id="paint8_linear_19_182" x1="217.035" y1="385.471" x2="330.088" y2="336.925" gradientUnits="userSpaceOnUse">
<stop stop-color="#17E0F9"/>
<stop offset="1" stop-color="#11B0F9"/>
</linearGradient>
<linearGradient id="paint9_linear_19_182" x1="349.562" y1="302.845" x2="472.951" y2="302.845" gradientUnits="userSpaceOnUse">
<stop stop-color="#17E0F9"/>
<stop offset="1" stop-color="#11B0F9"/>
</linearGradient>
<linearGradient id="paint10_linear_19_182" x1="10.3237" y1="385.471" x2="123.377" y2="336.925" gradientUnits="userSpaceOnUse">
<stop stop-color="#17E0F9"/>
<stop offset="1" stop-color="#11B0F9"/>
</linearGradient>
<linearGradient id="paint11_linear_19_182" x1="142.851" y1="302.845" x2="266.24" y2="302.845" gradientUnits="userSpaceOnUse">
<stop stop-color="#17E0F9"/>
<stop offset="1" stop-color="#11B0F9"/>
</linearGradient>
<linearGradient id="paint12_linear_19_182" x1="1043.9" y1="146.819" x2="1156.95" y2="98.2509" gradientUnits="userSpaceOnUse">
<stop stop-color="#17E0F9"/>
<stop offset="1" stop-color="#11B0F9"/>
</linearGradient>
<linearGradient id="paint13_linear_19_182" x1="1176.43" y1="64.171" x2="1299.82" y2="64.171" gradientUnits="userSpaceOnUse">
<stop stop-color="#17E0F9"/>
<stop offset="1" stop-color="#11B0F9"/>
</linearGradient>
<linearGradient id="paint14_linear_19_182" x1="837.19" y1="146.819" x2="950.221" y2="98.2509" gradientUnits="userSpaceOnUse">
<stop stop-color="#17E0F9"/>
<stop offset="1" stop-color="#11B0F9"/>
</linearGradient>
<linearGradient id="paint15_linear_19_182" x1="969.717" y1="64.171" x2="1093.11" y2="64.171" gradientUnits="userSpaceOnUse">
<stop stop-color="#17E0F9"/>
<stop offset="1" stop-color="#11B0F9"/>
</linearGradient>
<linearGradient id="paint16_linear_19_182" x1="630.457" y1="146.819" x2="743.51" y2="98.2508" gradientUnits="userSpaceOnUse">
<stop stop-color="#17E0F9"/>
<stop offset="1" stop-color="#11B0F9"/>
</linearGradient>
<linearGradient id="paint17_linear_19_182" x1="762.984" y1="64.171" x2="886.374" y2="64.171" gradientUnits="userSpaceOnUse">
<stop stop-color="#17E0F9"/>
<stop offset="1" stop-color="#11B0F9"/>
</linearGradient>
<linearGradient id="paint18_linear_19_182" x1="423.746" y1="146.819" x2="536.799" y2="98.2508" gradientUnits="userSpaceOnUse">
<stop stop-color="#17E0F9"/>
<stop offset="1" stop-color="#11B0F9"/>
</linearGradient>
<linearGradient id="paint19_linear_19_182" x1="556.273" y1="64.171" x2="679.662" y2="64.171" gradientUnits="userSpaceOnUse">
<stop stop-color="#17E0F9"/>
<stop offset="1" stop-color="#11B0F9"/>
</linearGradient>
<linearGradient id="paint20_linear_19_182" x1="217.035" y1="146.819" x2="330.088" y2="98.2508" gradientUnits="userSpaceOnUse">
<stop stop-color="#17E0F9"/>
<stop offset="1" stop-color="#11B0F9"/>
</linearGradient>
<linearGradient id="paint21_linear_19_182" x1="349.562" y1="64.171" x2="472.951" y2="64.171" gradientUnits="userSpaceOnUse">
<stop stop-color="#17E0F9"/>
<stop offset="1" stop-color="#11B0F9"/>
</linearGradient>
<linearGradient id="paint22_linear_19_182" x1="10.3236" y1="146.819" x2="123.377" y2="98.2508" gradientUnits="userSpaceOnUse">
<stop stop-color="#17E0F9"/>
<stop offset="1" stop-color="#11B0F9"/>
</linearGradient>
<linearGradient id="paint23_linear_19_182" x1="142.851" y1="64.171" x2="266.24" y2="64.171" gradientUnits="userSpaceOnUse">
<stop stop-color="#17E0F9"/>
<stop offset="1" stop-color="#11B0F9"/>
</linearGradient>
<linearGradient id="paint24_linear_19_182" x1="1250.61" y1="385.471" x2="1363.67" y2="336.925" gradientUnits="userSpaceOnUse">
<stop stop-color="#17E0F9"/>
<stop offset="1" stop-color="#11B0F9"/>
</linearGradient>
<linearGradient id="paint25_linear_19_182" x1="1383.14" y1="302.845" x2="1506.53" y2="302.845" gradientUnits="userSpaceOnUse">
<stop stop-color="#17E0F9"/>
<stop offset="1" stop-color="#11B0F9"/>
</linearGradient>
<linearGradient id="paint26_linear_19_182" x1="1250.61" y1="146.819" x2="1363.67" y2="98.251" gradientUnits="userSpaceOnUse">
<stop stop-color="#17E0F9"/>
<stop offset="1" stop-color="#11B0F9"/>
</linearGradient>
<linearGradient id="paint27_linear_19_182" x1="1383.14" y1="64.171" x2="1506.53" y2="64.171" gradientUnits="userSpaceOnUse">
<stop stop-color="#17E0F9"/>
<stop offset="1" stop-color="#11B0F9"/>
</linearGradient>
<clipPath id="clip0_19_182">
<rect width="1437" height="442" fill="white" transform="translate(3)"/>
</clipPath>
</defs>
</svg>
