<svg width="214" height="68" viewBox="0 0 214 68" fill="none" xmlns="http://www.w3.org/2000/svg">
<path d="M50.8393 16.627V18.5836H47.3191C46.6222 18.5836 45.9789 18.5032 45.3982 18.3469C44.8175 18.1905 44.3127 17.9448 43.8883 17.6187C43.4639 17.2926 43.1333 16.8816 42.8966 16.3902C42.6598 15.8988 42.5392 15.3181 42.5392 14.657C42.5392 14.0896 42.6464 13.567 42.8608 13.0845C43.0752 12.6065 43.388 12.1911 43.7945 11.8426C44.201 11.4942 44.7058 11.2172 45.2955 11.0162C45.8851 10.8151 46.5597 10.7169 47.3146 10.7169H47.5916V10.02H49.5482V16.627H50.8348H50.8393ZM46.1174 8.72896C45.903 8.90318 45.6484 8.98806 45.3491 8.98806C45.0498 8.98806 44.7951 8.90318 44.5807 8.72896C44.3663 8.55474 44.2591 8.30904 44.2591 7.98293C44.2591 7.68363 44.3618 7.44687 44.5718 7.26371C44.7817 7.08056 45.0408 6.99121 45.3491 6.99121C45.6573 6.99121 45.9164 7.08056 46.1264 7.26371C46.3363 7.44687 46.4391 7.68363 46.4391 7.98293C46.4391 8.30904 46.3319 8.55921 46.1174 8.72896ZM47.5961 16.627V12.6735H46.8411C46.5507 12.6735 46.2693 12.7182 45.9879 12.8075C45.7064 12.8969 45.4563 13.022 45.2329 13.1917C45.0096 13.3615 44.8309 13.567 44.6968 13.8127C44.5628 14.0584 44.4958 14.3398 44.4958 14.657C44.4958 14.9741 44.5584 15.269 44.6834 15.5102C44.8085 15.7514 44.9783 15.9569 45.1882 16.1267C45.3982 16.2964 45.635 16.4215 45.9075 16.5019C46.1755 16.5868 46.4569 16.627 46.7473 16.627H47.6005H47.5961ZM49.1462 8.72896C48.9318 8.90318 48.6771 8.98806 48.3778 8.98806C48.0785 8.98806 47.8239 8.90318 47.6095 8.72896C47.3951 8.55474 47.2878 8.30904 47.2878 7.98293C47.2878 7.68363 47.3906 7.44687 47.6005 7.26371C47.8105 7.08056 48.0696 6.99121 48.3778 6.99121C48.6861 6.99121 48.9541 7.08056 49.1596 7.26371C49.3651 7.44687 49.4678 7.68363 49.4678 7.98293C49.4678 8.30904 49.3606 8.55921 49.1462 8.72896Z" fill="#00113D"/>
<path d="M50.5846 16.6269H53.5062V10.7168H55.4628V18.5836H50.5891V16.6269H50.5846ZM52.9031 21.3086C52.6887 21.4783 52.434 21.5587 52.1347 21.5587C51.8354 21.5587 51.5808 21.4739 51.3664 21.3086C51.1519 21.1388 51.0447 20.8931 51.0447 20.567C51.0447 20.2677 51.1475 20.0265 51.3574 19.8389C51.5674 19.6512 51.8265 19.5574 52.1347 19.5574C52.443 19.5574 52.7021 19.6512 52.912 19.8389C53.122 20.0265 53.2247 20.2677 53.2247 20.567C53.2247 20.8931 53.1175 21.1388 52.9031 21.3086ZM55.9363 21.3086C55.7219 21.4783 55.4673 21.5587 55.168 21.5587C54.8687 21.5587 54.614 21.4739 54.3996 21.3086C54.1852 21.1388 54.078 20.8931 54.078 20.567C54.078 20.2677 54.1807 20.0265 54.3907 19.8389C54.6006 19.6512 54.8597 19.5574 55.168 19.5574C55.4762 19.5574 55.7442 19.6512 55.9497 19.8389C56.1552 20.0265 56.258 20.2677 56.258 20.567C56.258 20.8931 56.1508 21.1388 55.9363 21.3086Z" fill="#00113D"/>
<path d="M58.3397 7.25488H60.2964V16.6271H62.0833V18.5837H58.3397V7.25488Z" fill="#00113D"/>
<path d="M61.8018 16.6271H63.1553C63.1196 16.4886 63.0928 16.3412 63.0794 16.1937C63.066 16.0463 63.057 15.89 63.057 15.7336C63.057 15.1395 63.1687 14.5811 63.3876 14.0629C63.6065 13.5447 63.9058 13.0935 64.2811 12.7093C64.6563 12.3251 65.0986 12.0169 65.6078 11.7935C66.1171 11.5702 66.6576 11.4585 67.2339 11.4585C67.8102 11.4585 68.373 11.5702 68.8912 11.7846C69.4094 12.0035 69.8606 12.3028 70.2448 12.687C70.629 13.0667 70.9328 13.5224 71.1516 14.0405C71.3705 14.5632 71.4822 15.1261 71.4822 15.7292C71.4822 15.8855 71.4733 16.0419 71.4554 16.1893C71.4375 16.3367 71.4152 16.4841 71.3839 16.6226H72.9475V18.5792H70.3341C69.941 18.9992 69.4809 19.3253 68.9448 19.5576C68.4088 19.7899 67.837 19.906 67.2339 19.906C66.6308 19.906 66.0769 19.7854 65.5587 19.5486C65.036 19.3119 64.5804 18.9858 64.1917 18.5792H61.8018V16.6226V16.6271ZM66.3539 17.7796C66.6219 17.8958 66.9167 17.9538 67.2339 17.9538C67.5511 17.9538 67.8504 17.9002 68.1273 17.7841C68.4088 17.6724 68.65 17.516 68.86 17.315C69.0699 17.114 69.2307 16.8772 69.3469 16.6047C69.463 16.3322 69.5211 16.0285 69.5211 15.7024C69.5211 15.3762 69.4675 15.0725 69.3514 14.7955C69.2397 14.5141 69.0833 14.2728 68.8778 14.0674C68.6723 13.8619 68.4311 13.701 68.1497 13.5849C67.8727 13.4687 67.5645 13.4107 67.2294 13.4107C66.8944 13.4107 66.604 13.4732 66.336 13.5938C66.0679 13.7144 65.8357 13.8797 65.6391 14.0808C65.4425 14.2862 65.2907 14.5275 65.179 14.8089C65.0673 15.0903 65.0092 15.3852 65.0092 15.7024C65.0092 16.0195 65.0628 16.3144 65.179 16.5913C65.2907 16.8683 65.447 17.1051 65.648 17.3061C65.8491 17.5071 66.0814 17.6635 66.3539 17.7796Z" fill="#00113D"/>
<path d="M72.6705 16.6269H78.469C78.5449 16.3187 78.603 15.9836 78.6432 15.6218C78.6834 15.2599 78.7057 14.9294 78.7057 14.63C78.7057 14.3307 78.6521 14.0404 78.5449 13.7277C78.4377 13.415 78.2635 13.1514 78.0223 12.937C77.6202 12.5841 77.0707 12.4054 76.3739 12.4054C76.0031 12.4054 75.6636 12.45 75.3553 12.5394C75.0471 12.6287 74.712 12.7896 74.3502 13.0218L73.5416 11.3154C73.9973 11.0563 74.4798 10.8463 74.9801 10.6855C75.4849 10.5291 76.0254 10.4487 76.6151 10.4487C77.2048 10.4487 77.7185 10.5425 78.1875 10.7302C78.6566 10.9178 79.0587 11.1814 79.3982 11.5253C79.7689 11.8961 80.0727 12.3562 80.305 12.9012C80.5373 13.4462 80.6534 14.0716 80.6534 14.7819C80.6534 15.1527 80.6311 15.5235 80.582 15.8853C80.5373 16.2472 80.4792 16.5956 80.4122 16.9351C80.3452 17.2702 80.2737 17.5784 80.1933 17.8554C80.1129 18.1323 80.0414 18.378 79.9789 18.5835H72.6705V16.6269Z" fill="#00113D"/>
<path d="M94.5466 16.627V18.5836H91.0264C90.3295 18.5836 89.6862 18.5032 89.1055 18.3469C88.5247 18.1905 88.0199 17.9448 87.5956 17.6187C87.1712 17.2926 86.8406 16.8816 86.6038 16.3902C86.3671 15.8988 86.2465 15.3181 86.2465 14.657C86.2465 14.0896 86.3537 13.567 86.5681 13.0845C86.7825 12.6065 87.0952 12.1911 87.5017 11.8426C87.9083 11.4942 88.4131 11.2172 89.0027 11.0162C89.5924 10.8151 90.267 10.7169 91.0219 10.7169H91.2989V10.02H93.2555V16.627H94.5421H94.5466ZM89.8247 8.72896C89.6103 8.90318 89.3556 8.98806 89.0563 8.98806C88.757 8.98806 88.5024 8.90318 88.288 8.72896C88.0736 8.55474 87.9663 8.30904 87.9663 7.98293C87.9663 7.68363 88.0691 7.44687 88.279 7.26371C88.489 7.08056 88.7481 6.99121 89.0563 6.99121C89.3646 6.99121 89.6237 7.08056 89.8336 7.26371C90.0436 7.44687 90.1463 7.68363 90.1463 7.98293C90.1463 8.30904 90.0391 8.55921 89.8247 8.72896ZM91.3034 16.627V12.6735H90.5484C90.258 12.6735 89.9766 12.7182 89.6952 12.8075C89.4137 12.8969 89.1636 13.022 88.9402 13.1917C88.7168 13.3615 88.5381 13.567 88.4041 13.8127C88.2701 14.0584 88.2031 14.3398 88.2031 14.657C88.2031 14.9741 88.2656 15.269 88.3907 15.5102C88.5158 15.7514 88.6856 15.9569 88.8955 16.1267C89.1055 16.2964 89.3422 16.4215 89.6147 16.5019C89.8828 16.5868 90.1642 16.627 90.4546 16.627H91.3078H91.3034ZM92.8535 8.72896C92.639 8.90318 92.3844 8.98806 92.0851 8.98806C91.7858 8.98806 91.5312 8.90318 91.3168 8.72896C91.1023 8.55474 90.9951 8.30904 90.9951 7.98293C90.9951 7.68363 91.0979 7.44687 91.3078 7.26371C91.5178 7.08056 91.7769 6.99121 92.0851 6.99121C92.3934 6.99121 92.6614 7.08056 92.8669 7.26371C93.0724 7.44687 93.1751 7.68363 93.1751 7.98293C93.1751 8.30904 93.0679 8.55921 92.8535 8.72896Z" fill="#00113D"/>
<path d="M94.283 16.6269H97.2045V10.7168H99.1612V16.6269H101.73V18.5836H94.283V16.6269ZM97.3296 21.3086C97.1152 21.4783 96.8605 21.5587 96.5612 21.5587C96.2619 21.5587 96.0073 21.4739 95.7929 21.3086C95.5784 21.1388 95.4712 20.8931 95.4712 20.567C95.4712 20.2677 95.574 20.0265 95.7839 19.8389C95.9939 19.6512 96.253 19.5574 96.5612 19.5574C96.8695 19.5574 97.1286 19.6512 97.3385 19.8389C97.5485 20.0265 97.6512 20.2677 97.6512 20.567C97.6512 20.8931 97.544 21.1388 97.3296 21.3086ZM100.363 21.3086C100.148 21.4783 99.8938 21.5587 99.5945 21.5587C99.2952 21.5587 99.0405 21.4739 98.8261 21.3086C98.6117 21.1388 98.5045 20.8931 98.5045 20.567C98.5045 20.2677 98.6072 20.0265 98.8172 19.8389C99.0271 19.6512 99.2862 19.5574 99.5945 19.5574C99.9027 19.5574 100.171 19.6512 100.376 19.8389C100.582 20.0265 100.684 20.2677 100.684 20.567C100.684 20.8931 100.577 21.1388 100.363 21.3086Z" fill="#00113D"/>
<path d="M101.448 16.627H103.812L102.078 12.1866C102.413 11.8962 102.753 11.6326 103.092 11.3914C103.432 11.1502 103.776 10.9402 104.124 10.7615C104.473 10.5828 104.835 10.4488 105.205 10.3505C105.576 10.2523 105.965 10.2031 106.367 10.2031C107.175 10.2031 107.935 10.3907 108.645 10.7615C109.351 11.1323 110.03 11.6148 110.669 12.2L108.993 16.627H111.562V18.5836H101.448V16.627ZM106.367 12.267C105.974 12.267 105.616 12.3295 105.29 12.4501C104.964 12.5708 104.625 12.7628 104.272 13.0219L105.545 16.627H107.22L108.493 13.0085C108.1 12.7405 107.752 12.5484 107.439 12.4367C107.126 12.3251 106.769 12.267 106.371 12.267H106.367Z" fill="#00113D"/>
<path d="M111.285 16.6271H112.639C112.603 16.4886 112.576 16.3412 112.563 16.1937C112.549 16.0463 112.54 15.89 112.54 15.7336C112.54 15.1395 112.652 14.5811 112.871 14.0629C113.09 13.5447 113.389 13.0935 113.764 12.7093C114.14 12.3251 114.582 12.0169 115.091 11.7935C115.6 11.5702 116.141 11.4585 116.717 11.4585C117.294 11.4585 117.856 11.5702 118.375 11.7846C118.893 12.0035 119.344 12.3028 119.728 12.687C120.112 13.0667 120.416 13.5224 120.635 14.0405C120.854 14.5632 120.966 15.1261 120.966 15.7292C120.966 15.8855 120.957 16.0419 120.939 16.1893C120.921 16.3367 120.899 16.4841 120.867 16.6226H122.431V18.5792H119.818C119.424 18.9992 118.964 19.3253 118.428 19.5576C117.892 19.7899 117.32 19.906 116.717 19.906C116.114 19.906 115.56 19.7854 115.042 19.5486C114.519 19.3119 114.064 18.9858 113.675 18.5792H111.285V16.6226V16.6271ZM115.837 17.7796C116.105 17.8958 116.4 17.9538 116.717 17.9538C117.034 17.9538 117.334 17.9002 117.611 17.7841C117.892 17.6724 118.133 17.516 118.343 17.315C118.553 17.114 118.714 16.8772 118.83 16.6047C118.946 16.3322 119.005 16.0285 119.005 15.7024C119.005 15.3762 118.951 15.0725 118.835 14.7955C118.723 14.5141 118.567 14.2728 118.361 14.0674C118.156 13.8619 117.915 13.701 117.633 13.5849C117.356 13.4687 117.048 13.4107 116.713 13.4107C116.378 13.4107 116.087 13.4732 115.819 13.5938C115.551 13.7144 115.319 13.8797 115.123 14.0808C114.926 14.2862 114.774 14.5275 114.662 14.8089C114.551 15.0903 114.493 15.3852 114.493 15.7024C114.493 16.0195 114.546 16.3144 114.662 16.5913C114.774 16.8683 114.93 17.1051 115.131 17.3061C115.332 17.5071 115.565 17.6635 115.837 17.7796Z" fill="#00113D"/>
<path d="M122.154 16.6269H127.952C128.028 16.3187 128.086 15.9836 128.127 15.6218C128.167 15.2599 128.189 14.9294 128.189 14.63C128.189 14.3307 128.136 14.0404 128.028 13.7277C127.921 13.415 127.747 13.1514 127.506 12.937C127.104 12.5841 126.554 12.4054 125.857 12.4054C125.486 12.4054 125.147 12.45 124.839 12.5394C124.53 12.6287 124.195 12.7896 123.834 13.0218L123.025 11.3154C123.481 11.0563 123.963 10.8463 124.463 10.6855C124.968 10.5291 125.509 10.4487 126.098 10.4487C126.688 10.4487 127.202 10.5425 127.671 10.7302C128.14 10.9178 128.542 11.1814 128.882 11.5253C129.252 11.8961 129.556 12.3562 129.788 12.9012C130.021 13.4462 130.137 14.0716 130.137 14.7819C130.137 15.1527 130.115 15.5235 130.065 15.8853C130.021 16.2472 129.963 16.5956 129.896 16.9351C129.829 17.2702 129.757 17.5784 129.677 17.8554C129.596 18.1323 129.525 18.378 129.462 18.5835H122.154V16.6269ZM126.786 21.2907C126.559 21.4694 126.291 21.5542 125.982 21.5542C125.674 21.5542 125.406 21.4649 125.178 21.2907C124.95 21.112 124.834 20.8529 124.834 20.5089C124.834 20.2007 124.946 19.9505 125.165 19.7629C125.384 19.5708 125.656 19.477 125.982 19.477C126.308 19.477 126.581 19.5708 126.8 19.7629C127.019 19.955 127.126 20.2007 127.126 20.5089C127.126 20.8529 127.01 21.112 126.782 21.2907H126.786Z" fill="#00113D"/>
<path d="M0.47583 36.5552H5.34957V34.4198C5.34957 34.1384 5.31829 33.8972 5.26022 33.6872C5.19768 33.4772 5.10387 33.2941 4.97432 33.1333C4.8537 32.9769 4.68842 32.8474 4.47846 32.7491C4.2685 32.6508 4.04067 32.6017 3.78604 32.6017H2.9462V30.645H3.58948C4.22383 30.645 4.77776 30.7254 5.25129 30.8907C5.72481 31.056 6.14026 31.3196 6.49317 31.6948C6.79248 32.012 7.00244 32.414 7.12305 32.9054C7.24367 33.3924 7.30621 33.9284 7.30621 34.5047V38.5163H0.47583V36.5596V36.5552Z" fill="#00113D"/>
<path d="M9.83459 27.1831H11.7912V38.512H9.83459V27.1831Z" fill="#00113D"/>
<path d="M14.3912 41.5852C14.2036 41.5852 14.0249 41.5718 13.8462 41.5495C13.6675 41.5272 13.5201 41.4959 13.3995 41.4602L13.261 39.5035C13.4486 39.5482 13.6094 39.5839 13.7479 39.6018C13.8864 39.6197 14.0338 39.6286 14.1812 39.6286C14.5743 39.6286 14.8468 39.5214 14.9987 39.307C15.1506 39.0925 15.231 38.7441 15.231 38.2572V30.645H17.1877V36.5552H18.6976V38.5118H17.1743C17.1207 39.5929 16.8705 40.3746 16.4327 40.8571C15.9949 41.3395 15.3159 41.5852 14.3912 41.5852Z" fill="#00113D"/>
<path d="M18.4117 36.5553H20.2835C20.078 36.2873 19.9172 35.988 19.7966 35.6619C19.676 35.3358 19.6134 34.9739 19.6134 34.5719C19.6134 33.9554 19.7251 33.4059 19.9574 32.9235C20.1897 32.441 20.5024 32.0255 20.9134 31.686C21.3244 31.3465 21.8158 31.0874 22.392 30.9087C22.9683 30.7301 23.6071 30.6452 24.3085 30.6452H26.6136V38.5119H18.4117V36.5553ZM21.5701 34.5719C21.5701 35.0007 21.6639 35.3804 21.856 35.7155C22.0481 36.0505 22.3027 36.3319 22.6333 36.5553H24.6569V32.6018H23.8349C23.5535 32.6018 23.2765 32.642 23.004 32.7269C22.7315 32.8118 22.4858 32.9369 22.2759 33.1021C22.0659 33.2719 21.8962 33.4774 21.7666 33.7231C21.6371 33.9688 21.5701 34.2502 21.5701 34.5674V34.5719ZM24.5229 29.1933C24.2951 29.372 24.027 29.4569 23.7188 29.4569C23.4106 29.4569 23.1425 29.3675 22.9147 29.1933C22.6869 29.0146 22.5707 28.7555 22.5707 28.4116C22.5707 28.1033 22.6779 27.8532 22.8968 27.6655C23.1157 27.4734 23.3882 27.3796 23.7143 27.3796C24.0404 27.3796 24.3129 27.4734 24.5318 27.6655C24.7507 27.8576 24.8579 28.1078 24.8579 28.4116C24.8579 28.7555 24.7463 29.0191 24.514 29.1933H24.5229Z" fill="#00113D"/>
<path d="M28.0118 36.5552H31.9921C32.3093 36.5552 32.6041 36.515 32.8721 36.4346C33.1402 36.3542 33.3769 36.238 33.569 36.0772C33.7566 35.9208 33.8996 35.7243 34.0023 35.492C34.1051 35.2597 34.1542 34.9693 34.1542 34.6253V26.1466H37.0177V28.1032H36.1109V34.5583C36.1109 35.1346 36.026 35.6885 35.8518 36.2201C35.6775 36.7517 35.4184 37.1806 35.0611 37.5067C34.659 37.8685 34.1676 38.1276 33.5869 38.284C33.0061 38.4359 32.3361 38.5163 31.5811 38.5163H28.2441L28.0073 36.5596L28.0118 36.5552ZM29.1867 27.1249C29.1867 26.4905 29.343 26.0438 29.6557 25.7847C29.9684 25.5256 30.3973 25.3916 30.9468 25.3916H31.6436V26.0215H31.0584C30.7815 26.0215 30.5849 26.084 30.4732 26.2046C30.3615 26.3253 30.3035 26.4995 30.3035 26.7228H32.0904V27.7726H29.1867V27.1293V27.1249ZM29.9952 28.4919H31.9519V35.8538H29.9952V28.4919Z" fill="#00113D"/>
<path d="M39.4791 27.1831H41.4358V38.512H39.4791V27.1831Z" fill="#00113D"/>
<path d="M51.9247 40.2585C51.5048 40.2585 51.1251 40.2362 50.7856 40.196C50.4461 40.1558 50.1334 40.0843 49.843 39.995C49.5526 39.9012 49.2891 39.785 49.0523 39.6376C48.8155 39.4946 48.5877 39.3204 48.3733 39.1149C48.0293 38.7888 47.7881 38.3689 47.6451 37.8507C47.5067 37.3325 47.4352 36.792 47.4352 36.2246V31.6547H49.3918V35.9834C49.3918 36.4033 49.4365 36.7607 49.5258 37.0511C49.6152 37.3459 49.7671 37.5827 49.9815 37.7703C50.2227 37.9758 50.5265 38.1143 50.8883 38.1902C51.2502 38.2661 51.6433 38.3019 52.0632 38.3019H53.18V31.6502H55.1367V36.5552H56.6466V38.5118H55.1367V40.2585H51.9247ZM52.1972 30.1447C51.9694 30.3234 51.7014 30.4083 51.3931 30.4083C51.0849 30.4083 50.8169 30.319 50.589 30.1447C50.3612 29.9705 50.2451 29.707 50.2451 29.363C50.2451 29.0547 50.3523 28.8046 50.5712 28.617C50.7901 28.4293 51.0626 28.3311 51.3887 28.3311C51.7148 28.3311 51.9873 28.4249 52.2062 28.617C52.4251 28.809 52.5323 29.0547 52.5323 29.363C52.5323 29.707 52.4206 29.9705 52.1883 30.1447H52.1972Z" fill="#00113D"/>
<path d="M56.3965 36.5552H59.318V30.645H61.2747V38.5118H56.401V36.5552H56.3965ZM58.715 41.2368C58.5005 41.4065 58.2459 41.487 57.9466 41.487C57.6473 41.487 57.3927 41.4021 57.1782 41.2368C56.9638 41.067 56.8566 40.8213 56.8566 40.4952C56.8566 40.1959 56.9594 39.9547 57.1693 39.7671C57.3793 39.5795 57.6384 39.4856 57.9466 39.4856C58.2548 39.4856 58.5139 39.5795 58.7239 39.7671C58.9339 39.9547 59.0366 40.1959 59.0366 40.4952C59.0366 40.8213 58.9294 41.067 58.715 41.2368ZM61.7482 41.2368C61.5338 41.4065 61.2792 41.487 60.9799 41.487C60.6805 41.487 60.4259 41.4021 60.2115 41.2368C59.9971 41.067 59.8898 40.8213 59.8898 40.4952C59.8898 40.1959 59.9926 39.9547 60.2026 39.7671C60.4125 39.5795 60.6716 39.4856 60.9799 39.4856C61.2881 39.4856 61.5561 39.5795 61.7616 39.7671C61.9671 39.9547 62.0699 40.1959 62.0699 40.4952C62.0699 40.8213 61.9626 41.067 61.7482 41.2368Z" fill="#00113D"/>
<path d="M63.8835 41.5852C63.6959 41.5852 63.5172 41.5718 63.3385 41.5495C63.1598 41.5272 63.0124 41.4959 62.8918 41.4602L62.7533 39.5035C62.9409 39.5482 63.1017 39.5839 63.2402 39.6018C63.3787 39.6197 63.5261 39.6286 63.6735 39.6286C64.0667 39.6286 64.3392 39.5214 64.491 39.307C64.6429 39.0925 64.7233 38.7441 64.7233 38.2572V30.645H66.68V36.5552H68.1899V38.5118H66.6666C66.613 39.5929 66.3628 40.3746 65.925 40.8571C65.4872 41.3395 64.8082 41.5852 63.8835 41.5852Z" fill="#00113D"/>
<path d="M67.9084 36.5553H69.262C69.2263 36.4168 69.1995 36.2694 69.1861 36.122C69.1727 35.9746 69.1637 35.8182 69.1637 35.6618C69.1637 35.0677 69.2754 34.5093 69.4943 33.9911C69.7132 33.4729 70.0125 33.0217 70.3878 32.6375C70.763 32.2534 71.2053 31.9451 71.7145 31.7218C72.2238 31.4984 72.7643 31.3867 73.3406 31.3867C73.9169 31.3867 74.4797 31.4984 74.9979 31.7128C75.5161 31.9317 75.9673 32.231 76.3515 32.6152C76.7357 32.9949 77.0394 33.4506 77.2583 33.9688C77.4772 34.4914 77.5889 35.0543 77.5889 35.6574C77.5889 35.8137 77.58 35.9701 77.5621 36.1175C77.5442 36.2649 77.5219 36.4123 77.4906 36.5508H79.0542V38.5075H76.4408C76.0477 38.9274 75.5876 39.2535 75.0515 39.4858C74.5155 39.7181 73.9437 39.8342 73.3406 39.8342C72.7375 39.8342 72.1836 39.7136 71.6654 39.4769C71.1427 39.2401 70.6871 38.914 70.2984 38.5075H67.9084V36.5508V36.5553ZM72.4605 37.7078C72.7286 37.824 73.0234 37.8821 73.3406 37.8821C73.6578 37.8821 73.9571 37.8284 74.234 37.7123C74.5155 37.6006 74.7567 37.4443 74.9667 37.2432C75.1766 37.0422 75.3374 36.8055 75.4536 36.533C75.5697 36.2605 75.6278 35.9567 75.6278 35.6306C75.6278 35.3045 75.5742 35.0007 75.4581 34.7237C75.3464 34.4423 75.19 34.2011 74.9845 33.9956C74.779 33.7901 74.5378 33.6293 74.2564 33.5131C73.9794 33.397 73.6712 33.3389 73.3361 33.3389C73.0011 33.3389 72.7107 33.4014 72.4427 33.522C72.1746 33.6427 71.9423 33.8079 71.7458 34.009C71.5492 34.2145 71.3973 34.4557 71.2857 34.7371C71.174 35.0186 71.1159 35.3134 71.1159 35.6306C71.1159 35.9477 71.1695 36.2426 71.2857 36.5196C71.3973 36.7965 71.5537 37.0333 71.7547 37.2343C71.9557 37.4353 72.188 37.5917 72.4605 37.7078Z" fill="#00113D"/>
<path d="M78.7772 36.5554H81.6988V30.6453H83.6554V36.5554H86.2241V38.512H78.7772V36.5554ZM81.7926 29.1309C81.5782 29.2962 81.3325 29.3766 81.051 29.3766C80.7696 29.3766 80.5284 29.2962 80.3184 29.1309C80.1085 28.97 80.0057 28.7243 80.0057 28.3982C80.0057 28.1079 80.104 27.8756 80.305 27.7014C80.506 27.5271 80.7562 27.4378 81.051 27.4378C81.3459 27.4378 81.6005 27.5271 81.806 27.7014C82.0115 27.88 82.1142 28.1123 82.1142 28.3982C82.1142 28.7243 82.007 28.97 81.7926 29.1309ZM82.5342 27.1564C82.2929 27.1564 82.074 27.0849 81.8864 26.9419C81.6943 26.799 81.6005 26.5846 81.6005 26.3076C81.6005 26.0574 81.6898 25.8519 81.8641 25.6911C82.0428 25.5348 82.2661 25.4543 82.5342 25.4543C82.8022 25.4543 83.0255 25.5348 83.2042 25.6911C83.3829 25.8475 83.4678 26.053 83.4678 26.3076C83.4678 26.589 83.374 26.799 83.1864 26.9419C82.9987 27.0849 82.7798 27.1564 82.5297 27.1564H82.5342ZM84.0128 29.3766C83.7358 29.3766 83.4901 29.2962 83.2802 29.1309C83.0702 28.97 82.9675 28.7243 82.9675 28.3982C82.9675 28.1079 83.0658 27.8756 83.2668 27.7014C83.4678 27.5271 83.718 27.4378 84.0128 27.4378C84.3076 27.4378 84.5757 27.5271 84.7767 27.7014C84.9777 27.88 85.076 28.1123 85.076 28.3982C85.076 28.7243 84.9733 28.97 84.7633 29.1309C84.5533 29.2962 84.3032 29.3766 84.0173 29.3766H84.0128Z" fill="#00113D"/>
<path d="M85.9426 36.5552H88.8642V30.6451H90.8208V36.5552H93.3895V38.5119H85.9426V36.5552ZM89.0027 29.1977C88.7882 29.3719 88.5336 29.4568 88.2343 29.4568C87.935 29.4568 87.6804 29.3719 87.4659 29.1977C87.2515 29.0235 87.1443 28.7778 87.1443 28.4517C87.1443 28.1524 87.2471 27.9156 87.457 27.7325C87.667 27.5493 87.9261 27.46 88.2343 27.46C88.5425 27.46 88.8016 27.5493 89.0116 27.7325C89.2216 27.9156 89.3243 28.1524 89.3243 28.4517C89.3243 28.7778 89.2171 29.028 89.0027 29.1977ZM92.0359 29.1977C91.8215 29.3719 91.5669 29.4568 91.2676 29.4568C90.9682 29.4568 90.7136 29.3719 90.4992 29.1977C90.2848 29.0235 90.1775 28.7778 90.1775 28.4517C90.1775 28.1524 90.2803 27.9156 90.4903 27.7325C90.7002 27.5493 90.9593 27.46 91.2676 27.46C91.5758 27.46 91.8438 27.5493 92.0493 27.7325C92.2548 27.9156 92.3575 28.1524 92.3575 28.4517C92.3575 28.7778 92.2503 29.028 92.0359 29.1977Z" fill="#00113D"/>
<path d="M103.351 34.7283C103.351 35.3984 103.512 35.8942 103.834 36.2159C104.155 36.5375 104.58 36.6983 105.111 36.6983C105.67 36.6983 106.09 36.542 106.367 36.2248C106.648 35.9076 106.787 35.4788 106.787 34.9382V29.6714H108.73V34.6881C108.73 34.9114 108.721 35.1259 108.703 35.3224C108.685 35.519 108.663 35.7155 108.632 35.9032C109.043 36.3409 109.695 36.5598 110.588 36.5598V38.5165C110.209 38.5165 109.878 38.4852 109.597 38.4182C109.315 38.3512 109.078 38.2663 108.886 38.1546C108.69 38.043 108.529 37.9179 108.404 37.7794C108.279 37.6409 108.171 37.498 108.091 37.3595C107.506 38.2261 106.514 38.6594 105.116 38.6594C104.848 38.6594 104.58 38.6371 104.321 38.5969C104.062 38.5567 103.807 38.4852 103.566 38.3825C103.325 38.2797 103.097 38.1412 102.887 37.9715C102.677 37.7973 102.494 37.5828 102.333 37.3237C101.98 37.6945 101.56 37.9893 101.078 38.2038C100.595 38.4182 100.086 38.5254 99.5542 38.5254H93.1304V36.5688H96.177V31.3555H98.1337V36.5688H99.5587C99.7642 36.5688 99.9741 36.542 100.193 36.4928C100.412 36.4437 100.613 36.3499 100.792 36.2114C100.975 36.0774 101.122 35.8987 101.234 35.6753C101.346 35.452 101.404 35.1661 101.404 34.8221V31.3555H103.36V34.7372L103.351 34.7283Z" fill="#00113D"/>
<path d="M110.293 36.5553H111.647C111.611 36.4168 111.584 36.2694 111.571 36.122C111.558 35.9746 111.549 35.8182 111.549 35.6618C111.549 35.0677 111.66 34.5093 111.879 33.9911C112.098 33.4729 112.398 33.0217 112.773 32.6375C113.148 32.2534 113.59 31.9451 114.1 31.7218C114.609 31.4984 115.149 31.3867 115.726 31.3867C116.302 31.3867 116.865 31.4984 117.383 31.7128C117.901 31.9317 118.352 32.231 118.737 32.6152C119.121 32.9949 119.424 33.4506 119.643 33.9688C119.862 34.4914 119.974 35.0543 119.974 35.6574C119.974 35.8137 119.965 35.9701 119.947 36.1175C119.929 36.2649 119.907 36.4123 119.876 36.5508H121.439V38.5075H118.826C118.433 38.9274 117.973 39.2535 117.437 39.4858C116.9 39.7181 116.329 39.8342 115.726 39.8342C115.123 39.8342 114.569 39.7136 114.05 39.4769C113.528 39.2401 113.072 38.914 112.683 38.5075H110.293V36.5508V36.5553ZM114.846 37.7078C115.114 37.824 115.408 37.8821 115.726 37.8821C116.043 37.8821 116.342 37.8284 116.619 37.7123C116.9 37.6006 117.142 37.4443 117.352 37.2432C117.562 37.0422 117.722 36.8055 117.839 36.533C117.955 36.2605 118.013 35.9567 118.013 35.6306C118.013 35.3045 117.959 35.0007 117.843 34.7237C117.731 34.4423 117.575 34.2011 117.37 33.9956C117.164 33.7901 116.923 33.6293 116.641 33.5131C116.364 33.397 116.056 33.3389 115.721 33.3389C115.386 33.3389 115.096 33.4014 114.828 33.522C114.56 33.6427 114.327 33.8079 114.131 34.009C113.934 34.2145 113.782 34.4557 113.671 34.7371C113.559 35.0186 113.501 35.3134 113.501 35.6306C113.501 35.9477 113.555 36.2426 113.671 36.5196C113.782 36.7965 113.939 37.0333 114.14 37.2343C114.341 37.4353 114.573 37.5917 114.846 37.7078Z" fill="#00113D"/>
<path d="M121.162 36.5553H122.529V27.1831H125.393V29.1397H124.486V38.512H121.162V36.5553Z" fill="#00113D"/>
<path d="M127.769 27.1831H129.726V38.512H127.769V27.1831Z" fill="#00113D"/>
<path d="M40.9489 57.9309C40.7523 57.9085 40.5736 57.8728 40.4083 57.8237C40.2431 57.7745 40.0956 57.712 39.9616 57.6405C39.8276 57.569 39.6891 57.4797 39.5551 57.3725C39.3139 57.1938 39.1397 56.957 39.0235 56.6622C38.9118 56.3674 38.8538 56.0815 38.8538 55.8045V53.7496H39.5104V55.7151C39.5104 56.0279 39.5551 56.278 39.64 56.4612C39.7249 56.6443 39.8544 56.8007 40.0197 56.9213C40.1939 57.0508 40.3949 57.1491 40.6272 57.2117C40.8595 57.2742 41.1097 57.3099 41.3733 57.3099H43.5488C43.4371 57.2295 43.2674 57.0151 43.0395 56.6622C42.8117 56.3138 42.7 55.8894 42.7 55.389C42.7 55.0272 42.767 54.6877 42.8966 54.375C43.0306 54.0623 43.2272 53.7898 43.4863 53.5575C43.7454 53.3252 44.0715 53.1465 44.4556 53.0214C44.8398 52.8963 45.2776 52.8338 45.769 52.8338H47.0422V57.9622H41.6279C41.3688 57.9622 41.141 57.9532 40.9444 57.9309H40.9489ZM43.7364 56.5237C43.9866 56.8498 44.2993 57.1089 44.6656 57.3055H46.39V53.486H45.5144C45.2151 53.486 44.9336 53.5307 44.6745 53.62C44.4154 53.7094 44.1876 53.8389 43.9911 54.0087C43.7945 54.1784 43.6382 54.3795 43.5265 54.6117C43.4148 54.844 43.3567 55.1031 43.3567 55.3846C43.3567 55.8134 43.4818 56.1931 43.7364 56.5192V56.5237ZM45.1481 51.7393C45.0498 51.641 45.0006 51.5249 45.0006 51.3909C45.0006 51.2569 45.0498 51.1407 45.1481 51.0424C45.2463 50.9442 45.3625 50.895 45.501 50.895C45.6395 50.895 45.7511 50.9442 45.8494 51.0424C45.9477 51.1407 45.9968 51.2569 45.9968 51.3909C45.9968 51.5249 45.9477 51.641 45.8494 51.7393C45.7511 51.8376 45.635 51.8867 45.501 51.8867C45.367 51.8867 45.2508 51.8376 45.1481 51.7393Z" fill="#00113D"/>
<path d="M49.2624 50.2473V57.9667H48.6057V50.2473H49.2624Z" fill="#00113D"/>
<path d="M50.1871 59.8474L50.4284 59.2399C50.6071 59.3158 50.7455 59.3516 50.8438 59.3516C50.9912 59.3516 51.1029 59.3203 51.1833 59.2622C51.2637 59.2042 51.3263 59.1238 51.3665 59.0255C51.4112 58.9272 51.438 58.8111 51.4514 58.6815C51.4648 58.552 51.4692 58.4224 51.4692 58.2973V52.8384H52.1259V57.3101H53.5554V57.9667H52.1259V58.2973C52.1259 58.5207 52.108 58.7306 52.0768 58.9361C52.041 59.1416 51.9785 59.3248 51.8847 59.4856C51.7909 59.6464 51.6524 59.7715 51.4782 59.8653C51.3039 59.9591 51.0806 60.0038 50.8081 60.0038C50.6339 60.0038 50.4284 59.9502 50.1916 59.8474H50.1871Z" fill="#00113D"/>
<path d="M55.2127 57.3099V52.8383H55.8694V57.3099H57.8439V57.9666H53.131V57.3099H55.2172H55.2127ZM54.2925 51.7393C54.1942 51.641 54.145 51.5249 54.145 51.3909C54.145 51.2569 54.1942 51.1407 54.2925 51.0424C54.3907 50.9442 54.5069 50.895 54.6409 50.895C54.7749 50.895 54.8911 50.9442 54.9938 51.0424C55.0921 51.1407 55.1412 51.2569 55.1412 51.3909C55.1412 51.5249 55.0921 51.641 54.9938 51.7393C54.8955 51.8376 54.7794 51.8867 54.6409 51.8867C54.5024 51.8867 54.3907 51.8376 54.2925 51.7393ZM55.9453 51.7393C55.847 51.641 55.7979 51.5249 55.7979 51.3909C55.7979 51.2569 55.847 51.1407 55.9453 51.0424C56.0436 50.9442 56.1598 50.895 56.2938 50.895C56.4278 50.895 56.5439 50.9442 56.6467 51.0424C56.745 51.1407 56.7941 51.2569 56.7941 51.3909C56.7941 51.5249 56.745 51.641 56.6467 51.7393C56.5484 51.8376 56.4323 51.8867 56.2938 51.8867C56.1553 51.8867 56.0436 51.8376 55.9453 51.7393Z" fill="#00113D"/>
<path d="M61.6589 57.31C61.7125 57.1179 61.7616 56.8633 61.7973 56.5372C61.8331 56.2111 61.8509 55.7777 61.8509 55.2372C61.8509 54.9736 61.8107 54.7279 61.7303 54.509C61.6499 54.2902 61.498 54.0802 61.2791 53.8926C61.1317 53.7764 60.953 53.6826 60.7431 53.6067C60.5331 53.5307 60.2874 53.495 60.006 53.495C59.7737 53.495 59.5235 53.5352 59.2644 53.6201C59.0053 53.7049 58.7328 53.8524 58.4469 54.0668L58.1968 53.4414C58.4067 53.3118 58.5809 53.2136 58.7194 53.1465C58.8579 53.0795 59.0009 53.0215 59.1483 52.9768C59.2957 52.9321 59.452 52.8964 59.6129 52.874C59.7782 52.8517 59.9568 52.8428 60.1623 52.8428C60.4438 52.8428 60.7207 52.8919 60.9888 52.9902C61.2568 53.0885 61.4891 53.2225 61.6857 53.3878C61.9582 53.6111 62.1636 53.8836 62.3021 54.2142C62.4406 54.5448 62.5121 54.9334 62.5121 55.3802C62.5121 55.6259 62.5032 55.8715 62.4853 56.1128C62.4674 56.354 62.4406 56.5863 62.4093 56.8052C62.3781 57.0241 62.3423 57.2251 62.3021 57.4083C62.2619 57.5914 62.2083 57.7791 62.1413 57.9711H57.4105V57.3145H61.6544L61.6589 57.31Z" fill="#00113D"/>
<path d="M64.6385 50.2473V57.9667H63.9818V50.2473H64.6385Z" fill="#00113D"/>
<path d="M67.3546 59.8653C67.1178 59.7804 66.8408 59.642 66.5281 59.4588L66.8319 58.8781C67.1223 59.0389 67.3635 59.155 67.5601 59.2265C67.7566 59.298 67.9711 59.3382 68.1944 59.3382C68.592 59.3382 68.9047 59.2444 69.1325 59.0612C69.3559 58.8781 69.4676 58.619 69.4676 58.2884V57.9667H69.0343C68.6322 57.9667 68.248 57.9221 67.8728 57.8327C67.4975 57.7434 67.1625 57.596 66.8632 57.3949C66.5639 57.1939 66.3271 56.9259 66.144 56.5953C65.9608 56.2647 65.8715 55.8672 65.8715 55.4026C65.8715 55.0273 65.9474 54.6833 66.0948 54.3662C66.2422 54.049 66.4522 53.7765 66.7292 53.5487C67.0061 53.3208 67.3367 53.1466 67.7254 53.0215C68.114 52.8965 68.5473 52.8384 69.0343 52.8384H70.1243V58.2884C70.1243 58.8155 69.9456 59.2354 69.5837 59.5392C69.2263 59.843 68.7483 59.9949 68.1587 59.9949C67.8594 59.9949 67.5869 59.9502 67.3501 59.8653H67.3546ZM66.7024 56.2379C66.8185 56.4747 66.9793 56.6713 67.1848 56.8276C67.3903 56.984 67.6315 57.1046 67.904 57.1895C68.1765 57.2743 68.4669 57.3145 68.7752 57.3145H69.4676V53.4951H68.7752C68.4982 53.4951 68.2257 53.5397 67.9532 53.6335C67.6807 53.7274 67.4395 53.8569 67.2295 54.0222C67.0151 54.1875 66.8453 54.3885 66.7158 54.6163C66.5862 54.8442 66.5237 55.1077 66.5237 55.407C66.5237 55.7287 66.5818 56.0056 66.6979 56.2424L66.7024 56.2379Z" fill="#00113D"/>
<path d="M79.9611 53.4906C79.7378 53.4906 79.5501 53.5129 79.3982 53.5531C79.2464 53.5978 79.1034 53.6648 78.9783 53.7676C78.8532 53.8703 78.7505 53.9954 78.679 54.1607C78.6075 54.326 78.5673 54.4868 78.5673 54.6431V59.1148H75.9183C75.686 59.1148 75.476 59.1059 75.2884 59.0835C75.1008 59.0612 74.9266 59.0299 74.7657 58.9808C74.6049 58.9361 74.453 58.8825 74.3056 58.82C74.1582 58.7574 73.975 58.6681 73.7606 58.543L74.0823 57.9801C74.4039 58.1633 74.6764 58.2929 74.9132 58.3599C75.1455 58.4269 75.3956 58.4626 75.6592 58.4626H77.9107V54.7012C77.9107 54.3885 77.9643 54.1205 78.067 53.8926C78.1698 53.6693 78.3261 53.4593 78.5361 53.2717C78.7148 53.1198 78.9203 53.0081 79.1481 52.9411C79.3804 52.8741 79.6127 52.8384 79.845 52.8384H81.5604V57.3101H82.7978V57.9667H80.9082V53.4951H79.9567L79.9611 53.4906ZM75.9585 55.7689C75.8602 55.6706 75.8111 55.5544 75.8111 55.4204C75.8111 55.2864 75.8602 55.1703 75.9585 55.072C76.0568 54.9737 76.1729 54.9246 76.3069 54.9246C76.4409 54.9246 76.5571 54.9737 76.6554 55.072C76.7537 55.1703 76.8028 55.2864 76.8028 55.4204C76.8028 55.5544 76.7537 55.6706 76.6554 55.7689C76.5571 55.8672 76.4409 55.9163 76.3069 55.9163C76.1729 55.9163 76.0568 55.8672 75.9585 55.7689ZM75.9585 57.3994C75.8602 57.3011 75.8111 57.185 75.8111 57.051C75.8111 56.9169 75.8602 56.8008 75.9585 56.7025C76.0568 56.6042 76.1729 56.5551 76.3069 56.5551C76.4409 56.5551 76.5571 56.6042 76.6554 56.7025C76.7537 56.8008 76.8028 56.9169 76.8028 57.051C76.8028 57.185 76.7537 57.3011 76.6554 57.3994C76.5571 57.4977 76.4409 57.5468 76.3069 57.5468C76.1729 57.5468 76.0568 57.4977 75.9585 57.3994Z" fill="#00113D"/>
<path d="M83.6734 57.3101L83.5259 57.0421C83.4455 56.8813 83.374 56.7115 83.307 56.5328C83.2445 56.3542 83.1909 56.1665 83.1507 55.97C83.1105 55.7734 83.0926 55.5724 83.0926 55.3714C83.0926 54.9246 83.182 54.5315 83.3562 54.2054C83.5304 53.8748 83.7493 53.6023 84.0173 53.379C84.2139 53.2137 84.4462 53.0797 84.7142 52.9814C84.9822 52.8831 85.2547 52.834 85.5406 52.834C85.7372 52.834 85.9159 52.8429 86.0812 52.8653C86.242 52.8876 86.3984 52.9189 86.5413 52.968C86.6843 53.0127 86.8272 53.0707 86.9657 53.1378C87.1042 53.2048 87.2784 53.303 87.4884 53.4326L87.2561 54.058C86.9746 53.8436 86.7021 53.6917 86.4386 53.6113C86.1795 53.5264 85.9293 53.4862 85.697 53.4862C85.4156 53.4862 85.1699 53.5219 84.9599 53.5979C84.7499 53.6738 84.5713 53.7676 84.4238 53.8838C83.9816 54.259 83.7582 54.7057 83.7582 55.2284C83.7582 55.492 83.7761 55.7287 83.8163 55.9342C83.8565 56.1397 83.9056 56.3274 83.9682 56.4971C84.0307 56.6669 84.0977 56.8143 84.1692 56.9438L84.3836 57.3057H87.7296V57.9624H82.3823V57.3057H83.6734V57.3101Z" fill="#00113D"/>
<path d="M90.1687 59.8653C89.9319 59.7804 89.6549 59.642 89.3422 59.4588L89.646 58.8781C89.9364 59.0389 90.1776 59.155 90.3742 59.2265C90.5707 59.298 90.7851 59.3382 91.0085 59.3382C91.4061 59.3382 91.7188 59.2444 91.9466 59.0612C92.17 58.8781 92.2817 58.619 92.2817 58.2884V57.9667H91.8483C91.4463 57.9667 91.0621 57.9221 90.6869 57.8327C90.3116 57.7434 89.9766 57.596 89.6773 57.3949C89.378 57.1939 89.1412 56.9259 88.958 56.5953C88.7749 56.2647 88.6855 55.8672 88.6855 55.4026C88.6855 55.0273 88.7615 54.6833 88.9089 54.3662C89.0563 54.049 89.2663 53.7765 89.5433 53.5487C89.8202 53.3208 90.1508 53.1466 90.5394 53.0215C90.9281 52.8965 91.3614 52.8384 91.8483 52.8384H92.9383V57.3101H94.3678V57.9667H92.9383V58.2884C92.9383 58.8155 92.7596 59.2354 92.3978 59.5392C92.0404 59.843 91.5624 59.9949 90.9728 59.9949C90.6735 59.9949 90.401 59.9502 90.1642 59.8653H90.1687ZM89.5164 56.2379C89.6326 56.4747 89.7934 56.6713 89.9989 56.8276C90.2044 56.984 90.4456 57.1046 90.7181 57.1895C90.9906 57.2743 91.281 57.3145 91.5892 57.3145H92.2817V53.4951H91.5892C91.3123 53.4951 91.0398 53.5397 90.7673 53.6335C90.4948 53.7274 90.2535 53.8569 90.0436 54.0222C89.8292 54.1875 89.6594 54.3885 89.5299 54.6163C89.4003 54.8442 89.3378 55.1077 89.3378 55.407C89.3378 55.7287 89.3958 56.0056 89.512 56.2424L89.5164 56.2379Z" fill="#00113D"/>
<path d="M95.1095 57.3101V52.8384H95.7662V57.9667H93.948V57.3101H95.1095ZM95.0827 59.7268C94.9844 59.6286 94.9352 59.5124 94.9352 59.3784C94.9352 59.2444 94.9844 59.1282 95.0827 59.0299C95.1809 58.9317 95.2971 58.8825 95.4356 58.8825C95.5741 58.8825 95.6857 58.9317 95.784 59.0299C95.8823 59.1282 95.9314 59.2444 95.9314 59.3784C95.9314 59.5124 95.8823 59.6286 95.784 59.7268C95.6857 59.8251 95.5696 59.8742 95.4356 59.8742C95.3016 59.8742 95.1854 59.8251 95.0827 59.7268Z" fill="#00113D"/>
<path d="M99.5275 59.8474L99.7687 59.2399C99.9474 59.3158 100.086 59.3516 100.184 59.3516C100.332 59.3516 100.443 59.3203 100.524 59.2622C100.604 59.2042 100.667 59.1238 100.707 59.0255C100.751 58.9272 100.778 58.8111 100.792 58.6815C100.805 58.552 100.81 58.4224 100.81 58.2973V52.8384H101.466V57.3101H102.896V57.9667H101.466V58.2973C101.466 58.5207 101.448 58.7306 101.417 58.9361C101.381 59.1416 101.319 59.3248 101.225 59.4856C101.131 59.6464 100.993 59.7715 100.818 59.8653C100.644 59.9591 100.421 60.0038 100.148 60.0038C99.9742 60.0038 99.7687 59.9502 99.5319 59.8474H99.5275Z" fill="#00113D"/>
<path d="M103.423 57.3101C103.226 56.9974 103.128 56.5641 103.128 56.0191C103.128 55.6438 103.2 55.2909 103.334 54.9603C103.468 54.6298 103.66 54.3349 103.896 54.0848C104.133 53.8346 104.415 53.6336 104.741 53.4906C105.067 53.3477 105.42 53.2717 105.799 53.2717C106.179 53.2717 106.568 53.3432 106.903 53.4862C107.238 53.6291 107.528 53.8212 107.774 54.0669C108.02 54.3126 108.212 54.603 108.35 54.9335C108.489 55.2641 108.556 55.6304 108.556 56.0235C108.556 56.305 108.52 56.573 108.444 56.8187C108.368 57.0644 108.306 57.2297 108.252 57.319H109.257V57.9757H107.774C107.546 58.208 107.26 58.4001 106.921 58.543C106.581 58.686 106.206 58.7619 105.799 58.7619C105.393 58.7619 105.045 58.686 104.714 58.5386C104.383 58.3912 104.111 58.2035 103.896 57.9757H102.467V57.319H103.418L103.423 57.3101ZM106.644 57.9355C106.903 57.8328 107.122 57.6898 107.309 57.5066C107.493 57.3235 107.64 57.1091 107.747 56.85C107.854 56.5909 107.908 56.3184 107.908 56.0146C107.908 55.7108 107.854 55.4339 107.752 55.1748C107.649 54.9157 107.501 54.6968 107.314 54.5091C107.126 54.326 106.903 54.1786 106.644 54.0758C106.385 53.9731 106.108 53.9195 105.804 53.9195C105.5 53.9195 105.237 53.9731 104.991 54.0848C104.745 54.1964 104.531 54.3439 104.357 54.536C104.178 54.728 104.039 54.9514 103.937 55.206C103.834 55.4607 103.785 55.7287 103.785 56.0146C103.785 56.3005 103.834 56.5551 103.937 56.8142C104.039 57.0689 104.178 57.2922 104.361 57.4798C104.544 57.6675 104.754 57.8149 105.004 57.9266C105.25 58.0382 105.518 58.0919 105.808 58.0919C106.099 58.0919 106.389 58.0383 106.648 57.9355H106.644Z" fill="#00113D"/>
<path d="M110.919 57.3101V52.8384H111.576V57.3101H113.55V57.9667H108.837V57.3101H110.923H110.919ZM109.967 51.7394C109.869 51.6412 109.82 51.525 109.82 51.391C109.82 51.257 109.869 51.1408 109.967 51.0426C110.066 50.9443 110.182 50.8951 110.32 50.8951C110.459 50.8951 110.57 50.9443 110.669 51.0426C110.767 51.1408 110.816 51.257 110.816 51.391C110.816 51.525 110.767 51.6412 110.669 51.7394C110.57 51.8377 110.454 51.8869 110.32 51.8869C110.186 51.8869 110.07 51.8377 109.967 51.7394ZM110.789 50.502C110.691 50.4037 110.642 50.2876 110.642 50.1536C110.642 50.0196 110.691 49.9034 110.789 49.8051C110.888 49.7069 111.004 49.6577 111.138 49.6577C111.272 49.6577 111.388 49.7069 111.491 49.8051C111.589 49.9034 111.638 50.0196 111.638 50.1536C111.638 50.2876 111.589 50.4037 111.491 50.502C111.392 50.6003 111.276 50.6494 111.138 50.6494C110.999 50.6494 110.888 50.6003 110.789 50.502ZM111.62 51.7394C111.522 51.6412 111.473 51.525 111.473 51.391C111.473 51.257 111.522 51.1408 111.62 51.0426C111.719 50.9443 111.835 50.8951 111.969 50.8951C112.103 50.8951 112.219 50.9443 112.317 51.0426C112.415 51.1408 112.465 51.257 112.465 51.391C112.465 51.525 112.415 51.6412 112.317 51.7394C112.219 51.8377 112.103 51.8869 111.969 51.8869C111.835 51.8869 111.719 51.8377 111.62 51.7394Z" fill="#00113D"/>
<path d="M115.212 57.3099V52.8383H115.869V57.3099H117.843V57.9666H113.13V57.3099H115.216H115.212ZM114.292 51.7393C114.193 51.641 114.144 51.5249 114.144 51.3909C114.144 51.2569 114.193 51.1407 114.292 51.0424C114.39 50.9442 114.506 50.895 114.64 50.895C114.774 50.895 114.89 50.9442 114.993 51.0424C115.091 51.1407 115.14 51.2569 115.14 51.3909C115.14 51.5249 115.091 51.641 114.993 51.7393C114.895 51.8376 114.779 51.8867 114.64 51.8867C114.502 51.8867 114.39 51.8376 114.292 51.7393ZM115.944 51.7393C115.846 51.641 115.797 51.5249 115.797 51.3909C115.797 51.2569 115.846 51.1407 115.944 51.0424C116.043 50.9442 116.159 50.895 116.293 50.895C116.427 50.895 116.543 50.9442 116.646 51.0424C116.744 51.1407 116.793 51.2569 116.793 51.3909C116.793 51.5249 116.744 51.641 116.646 51.7393C116.548 51.8376 116.431 51.8867 116.293 51.8867C116.154 51.8867 116.043 51.8376 115.944 51.7393Z" fill="#00113D"/>
<path d="M119.5 57.3101V53.2985H120.157V57.3101H121.779C122.109 57.3101 122.382 57.2118 122.592 57.0108C122.802 56.8098 122.904 56.5194 122.904 56.1308V53.2985H123.561V55.9923C123.561 56.1754 123.597 56.3586 123.668 56.5373C123.74 56.716 123.843 56.8678 123.972 56.9974C124.102 57.1269 124.267 57.2297 124.455 57.3101C124.647 57.3905 124.861 57.4307 125.102 57.4307C125.58 57.4307 125.938 57.2967 126.161 57.0331C126.389 56.7696 126.501 56.4211 126.501 55.9923V52.1907H127.157V55.8985C127.157 56.6445 126.97 57.1895 126.599 57.5335C126.228 57.8819 125.728 58.0561 125.098 58.0561C124.669 58.0561 124.28 57.9623 123.936 57.7792C123.592 57.596 123.374 57.4039 123.28 57.2074C123.213 57.3548 123.038 57.5156 122.757 57.6943C122.476 57.873 122.15 57.9623 121.774 57.9623H117.41V57.3056H119.496L119.5 57.3101Z" fill="#00113D"/>
<path d="M129.369 50.2473V57.9667H128.712V50.2473H129.369Z" fill="#00113D"/>
<path opacity="0.54" d="M142.404 0H141.676V68H142.404V0Z" fill="#00113D"/>
<path d="M198.065 8.13036V8.12143L185.035 0.598633L169.1 9.8011L156.069 17.3239V26.026V32.365V35.7288L158.982 34.0447L172.008 26.5264V26.5219L185.035 18.9991L185.039 19.0036L193.446 23.855" fill="#0047F6"/>
<path d="M198.065 8.13037V11.4808V26.5219L193.446 23.855L198.065 26.5219L193.446 23.855L198.065 8.13037Z" fill="#0020E8"/>
<path d="M172.008 40.8706V32.8609V26.5264L158.982 34.0447L156.069 35.7288V50.77L169.1 58.2928L172.008 59.9724V40.8706Z" fill="url(#paint0_linear_380_85)"/>
<path d="M185.035 49.0902L196.667 42.3759L198.065 41.5674L185.035 49.0902Z" fill="#0047F6"/>
<path d="M198.065 41.5675L211.092 34.0447L198.065 41.5675Z" fill="#0047F6"/>
<path d="M180.657 21.5321L185.039 19.0037L172.008 26.5265L180.657 21.5321Z" fill="#0047F6"/>
<path d="M172.008 26.5264L158.982 34.0447L172.008 26.5264Z" fill="#0047F6"/>
<path d="M214 35.7243V32.365L211.092 34.0447L198.065 41.5675L185.035 49.0903L176.627 44.2389L176.078 43.9217L172.008 41.5675V56.6131V59.9724L185.035 67.4907L200.974 58.2927L214 50.7699V35.7243Z" fill="#0047F6"/>
<path d="M193.446 23.8551L192.097 23.0778L185.039 19.0037L193.446 23.8551Z" fill="#0047F6"/>
<path d="M200.974 9.80101L198.07 8.12134H198.065V8.13027V11.4807V26.5218V27.2142V28.8894V41.5674L211.092 34.0446L214 32.3649V17.3238L200.974 9.80101Z" fill="url(#paint1_linear_380_85)"/>
<path d="M176.627 44.2388L176.078 43.9216L172.008 41.5674V56.613V59.9723" fill="#0020E8"/>
<defs>
<linearGradient id="paint0_linear_380_85" x1="162.171" y1="46.8165" x2="192.352" y2="35.8673" gradientUnits="userSpaceOnUse">
<stop stop-color="#17E0F9"/>
<stop offset="1" stop-color="#11B0F9"/>
</linearGradient>
<linearGradient id="paint1_linear_380_85" x1="198.065" y1="24.8466" x2="232.646" y2="24.8466" gradientUnits="userSpaceOnUse">
<stop stop-color="#17E0F9"/>
<stop offset="1" stop-color="#11B0F9"/>
</linearGradient>
</defs>
</svg>
