<svg width="340" height="110" viewBox="0 0 340 110" fill="none" xmlns="http://www.w3.org/2000/svg">
<path d="M80.195 27.3364V30.452H74.5897C73.48 30.452 72.4557 30.3239 71.531 30.075C70.6063 29.826 69.8025 29.4348 69.1267 28.9155C68.451 28.3962 67.9246 27.7418 67.5476 26.9594C67.1706 26.1769 66.9785 25.2522 66.9785 24.1994C66.9785 23.296 67.1492 22.4638 67.4907 21.6955C67.8321 20.9344 68.33 20.2729 68.9773 19.7181C69.6246 19.1632 70.4284 18.7222 71.3674 18.4021C72.3063 18.082 73.3805 17.9255 74.5826 17.9255H75.0236V16.8158H78.1392V27.3364H80.1878H80.195ZM72.6762 14.7601C72.3348 15.0375 71.9293 15.1727 71.4528 15.1727C70.9762 15.1727 70.5707 15.0375 70.2293 14.7601C69.8878 14.4827 69.7171 14.0915 69.7171 13.5722C69.7171 13.0956 69.8807 12.7186 70.215 12.427C70.5494 12.1353 70.9619 11.993 71.4528 11.993C71.9436 11.993 72.3561 12.1353 72.6905 12.427C73.0248 12.7186 73.1884 13.0956 73.1884 13.5722C73.1884 14.0915 73.0177 14.4898 72.6762 14.7601ZM75.0307 27.3364V21.0411H73.8286C73.3662 21.0411 72.9181 21.1123 72.47 21.2545C72.0218 21.3968 71.6235 21.596 71.2678 21.8663C70.9122 22.1366 70.6276 22.4638 70.4142 22.855C70.2008 23.2462 70.0941 23.6944 70.0941 24.1994C70.0941 24.7045 70.1937 25.1739 70.3929 25.558C70.5921 25.9422 70.8624 26.2694 71.1967 26.5397C71.531 26.81 71.908 27.0091 72.3419 27.1372C72.7687 27.2723 73.2168 27.3364 73.6792 27.3364H75.0378H75.0307ZM77.499 14.7601C77.1576 15.0375 76.7521 15.1727 76.2756 15.1727C75.799 15.1727 75.3935 15.0375 75.0521 14.7601C74.7106 14.4827 74.5399 14.0915 74.5399 13.5722C74.5399 13.0956 74.7035 12.7186 75.0378 12.427C75.3722 12.1353 75.7847 11.993 76.2756 11.993C76.7664 11.993 77.1932 12.1353 77.5204 12.427C77.8476 12.7186 78.0112 13.0956 78.0112 13.5722C78.0112 14.0915 77.8405 14.4898 77.499 14.7601Z" fill="#00113D"/>
<path d="M79.7896 27.3364H84.4416V17.9255H87.5572V30.452H79.7967V27.3364H79.7896ZM83.4813 34.7911C83.1399 35.0614 82.7344 35.1894 82.2579 35.1894C81.7813 35.1894 81.3758 35.0543 81.0344 34.7911C80.6929 34.5208 80.5222 34.1296 80.5222 33.6103C80.5222 33.1337 80.6858 32.7496 81.0201 32.4508C81.3545 32.1521 81.767 32.0027 82.2579 32.0027C82.7487 32.0027 83.1612 32.1521 83.4956 32.4508C83.8299 32.7496 83.9935 33.1337 83.9935 33.6103C83.9935 34.1296 83.8228 34.5208 83.4813 34.7911ZM88.3112 34.7911C87.9698 35.0614 87.5644 35.1894 87.0878 35.1894C86.6112 35.1894 86.2057 35.0543 85.8643 34.7911C85.5228 34.5208 85.3521 34.1296 85.3521 33.6103C85.3521 33.1337 85.5157 32.7496 85.8501 32.4508C86.1844 32.1521 86.597 32.0027 87.0878 32.0027C87.5786 32.0027 88.0054 32.1521 88.3326 32.4508C88.6598 32.7496 88.8234 33.1337 88.8234 33.6103C88.8234 34.1296 88.6527 34.5208 88.3112 34.7911Z" fill="#00113D"/>
<path d="M92.1382 12.4127H95.2538V27.3364H98.0991V30.452H92.1382V12.4127Z" fill="#00113D"/>
<path d="M97.6509 27.3364H99.8062C99.7493 27.1159 99.7066 26.8811 99.6853 26.6464C99.6639 26.4116 99.6497 26.1627 99.6497 25.9137C99.6497 24.9677 99.8275 24.0785 100.176 23.2534C100.525 22.4282 101.001 21.7098 101.599 21.098C102.196 20.4863 102.9 19.9955 103.711 19.6398C104.522 19.2842 105.383 19.1063 106.301 19.1063C107.218 19.1063 108.114 19.2842 108.94 19.6256C109.765 19.9741 110.483 20.4507 111.095 21.0625C111.707 21.6671 112.19 22.3927 112.539 23.2178C112.888 24.05 113.065 24.9463 113.065 25.9066C113.065 26.1556 113.051 26.4045 113.023 26.6393C112.994 26.874 112.959 27.1087 112.909 27.3293H115.398V30.4449H111.237C110.611 31.1135 109.879 31.6328 109.025 32.0027C108.171 32.3726 107.261 32.5575 106.301 32.5575C105.34 32.5575 104.458 32.3655 103.633 31.9885C102.801 31.6114 102.075 31.0922 101.456 30.4449H97.6509V27.3293V27.3364ZM104.899 29.1716C105.326 29.3565 105.796 29.449 106.301 29.449C106.806 29.449 107.282 29.3637 107.723 29.1787C108.171 29.0009 108.556 28.7519 108.89 28.4318C109.224 28.1117 109.48 27.7347 109.665 27.3008C109.85 26.8669 109.943 26.3832 109.943 25.8639C109.943 25.3447 109.857 24.861 109.672 24.4199C109.494 23.9718 109.245 23.5877 108.918 23.2605C108.591 22.9333 108.207 22.6772 107.759 22.4922C107.318 22.3073 106.827 22.2148 106.293 22.2148C105.76 22.2148 105.298 22.3144 104.871 22.5065C104.444 22.6985 104.074 22.9617 103.761 23.2818C103.448 23.609 103.206 23.9931 103.029 24.4413C102.851 24.8894 102.758 25.3589 102.758 25.8639C102.758 26.369 102.844 26.8384 103.029 27.2795C103.206 27.7205 103.455 28.0975 103.775 28.4176C104.095 28.7377 104.465 28.9867 104.899 29.1716Z" fill="#00113D"/>
<path d="M114.958 27.3363H124.191C124.311 26.8455 124.404 26.312 124.468 25.7358C124.532 25.1597 124.568 24.6333 124.568 24.1567C124.568 23.6801 124.482 23.2177 124.311 22.7198C124.141 22.2219 123.863 21.8022 123.479 21.4607C122.839 20.8988 121.964 20.6143 120.854 20.6143C120.264 20.6143 119.723 20.6854 119.233 20.8277C118.742 20.9699 118.208 21.226 117.632 21.5959L116.345 18.8786C117.07 18.4661 117.838 18.1317 118.635 17.8757C119.439 17.6267 120.3 17.4987 121.239 17.4987C122.177 17.4987 122.996 17.648 123.742 17.9468C124.489 18.2456 125.129 18.6652 125.67 19.213C126.261 19.8034 126.744 20.536 127.114 21.4038C127.484 22.2717 127.669 23.2675 127.669 24.3985C127.669 24.9889 127.633 25.5793 127.555 26.1555C127.484 26.7317 127.392 27.2865 127.285 27.8271C127.178 28.3606 127.064 28.8514 126.936 29.2925C126.808 29.7335 126.694 30.1247 126.595 30.4519H114.958V27.3363Z" fill="#00113D"/>
<path d="M149.791 27.3364V30.452H144.186C143.076 30.452 142.052 30.3239 141.127 30.075C140.202 29.826 139.399 29.4348 138.723 28.9155C138.047 28.3962 137.521 27.7418 137.144 26.9594C136.767 26.1769 136.575 25.2522 136.575 24.1994C136.575 23.296 136.745 22.4638 137.087 21.6955C137.428 20.9344 137.926 20.2729 138.574 19.7181C139.221 19.1632 140.025 18.7222 140.964 18.4021C141.903 18.082 142.977 17.9255 144.179 17.9255H144.62V16.8158H147.735V27.3364H149.784H149.791ZM142.272 14.7601C141.931 15.0375 141.526 15.1727 141.049 15.1727C140.572 15.1727 140.167 15.0375 139.825 14.7601C139.484 14.4827 139.313 14.0915 139.313 13.5722C139.313 13.0956 139.477 12.7186 139.811 12.427C140.146 12.1353 140.558 11.993 141.049 11.993C141.54 11.993 141.952 12.1353 142.287 12.427C142.621 12.7186 142.785 13.0956 142.785 13.5722C142.785 14.0915 142.614 14.4898 142.272 14.7601ZM144.627 27.3364V21.0411H143.425C142.962 21.0411 142.514 21.1123 142.066 21.2545C141.618 21.3968 141.22 21.596 140.864 21.8663C140.508 22.1366 140.224 22.4638 140.01 22.855C139.797 23.2462 139.69 23.6944 139.69 24.1994C139.69 24.7045 139.79 25.1739 139.989 25.558C140.188 25.9422 140.459 26.2694 140.793 26.5397C141.127 26.81 141.504 27.0091 141.938 27.1372C142.365 27.2723 142.813 27.3364 143.275 27.3364H144.634H144.627ZM147.095 14.7601C146.754 15.0375 146.348 15.1727 145.872 15.1727C145.395 15.1727 144.99 15.0375 144.648 14.7601C144.307 14.4827 144.136 14.0915 144.136 13.5722C144.136 13.0956 144.3 12.7186 144.634 12.427C144.968 12.1353 145.381 11.993 145.872 11.993C146.363 11.993 146.789 12.1353 147.117 12.427C147.444 12.7186 147.607 13.0956 147.607 13.5722C147.607 14.0915 147.437 14.4898 147.095 14.7601Z" fill="#00113D"/>
<path d="M149.372 27.3364H154.024V17.9255H157.139V27.3364H161.229V30.452H149.372V27.3364ZM154.223 34.7911C153.881 35.0614 153.476 35.1894 152.999 35.1894C152.523 35.1894 152.117 35.0543 151.776 34.7911C151.434 34.5208 151.264 34.1296 151.264 33.6103C151.264 33.1337 151.427 32.7496 151.762 32.4508C152.096 32.1521 152.509 32.0027 152.999 32.0027C153.49 32.0027 153.903 32.1521 154.237 32.4508C154.571 32.7496 154.735 33.1337 154.735 33.6103C154.735 34.1296 154.564 34.5208 154.223 34.7911ZM159.053 34.7911C158.711 35.0614 158.306 35.1894 157.829 35.1894C157.353 35.1894 156.947 35.0543 156.606 34.7911C156.264 34.5208 156.094 34.1296 156.094 33.6103C156.094 33.1337 156.257 32.7496 156.592 32.4508C156.926 32.1521 157.338 32.0027 157.829 32.0027C158.32 32.0027 158.747 32.1521 159.074 32.4508C159.401 32.7496 159.565 33.1337 159.565 33.6103C159.565 34.1296 159.394 34.5208 159.053 34.7911Z" fill="#00113D"/>
<path d="M160.781 27.3364H164.544L161.784 20.2658C162.318 19.8035 162.858 19.3838 163.399 18.9997C163.939 18.6156 164.487 18.2812 165.042 17.9967C165.597 17.7122 166.173 17.4988 166.763 17.3423C167.354 17.1858 167.973 17.1075 168.613 17.1075C169.9 17.1075 171.11 17.4063 172.241 17.9967C173.364 18.5871 174.446 19.3553 175.463 20.2872L172.795 27.3364H176.886V30.452H160.781V27.3364ZM168.613 20.3939C167.987 20.3939 167.418 20.4935 166.899 20.6855C166.379 20.8776 165.839 21.1834 165.277 21.596L167.304 27.3364H169.971L171.999 21.5747C171.373 21.1479 170.818 20.842 170.32 20.6642C169.822 20.4863 169.253 20.3939 168.62 20.3939H168.613Z" fill="#00113D"/>
<path d="M176.445 27.3364H178.6C178.543 27.1159 178.5 26.8811 178.479 26.6464C178.458 26.4116 178.443 26.1627 178.443 25.9137C178.443 24.9677 178.621 24.0785 178.97 23.2534C179.318 22.4282 179.795 21.7098 180.392 21.098C180.99 20.4863 181.694 19.9955 182.505 19.6398C183.316 19.2842 184.177 19.1063 185.094 19.1063C186.012 19.1063 186.908 19.2842 187.733 19.6256C188.558 19.9741 189.277 20.4507 189.889 21.0625C190.5 21.6671 190.984 22.3927 191.333 23.2178C191.681 24.05 191.859 24.9463 191.859 25.9066C191.859 26.1556 191.845 26.4045 191.816 26.6393C191.788 26.874 191.752 27.1087 191.703 27.3293H194.192V30.4449H190.031C189.405 31.1135 188.672 31.6328 187.819 32.0027C186.965 32.3726 186.055 32.5575 185.094 32.5575C184.134 32.5575 183.252 32.3655 182.427 31.9885C181.595 31.6114 180.869 31.0922 180.25 30.4449H176.445V27.3293V27.3364ZM183.693 29.1716C184.12 29.3565 184.589 29.449 185.094 29.449C185.599 29.449 186.076 29.3637 186.517 29.1787C186.965 29.0009 187.349 28.7519 187.684 28.4318C188.018 28.1117 188.274 27.7347 188.459 27.3008C188.644 26.8669 188.736 26.3832 188.736 25.8639C188.736 25.3447 188.651 24.861 188.466 24.4199C188.288 23.9718 188.039 23.5877 187.712 23.2605C187.385 22.9333 187.001 22.6772 186.553 22.4922C186.112 22.3073 185.621 22.2148 185.087 22.2148C184.554 22.2148 184.091 22.3144 183.665 22.5065C183.238 22.6985 182.868 22.9617 182.555 23.2818C182.242 23.609 182 23.9931 181.822 24.4413C181.644 24.8894 181.552 25.3589 181.552 25.8639C181.552 26.369 181.637 26.8384 181.822 27.2795C182 27.7205 182.249 28.0975 182.569 28.4176C182.889 28.7377 183.259 28.9867 183.693 29.1716Z" fill="#00113D"/>
<path d="M193.751 27.3363H202.984C203.105 26.8455 203.198 26.312 203.262 25.7358C203.326 25.1596 203.361 24.6333 203.361 24.1567C203.361 23.6801 203.276 23.2177 203.105 22.7198C202.934 22.2219 202.657 21.8022 202.273 21.4607C201.633 20.8988 200.758 20.6143 199.648 20.6143C199.058 20.6143 198.517 20.6854 198.026 20.8277C197.535 20.9699 197.002 21.226 196.426 21.5959L195.138 18.8786C195.864 18.4661 196.632 18.1317 197.429 17.8757C198.233 17.6267 199.093 17.4987 200.032 17.4987C200.971 17.4987 201.789 17.648 202.536 17.9468C203.283 18.2456 203.923 18.6652 204.464 19.213C205.054 19.8034 205.538 20.536 205.908 21.4038C206.278 22.2717 206.463 23.2675 206.463 24.3985C206.463 24.9889 206.427 25.5793 206.349 26.1555C206.278 26.7317 206.185 27.2865 206.079 27.8271C205.972 28.3606 205.858 28.8514 205.73 29.2925C205.602 29.7335 205.488 30.1247 205.389 30.4519H193.751V27.3363ZM201.128 34.7626C200.765 35.0471 200.338 35.1822 199.847 35.1822C199.356 35.1822 198.93 35.04 198.567 34.7626C198.204 34.478 198.019 34.0655 198.019 33.5177C198.019 33.0269 198.197 32.6286 198.546 32.3298C198.894 32.024 199.328 31.8746 199.847 31.8746C200.367 31.8746 200.8 32.024 201.149 32.3298C201.498 32.6357 201.668 33.0269 201.668 33.5177C201.668 34.0655 201.483 34.478 201.121 34.7626H201.128Z" fill="#00113D"/>
<path d="M0 59.0687H7.76058V55.6686C7.76058 55.2204 7.71078 54.8363 7.61831 54.502C7.51873 54.1677 7.36935 53.876 7.16306 53.6199C6.971 53.371 6.70781 53.1647 6.37349 53.0082C6.03917 52.8517 5.67639 52.7735 5.27093 52.7735H3.93364V49.6578H4.95795C5.96803 49.6578 6.85008 49.7859 7.60408 50.0491C8.35809 50.3123 9.01963 50.7319 9.58157 51.3295C10.0582 51.8345 10.3925 52.4747 10.5845 53.2572C10.7766 54.0325 10.8762 54.8861 10.8762 55.8037V62.1914H0V59.0758V59.0687Z" fill="#00113D"/>
<path d="M14.9023 44.145H18.018V62.1843H14.9023V44.145Z" fill="#00113D"/>
<path d="M22.1578 67.0782C21.8591 67.0782 21.5745 67.0569 21.29 67.0213C21.0055 66.9858 20.7707 66.936 20.5787 66.8791L20.3582 63.7634C20.6569 63.8346 20.913 63.8915 21.1335 63.9199C21.354 63.9484 21.5887 63.9626 21.8235 63.9626C22.4495 63.9626 22.8834 63.7919 23.1252 63.4505C23.3671 63.109 23.4951 62.5542 23.4951 61.7788V49.6578H26.6107V59.0687H29.015V62.1843H26.5894C26.504 63.9057 26.1057 65.1505 25.4086 65.9188C24.7115 66.687 23.6303 67.0782 22.1578 67.0782Z" fill="#00113D"/>
<path d="M28.5598 59.0687H31.5403C31.2131 58.6419 30.957 58.1653 30.7649 57.646C30.5729 57.1267 30.4733 56.5506 30.4733 55.9104C30.4733 54.9287 30.6511 54.0538 31.021 53.2856C31.3909 52.5173 31.8888 51.8558 32.5432 51.3152C33.1977 50.7746 33.9801 50.362 34.8977 50.0775C35.8153 49.793 36.8325 49.6578 37.9493 49.6578H41.6198V62.1843H28.5598V59.0687ZM33.5889 55.9104C33.5889 56.5932 33.7383 57.1979 34.0441 57.7314C34.35 58.2649 34.7555 58.713 35.2818 59.0687H38.5042V52.7734H37.1953C36.7472 52.7734 36.3062 52.8374 35.8723 52.9726C35.4383 53.1077 35.0471 53.3069 34.7128 53.5701C34.3785 53.8404 34.1082 54.1676 33.9019 54.5589C33.6956 54.9501 33.5889 55.3982 33.5889 55.9033V55.9104ZM38.2908 47.346C37.928 47.6305 37.5012 47.7657 37.0104 47.7657C36.5196 47.7657 36.0928 47.6234 35.73 47.346C35.3672 47.0615 35.1823 46.6489 35.1823 46.1012C35.1823 45.6104 35.353 45.212 35.7015 44.9133C36.0501 44.6074 36.484 44.458 37.0033 44.458C37.5225 44.458 37.9564 44.6074 38.305 44.9133C38.6535 45.2191 38.8243 45.6175 38.8243 46.1012C38.8243 46.6489 38.6464 47.0686 38.2765 47.346H38.2908Z" fill="#00113D"/>
<path d="M43.8462 59.0687H50.1842C50.6892 59.0687 51.1587 59.0046 51.5855 58.8766C52.0123 58.7486 52.3893 58.5636 52.6951 58.3075C52.9939 58.0586 53.2215 57.7456 53.3851 57.3757C53.5487 57.0058 53.627 56.5435 53.627 55.9957V42.4947H58.1866V45.6104H56.7426V55.889C56.7426 56.8066 56.6074 57.6887 56.33 58.5352C56.0526 59.3816 55.64 60.0645 55.071 60.5838C54.4308 61.16 53.6483 61.5725 52.7236 61.8215C51.7989 62.0633 50.7319 62.1914 49.5297 62.1914H44.2161L43.8391 59.0758L43.8462 59.0687ZM45.717 44.0526C45.717 43.0425 45.966 42.3311 46.4639 41.9186C46.9618 41.506 47.6447 41.2926 48.5196 41.2926H49.6293V42.2956H48.6975C48.2565 42.2956 47.9435 42.3952 47.7656 42.5872C47.5878 42.7793 47.4953 43.0567 47.4953 43.4124H50.3406V45.084H45.717V44.0597V44.0526ZM47.0045 46.2292H50.1201V57.9519H47.0045V46.2292Z" fill="#00113D"/>
<path d="M62.106 44.145H65.2216V62.1843H62.106V44.145Z" fill="#00113D"/>
<path d="M81.9235 64.9656C81.2548 64.9656 80.6502 64.93 80.1096 64.866C79.569 64.802 79.0711 64.6882 78.6087 64.5459C78.1463 64.3965 77.7267 64.2116 77.3497 63.9768C76.9727 63.7492 76.6099 63.4718 76.2684 63.1446C75.7207 62.6253 75.3366 61.9567 75.109 61.1315C74.8885 60.3064 74.7747 59.4457 74.7747 58.5423V51.2654H77.8903V58.1582C77.8903 58.8268 77.9614 59.3959 78.1037 59.8583C78.2459 60.3277 78.4878 60.7047 78.8292 61.0035C79.2133 61.3307 79.697 61.5512 80.2732 61.6721C80.8494 61.7931 81.4754 61.85 82.144 61.85H83.9223V51.2583H87.0379V59.0687H89.4422V62.1843H87.0379V64.9656H81.9235ZM82.3574 48.8611C81.9946 49.1457 81.5678 49.2808 81.077 49.2808C80.5862 49.2808 80.1594 49.1386 79.7966 48.8611C79.4338 48.5837 79.2489 48.164 79.2489 47.6163C79.2489 47.1255 79.4196 46.7272 79.7682 46.4284C80.1167 46.1296 80.5506 45.9731 81.0699 45.9731C81.5892 45.9731 82.0231 46.1225 82.3716 46.4284C82.7202 46.7343 82.8909 47.1255 82.8909 47.6163C82.8909 48.164 82.7131 48.5837 82.3432 48.8611H82.3574Z" fill="#00113D"/>
<path d="M89.0438 59.0687H93.6959V49.6578H96.8115V62.1843H89.0509V59.0687H89.0438ZM92.7356 66.5234C92.3942 66.7937 91.9887 66.9217 91.5121 66.9217C91.0355 66.9217 90.6301 66.7866 90.2886 66.5234C89.9472 66.2531 89.7765 65.8619 89.7765 65.3426C89.7765 64.866 89.9401 64.4819 90.2744 64.1831C90.6087 63.8844 91.0213 63.735 91.5121 63.735C92.0029 63.735 92.4155 63.8844 92.7498 64.1831C93.0842 64.4819 93.2478 64.866 93.2478 65.3426C93.2478 65.8619 93.077 66.2531 92.7356 66.5234ZM97.5655 66.5234C97.2241 66.7937 96.8186 66.9217 96.342 66.9217C95.8654 66.9217 95.46 66.7866 95.1186 66.5234C94.7771 66.2531 94.6064 65.8619 94.6064 65.3426C94.6064 64.866 94.77 64.4819 95.1043 64.1831C95.4386 63.8844 95.8512 63.735 96.342 63.735C96.8329 63.735 97.2597 63.8844 97.5869 64.1831C97.9141 64.4819 98.0777 64.866 98.0777 65.3426C98.0777 65.8619 97.907 66.2531 97.5655 66.5234Z" fill="#00113D"/>
<path d="M100.966 67.0782C100.667 67.0782 100.382 67.0569 100.098 67.0213C99.8133 66.9858 99.5786 66.936 99.3865 66.8791L99.166 63.7634C99.4648 63.8346 99.7208 63.8915 99.9414 63.9199C100.162 63.9484 100.397 63.9626 100.631 63.9626C101.257 63.9626 101.691 63.7919 101.933 63.4505C102.175 63.109 102.303 62.5542 102.303 61.7788V49.6578H105.419V59.0687H107.823V62.1843H105.397C105.312 63.9057 104.914 65.1505 104.216 65.9188C103.519 66.687 102.438 67.0782 100.966 67.0782Z" fill="#00113D"/>
<path d="M107.375 59.0687H109.53C109.473 58.8482 109.43 58.6134 109.409 58.3787C109.388 58.1439 109.374 57.895 109.374 57.646C109.374 56.7 109.551 55.8108 109.9 54.9857C110.249 54.1605 110.725 53.4421 111.323 52.8303C111.92 52.2186 112.624 51.7278 113.435 51.3721C114.246 51.0165 115.107 50.8386 116.024 50.8386C116.942 50.8386 117.838 51.0165 118.664 51.3579C119.489 51.7064 120.207 52.183 120.819 52.7948C121.431 53.3994 121.914 54.125 122.263 54.9501C122.611 55.7823 122.789 56.6786 122.789 57.6389C122.789 57.8879 122.775 58.1368 122.747 58.3716C122.718 58.6063 122.683 58.841 122.633 59.0616H125.122V62.1772H120.961C120.335 62.8458 119.602 63.3651 118.749 63.735C117.895 64.1049 116.985 64.2898 116.024 64.2898C115.064 64.2898 114.182 64.0978 113.357 63.7208C112.525 63.3438 111.799 62.8245 111.18 62.1772H107.375V59.0616V59.0687ZM114.623 60.9039C115.05 61.0888 115.519 61.1813 116.024 61.1813C116.53 61.1813 117.006 61.096 117.447 60.911C117.895 60.7332 118.279 60.4842 118.614 60.1641C118.948 59.844 119.204 59.467 119.389 59.0331C119.574 58.5992 119.666 58.1155 119.666 57.5962C119.666 57.077 119.581 56.5933 119.396 56.1522C119.218 55.7041 118.969 55.32 118.642 54.9928C118.315 54.6656 117.931 54.4095 117.483 54.2245C117.042 54.0396 116.551 53.9471 116.017 53.9471C115.484 53.9471 115.022 54.0467 114.595 54.2388C114.168 54.4308 113.798 54.694 113.485 55.0141C113.172 55.3413 112.93 55.7254 112.752 56.1736C112.575 56.6217 112.482 57.0912 112.482 57.5962C112.482 58.1013 112.567 58.5707 112.752 59.0118C112.93 59.4528 113.179 59.8298 113.499 60.1499C113.819 60.47 114.189 60.719 114.623 60.9039Z" fill="#00113D"/>
<path d="M124.681 59.0687H129.333V49.6578H132.449V59.0687H136.539V62.1843H124.681V59.0687ZM129.483 47.2464C129.141 47.5096 128.75 47.6377 128.302 47.6377C127.854 47.6377 127.47 47.5096 127.135 47.2464C126.801 46.9904 126.638 46.5991 126.638 46.0799C126.638 45.6175 126.794 45.2476 127.114 44.9702C127.434 44.6928 127.833 44.5505 128.302 44.5505C128.772 44.5505 129.177 44.6928 129.504 44.9702C129.831 45.2547 129.995 45.6246 129.995 46.0799C129.995 46.5991 129.824 46.9904 129.483 47.2464ZM130.664 44.1024C130.28 44.1024 129.931 43.9886 129.632 43.7609C129.326 43.5333 129.177 43.1919 129.177 42.7508C129.177 42.3525 129.319 42.0253 129.597 41.7692C129.881 41.5202 130.237 41.3922 130.664 41.3922C131.09 41.3922 131.446 41.5202 131.731 41.7692C132.015 42.0182 132.15 42.3454 132.15 42.7508C132.15 43.199 132.001 43.5333 131.702 43.7609C131.403 43.9886 131.055 44.1024 130.657 44.1024H130.664ZM133.018 47.6377C132.577 47.6377 132.186 47.5096 131.852 47.2464C131.517 46.9904 131.354 46.5991 131.354 46.0799C131.354 45.6175 131.51 45.2476 131.83 44.9702C132.15 44.6928 132.549 44.5505 133.018 44.5505C133.488 44.5505 133.914 44.6928 134.235 44.9702C134.555 45.2547 134.711 45.6246 134.711 46.0799C134.711 46.5991 134.547 46.9904 134.213 47.2464C133.879 47.5096 133.481 47.6377 133.025 47.6377H133.018Z" fill="#00113D"/>
<path d="M136.091 59.0687H140.743V49.6578H143.859V59.0687H147.949V62.1843H136.091V59.0687ZM140.964 47.3531C140.622 47.6305 140.217 47.7657 139.74 47.7657C139.264 47.7657 138.858 47.6305 138.517 47.3531C138.175 47.0757 138.005 46.6845 138.005 46.1652C138.005 45.6886 138.168 45.3116 138.502 45.02C138.837 44.7283 139.249 44.5861 139.74 44.5861C140.231 44.5861 140.644 44.7283 140.978 45.02C141.312 45.3116 141.476 45.6886 141.476 46.1652C141.476 46.6845 141.305 47.0828 140.964 47.3531ZM145.794 47.3531C145.452 47.6305 145.047 47.7657 144.57 47.7657C144.093 47.7657 143.688 47.6305 143.347 47.3531C143.005 47.0757 142.834 46.6845 142.834 46.1652C142.834 45.6886 142.998 45.3116 143.332 45.02C143.667 44.7283 144.079 44.5861 144.57 44.5861C145.061 44.5861 145.488 44.7283 145.815 45.02C146.142 45.3116 146.306 45.6886 146.306 46.1652C146.306 46.6845 146.135 47.0828 145.794 47.3531Z" fill="#00113D"/>
<path d="M163.812 56.1594C163.812 57.2264 164.068 58.016 164.58 58.5281C165.092 59.0403 165.768 59.2964 166.614 59.2964C167.503 59.2964 168.172 59.0474 168.613 58.5423C169.061 58.0373 169.282 57.3544 169.282 56.4937V48.1072H172.376V56.0954C172.376 56.451 172.362 56.7925 172.333 57.1055C172.305 57.4184 172.269 57.7314 172.219 58.0302C172.874 58.7273 173.912 59.0758 175.335 59.0758V62.1915C174.73 62.1915 174.204 62.1417 173.756 62.035C173.308 61.9283 172.931 61.7931 172.625 61.6153C172.312 61.4374 172.056 61.2383 171.857 61.0178C171.657 60.7973 171.487 60.5696 171.359 60.3491C170.427 61.7291 168.848 62.4191 166.621 62.4191C166.194 62.4191 165.768 62.3835 165.355 62.3195C164.943 62.2555 164.537 62.1417 164.153 61.9781C163.769 61.8144 163.406 61.5939 163.072 61.3236C162.737 61.0462 162.446 60.7048 162.19 60.2922C161.628 60.8826 160.959 61.3521 160.191 61.6935C159.423 62.035 158.612 62.2057 157.765 62.2057H147.536V59.0901H152.388V50.7889H155.503V59.0901H157.772C158.1 59.0901 158.434 59.0474 158.782 58.9691C159.131 58.8909 159.451 58.7415 159.736 58.521C160.027 58.3076 160.262 58.0231 160.44 57.6674C160.618 57.3118 160.71 56.8565 160.71 56.3088V50.7889H163.826V56.1736L163.812 56.1594Z" fill="#00113D"/>
<path d="M174.865 59.0687H177.021C176.964 58.8482 176.921 58.6134 176.9 58.3787C176.879 58.1439 176.864 57.895 176.864 57.646C176.864 56.7 177.042 55.8108 177.391 54.9857C177.739 54.1605 178.216 53.4421 178.813 52.8303C179.411 52.2186 180.115 51.7278 180.926 51.3721C181.737 51.0165 182.598 50.8386 183.515 50.8386C184.433 50.8386 185.329 51.0165 186.154 51.3579C186.979 51.7064 187.698 52.183 188.31 52.7948C188.921 53.3994 189.405 54.125 189.754 54.9501C190.102 55.7823 190.28 56.6786 190.28 57.6389C190.28 57.8879 190.266 58.1368 190.237 58.3716C190.209 58.6063 190.173 58.841 190.123 59.0616H192.613V62.1772H188.452C187.826 62.8458 187.093 63.3651 186.24 63.735C185.386 64.1049 184.475 64.2898 183.515 64.2898C182.555 64.2898 181.673 64.0978 180.848 63.7208C180.015 63.3438 179.29 62.8245 178.671 62.1772H174.865V59.0616V59.0687ZM182.114 60.9039C182.541 61.0888 183.01 61.1813 183.515 61.1813C184.02 61.1813 184.497 61.096 184.938 60.911C185.386 60.7332 185.77 60.4842 186.104 60.1641C186.439 59.844 186.695 59.467 186.88 59.0331C187.065 58.5992 187.157 58.1155 187.157 57.5962C187.157 57.077 187.072 56.5933 186.887 56.1522C186.709 55.7041 186.46 55.32 186.133 54.9928C185.806 54.6656 185.422 54.4095 184.973 54.2245C184.532 54.0396 184.042 53.9471 183.508 53.9471C182.975 53.9471 182.512 54.0467 182.085 54.2388C181.659 54.4308 181.289 54.694 180.976 55.0141C180.663 55.3413 180.421 55.7254 180.243 56.1736C180.065 56.6217 179.973 57.0912 179.973 57.5962C179.973 58.1013 180.058 58.5707 180.243 59.0118C180.421 59.4528 180.67 59.8298 180.99 60.1499C181.31 60.47 181.68 60.719 182.114 60.9039Z" fill="#00113D"/>
<path d="M192.172 59.0687H194.349V44.145H198.908V47.2606H197.464V62.1843H192.172V59.0687Z" fill="#00113D"/>
<path d="M202.693 44.145H205.808V62.1843H202.693V44.145Z" fill="#00113D"/>
<path d="M64.4462 93.1057C64.1332 93.0702 63.8487 93.0133 63.5855 92.935C63.3223 92.8568 63.0876 92.7572 62.8742 92.6434C62.6608 92.5296 62.4403 92.3873 62.2269 92.2166C61.8428 91.9321 61.5654 91.555 61.3804 91.0856C61.2026 90.6161 61.1101 90.1609 61.1101 89.7198V86.4477H62.1558V89.5776C62.1558 90.0755 62.2269 90.4738 62.362 90.7655C62.4972 91.0571 62.7035 91.3061 62.9667 91.4981C63.2441 91.7044 63.5642 91.8609 63.9341 91.9605C64.304 92.0601 64.7023 92.117 65.122 92.117H68.5861C68.4083 91.989 68.138 91.6475 67.7752 91.0856C67.4125 90.5307 67.2346 89.855 67.2346 89.0583C67.2346 88.4821 67.3413 87.9415 67.5476 87.4436C67.761 86.9457 68.074 86.5117 68.4866 86.1419C68.8991 85.772 69.4184 85.4874 70.0301 85.2883C70.6419 85.0891 71.339 84.9895 72.1214 84.9895H74.1487V93.1555H65.5274C65.1149 93.1555 64.7521 93.1413 64.4391 93.1057H64.4462ZM68.8849 90.8651C69.2832 91.3843 69.7812 91.7969 70.3645 92.1099H73.1102V86.028H71.716C71.2394 86.028 70.7913 86.0992 70.3787 86.2414C69.9661 86.3837 69.6033 86.59 69.2904 86.8603C68.9774 87.1306 68.7284 87.4507 68.5506 87.8206C68.3728 88.1905 68.2803 88.603 68.2803 89.0512C68.2803 89.7341 68.4794 90.3387 68.8849 90.858V90.8651ZM71.1327 83.2468C70.9762 83.0903 70.898 82.9053 70.898 82.6919C70.898 82.4785 70.9762 82.2936 71.1327 82.1371C71.2892 81.9806 71.4741 81.9023 71.6946 81.9023C71.9152 81.9023 72.093 81.9806 72.2495 82.1371C72.406 82.2936 72.4842 82.4785 72.4842 82.6919C72.4842 82.9053 72.406 83.0903 72.2495 83.2468C72.093 83.4032 71.908 83.4815 71.6946 83.4815C71.4812 83.4815 71.2963 83.4032 71.1327 83.2468Z" fill="#00113D"/>
<path d="M77.6841 80.871V93.1627H76.6384V80.871H77.6841Z" fill="#00113D"/>
<path d="M79.1565 96.1574L79.5406 95.19C79.8251 95.3109 80.0457 95.3678 80.2021 95.3678C80.4369 95.3678 80.6147 95.3181 80.7428 95.2256C80.8708 95.1331 80.9704 95.0051 81.0344 94.8486C81.1055 94.6921 81.1482 94.5071 81.1696 94.3009C81.1909 94.0946 81.198 93.8883 81.198 93.6891V84.9967H82.2437V92.1171H84.5199V93.1627H82.2437V93.6891C82.2437 94.0448 82.2152 94.3791 82.1654 94.7063C82.1085 95.0335 82.0089 95.3252 81.8595 95.5813C81.7102 95.8373 81.4896 96.0365 81.2122 96.1859C80.9348 96.3352 80.5791 96.4064 80.1452 96.4064C79.8678 96.4064 79.5406 96.321 79.1636 96.1574H79.1565Z" fill="#00113D"/>
<path d="M87.1589 92.117V84.9966H88.2045V92.117H91.3486V93.1626H83.8441V92.117H87.166H87.1589ZM85.6936 83.2468C85.5371 83.0903 85.4588 82.9053 85.4588 82.6919C85.4588 82.4785 85.5371 82.2936 85.6936 82.1371C85.8501 81.9806 86.035 81.9023 86.2484 81.9023C86.4618 81.9023 86.6467 81.9806 86.8103 82.1371C86.9668 82.2936 87.0451 82.4785 87.0451 82.6919C87.0451 82.9053 86.9668 83.0903 86.8103 83.2468C86.6539 83.4032 86.4689 83.4815 86.2484 83.4815C86.0279 83.4815 85.8501 83.4032 85.6936 83.2468ZM88.3255 83.2468C88.169 83.0903 88.0907 82.9053 88.0907 82.6919C88.0907 82.4785 88.169 82.2936 88.3255 82.1371C88.482 81.9806 88.6669 81.9023 88.8803 81.9023C89.0937 81.9023 89.2786 81.9806 89.4423 82.1371C89.5987 82.2936 89.677 82.4785 89.677 82.6919C89.677 82.9053 89.5987 83.0903 89.4423 83.2468C89.2858 83.4032 89.1008 83.4815 88.8803 83.4815C88.6598 83.4815 88.482 83.4032 88.3255 83.2468Z" fill="#00113D"/>
<path d="M97.4233 92.117C97.5087 91.8112 97.5869 91.4057 97.6438 90.8865C97.7007 90.3672 97.7292 89.6772 97.7292 88.8165C97.7292 88.3968 97.6651 88.0056 97.5371 87.657C97.4091 87.3085 97.1672 86.9742 96.8187 86.6754C96.5839 86.4905 96.2994 86.3411 95.9651 86.2202C95.6307 86.0992 95.2395 86.0423 94.7914 86.0423C94.4215 86.0423 94.0232 86.1063 93.6106 86.2415C93.198 86.3766 92.7641 86.6114 92.3089 86.9528L91.9105 85.957C92.2448 85.7507 92.5223 85.5942 92.7428 85.4875C92.9633 85.3808 93.1909 85.2883 93.4256 85.2172C93.6604 85.146 93.9093 85.0891 94.1654 85.0536C94.4286 85.018 94.7131 85.0038 95.0403 85.0038C95.4885 85.0038 95.9295 85.082 96.3563 85.2385C96.7831 85.395 97.153 85.6084 97.466 85.8716C97.8999 86.2273 98.2271 86.6612 98.4476 87.1876C98.6681 87.7139 98.7819 88.3328 98.7819 89.0441C98.7819 89.4354 98.7677 89.8266 98.7392 90.2107C98.7108 90.5948 98.6681 90.9647 98.6183 91.3133C98.5685 91.6618 98.5116 91.9819 98.4476 92.2735C98.3836 92.5652 98.2982 92.864 98.1915 93.1698H90.6586V92.1242H97.4162L97.4233 92.117Z" fill="#00113D"/>
<path d="M102.168 80.871V93.1627H101.122V80.871H102.168Z" fill="#00113D"/>
<path d="M106.493 96.1859C106.116 96.0507 105.675 95.8302 105.177 95.5386L105.66 94.6139C106.123 94.8699 106.507 95.0549 106.82 95.1687C107.133 95.2825 107.474 95.3465 107.83 95.3465C108.463 95.3465 108.961 95.1971 109.324 94.9055C109.679 94.6139 109.857 94.2013 109.857 93.6749V93.1627H109.167C108.527 93.1627 107.915 93.0916 107.318 92.9493C106.72 92.8071 106.187 92.5723 105.71 92.2522C105.234 91.9321 104.857 91.5054 104.565 90.979C104.273 90.4526 104.131 89.8195 104.131 89.0797C104.131 88.4822 104.252 87.9345 104.487 87.4294C104.722 86.9244 105.056 86.4905 105.497 86.1277C105.938 85.7649 106.464 85.4875 107.083 85.2884C107.702 85.0892 108.392 84.9967 109.167 84.9967H110.903V93.6749C110.903 94.5143 110.618 95.1829 110.042 95.6666C109.473 96.1503 108.712 96.3922 107.773 96.3922C107.297 96.3922 106.863 96.321 106.486 96.1859H106.493ZM105.454 90.4099C105.639 90.7869 105.895 91.0999 106.222 91.3489C106.55 91.5978 106.934 91.7899 107.368 91.925C107.802 92.0602 108.264 92.1242 108.755 92.1242H109.857V86.0424H108.755C108.314 86.0424 107.88 86.1135 107.446 86.2629C107.012 86.4122 106.628 86.6185 106.294 86.8817C105.952 87.1449 105.682 87.465 105.476 87.8278C105.269 88.1906 105.17 88.6102 105.17 89.0868C105.17 89.599 105.262 90.04 105.447 90.417L105.454 90.4099Z" fill="#00113D"/>
<path d="M126.566 86.0352C126.211 86.0352 125.912 86.0708 125.67 86.1348C125.428 86.206 125.201 86.3127 125.002 86.4763C124.802 86.6399 124.639 86.839 124.525 87.1022C124.411 87.3654 124.347 87.6215 124.347 87.8705V94.9908H120.129C119.759 94.9908 119.425 94.9766 119.126 94.9411C118.827 94.9055 118.55 94.8557 118.294 94.7774C118.038 94.7063 117.796 94.621 117.561 94.5214C117.326 94.4218 117.035 94.2795 116.693 94.0804L117.205 93.1841C117.718 93.4757 118.151 93.682 118.528 93.7887C118.898 93.8954 119.297 93.9523 119.716 93.9523H123.301V87.9629C123.301 87.465 123.387 87.0382 123.55 86.6754C123.714 86.3198 123.963 85.9854 124.297 85.6867C124.582 85.4448 124.909 85.267 125.272 85.1603C125.642 85.0536 126.012 84.9967 126.382 84.9967H129.113V92.1171H131.083V93.1627H128.074V86.0424H126.559L126.566 86.0352ZM120.193 89.663C120.036 89.5065 119.958 89.3216 119.958 89.1082C119.958 88.8948 120.036 88.7098 120.193 88.5533C120.349 88.3968 120.534 88.3186 120.748 88.3186C120.961 88.3186 121.146 88.3968 121.303 88.5533C121.459 88.7098 121.537 88.8948 121.537 89.1082C121.537 89.3216 121.459 89.5065 121.303 89.663C121.146 89.8195 120.961 89.8977 120.748 89.8977C120.534 89.8977 120.349 89.8195 120.193 89.663ZM120.193 92.2594C120.036 92.1029 119.958 91.9179 119.958 91.7045C119.958 91.4911 120.036 91.3062 120.193 91.1497C120.349 90.9932 120.534 90.9149 120.748 90.9149C120.961 90.9149 121.146 90.9932 121.303 91.1497C121.459 91.3062 121.537 91.4911 121.537 91.7045C121.537 91.9179 121.459 92.1029 121.303 92.2594C121.146 92.4158 120.961 92.4941 120.748 92.4941C120.534 92.4941 120.349 92.4158 120.193 92.2594Z" fill="#00113D"/>
<path d="M132.477 92.117L132.243 91.6902C132.115 91.4341 132.001 91.1638 131.894 90.8793C131.795 90.5948 131.709 90.296 131.645 89.983C131.581 89.67 131.553 89.3499 131.553 89.0298C131.553 88.3185 131.695 87.6925 131.972 87.1733C132.25 86.6469 132.598 86.213 133.025 85.8573C133.338 85.5941 133.708 85.3807 134.135 85.2242C134.562 85.0677 134.996 84.9895 135.451 84.9895C135.764 84.9895 136.048 85.0037 136.312 85.0393C136.568 85.0749 136.817 85.1247 137.044 85.2029C137.272 85.274 137.499 85.3665 137.72 85.4732C137.94 85.5799 138.218 85.7364 138.552 85.9427L138.182 86.9385C137.734 86.5971 137.3 86.3553 136.881 86.2272C136.468 86.0921 136.07 86.028 135.7 86.028C135.252 86.028 134.86 86.085 134.526 86.2059C134.192 86.3268 133.907 86.4762 133.673 86.6611C132.968 87.2586 132.613 87.97 132.613 88.8022C132.613 89.2219 132.641 89.5989 132.705 89.9261C132.769 90.2533 132.847 90.5521 132.947 90.8224C133.047 91.0927 133.153 91.3274 133.267 91.5337L133.608 92.1099H138.936V93.1555H130.422V92.1099H132.477V92.117Z" fill="#00113D"/>
<path d="M142.82 96.1859C142.443 96.0507 142.002 95.8302 141.504 95.5386L141.988 94.6139C142.45 94.8699 142.834 95.0549 143.147 95.1687C143.46 95.2825 143.802 95.3465 144.158 95.3465C144.791 95.3465 145.289 95.1971 145.651 94.9055C146.007 94.6139 146.185 94.2013 146.185 93.6749V93.1627H145.495C144.855 93.1627 144.243 93.0916 143.645 92.9493C143.048 92.8071 142.514 92.5723 142.038 92.2522C141.561 91.9321 141.184 91.5054 140.893 90.979C140.601 90.4526 140.459 89.8195 140.459 89.0797C140.459 88.4822 140.58 87.9345 140.814 87.4294C141.049 86.9244 141.383 86.4905 141.824 86.1277C142.265 85.7649 142.792 85.4875 143.411 85.2884C144.029 85.0892 144.719 84.9967 145.495 84.9967H147.23V92.1171H149.507V93.1627H147.23V93.6749C147.23 94.5143 146.946 95.1829 146.37 95.6666C145.801 96.1503 145.04 96.3922 144.101 96.3922C143.624 96.3922 143.19 96.321 142.813 96.1859H142.82ZM141.782 90.4099C141.967 90.7869 142.223 91.0999 142.55 91.3489C142.877 91.5978 143.261 91.7899 143.695 91.925C144.129 92.0602 144.591 92.1242 145.082 92.1242H146.185V86.0424H145.082C144.641 86.0424 144.207 86.1135 143.773 86.2629C143.339 86.4122 142.955 86.6185 142.621 86.8817C142.28 87.1449 142.009 87.465 141.803 87.8278C141.597 88.1906 141.497 88.6102 141.497 89.0868C141.497 89.599 141.59 90.04 141.775 90.417L141.782 90.4099Z" fill="#00113D"/>
<path d="M150.687 92.1171V84.9967H151.733V93.1627H148.838V92.1171H150.687ZM150.645 95.9654C150.488 95.8089 150.41 95.6239 150.41 95.4105C150.41 95.1971 150.488 95.0122 150.645 94.8557C150.801 94.6992 150.986 94.621 151.207 94.621C151.427 94.621 151.605 94.6992 151.762 94.8557C151.918 95.0122 151.996 95.1971 151.996 95.4105C151.996 95.6239 151.918 95.8089 151.762 95.9654C151.605 96.1219 151.42 96.2001 151.207 96.2001C150.993 96.2001 150.808 96.1219 150.645 95.9654Z" fill="#00113D"/>
<path d="M157.723 96.1574L158.107 95.19C158.391 95.3109 158.612 95.3678 158.768 95.3678C159.003 95.3678 159.181 95.3181 159.309 95.2256C159.437 95.1331 159.536 95.0051 159.6 94.8486C159.672 94.6921 159.714 94.5071 159.736 94.3009C159.757 94.0946 159.764 93.8883 159.764 93.6891V84.9967H160.81V92.1171H163.086V93.1627H160.81V93.6891C160.81 94.0448 160.781 94.3791 160.731 94.7063C160.675 95.0335 160.575 95.3252 160.426 95.5813C160.276 95.8373 160.056 96.0365 159.778 96.1859C159.501 96.3352 159.145 96.4064 158.711 96.4064C158.434 96.4064 158.107 96.321 157.73 96.1574H157.723Z" fill="#00113D"/>
<path d="M163.925 92.117C163.612 91.6191 163.456 90.9291 163.456 90.0613C163.456 89.4638 163.57 88.9018 163.783 88.3755C163.996 87.8491 164.302 87.3796 164.679 86.9813C165.056 86.5829 165.504 86.2628 166.024 86.0352C166.543 85.8076 167.105 85.6866 167.71 85.6866C168.314 85.6866 168.933 85.8005 169.467 86.0281C170 86.2557 170.462 86.5616 170.854 86.9528C171.245 87.344 171.551 87.8064 171.771 88.3328C171.992 88.8592 172.098 89.4425 172.098 90.0684C172.098 90.5166 172.042 90.9434 171.921 91.3346C171.8 91.7258 171.7 91.989 171.615 92.1313H173.215V93.1769H170.854C170.491 93.5468 170.036 93.8527 169.495 94.0803C168.954 94.3079 168.357 94.4289 167.71 94.4289C167.062 94.4289 166.507 94.3079 165.981 94.0732C165.455 93.8385 165.021 93.5397 164.679 93.1769H162.403V92.1313H163.918L163.925 92.117ZM169.054 93.1129C169.467 92.9493 169.815 92.7217 170.114 92.43C170.405 92.1384 170.64 91.7969 170.811 91.3844C170.982 90.9718 171.067 90.5379 171.067 90.0542C171.067 89.5705 170.982 89.1295 170.818 88.7169C170.654 88.3043 170.42 87.9558 170.121 87.657C169.822 87.3654 169.467 87.1306 169.054 86.967C168.641 86.8034 168.2 86.7181 167.717 86.7181C167.233 86.7181 166.813 86.8034 166.422 86.9813C166.031 87.1591 165.689 87.3938 165.412 87.6997C165.127 88.0056 164.907 88.3612 164.743 88.7667C164.58 89.1722 164.501 89.5989 164.501 90.0542C164.501 90.5094 164.58 90.9149 164.743 91.3275C164.907 91.7329 165.127 92.0886 165.419 92.3873C165.711 92.6861 166.045 92.9208 166.443 93.0987C166.835 93.2765 167.261 93.3619 167.724 93.3619C168.186 93.3619 168.649 93.2765 169.061 93.1129H169.054Z" fill="#00113D"/>
<path d="M175.861 92.117V84.9966H176.907V92.117H180.051V93.1627H172.547V92.117H175.868H175.861ZM174.346 83.2468C174.19 83.0903 174.111 82.9054 174.111 82.692C174.111 82.4786 174.19 82.2936 174.346 82.1371C174.503 81.9806 174.688 81.9024 174.908 81.9024C175.129 81.9024 175.306 81.9806 175.463 82.1371C175.619 82.2936 175.698 82.4786 175.698 82.692C175.698 82.9054 175.619 83.0903 175.463 83.2468C175.306 83.4033 175.122 83.4815 174.908 83.4815C174.695 83.4815 174.51 83.4033 174.346 83.2468ZM175.655 81.2764C175.499 81.1199 175.42 80.935 175.42 80.7216C175.42 80.5082 175.499 80.3232 175.655 80.1667C175.811 80.0102 175.996 79.932 176.21 79.932C176.423 79.932 176.608 80.0102 176.772 80.1667C176.928 80.3232 177.007 80.5082 177.007 80.7216C177.007 80.935 176.928 81.1199 176.772 81.2764C176.615 81.4329 176.43 81.5111 176.21 81.5111C175.989 81.5111 175.811 81.4329 175.655 81.2764ZM176.978 83.2468C176.822 83.0903 176.743 82.9054 176.743 82.692C176.743 82.4786 176.822 82.2936 176.978 82.1371C177.135 81.9806 177.32 81.9024 177.533 81.9024C177.746 81.9024 177.931 81.9806 178.088 82.1371C178.244 82.2936 178.322 82.4786 178.322 82.692C178.322 82.9054 178.244 83.0903 178.088 83.2468C177.931 83.4033 177.746 83.4815 177.533 83.4815C177.32 83.4815 177.135 83.4033 176.978 83.2468Z" fill="#00113D"/>
<path d="M182.697 92.117V84.9966H183.743V92.117H186.887V93.1626H179.382V92.117H182.704H182.697ZM181.232 83.2468C181.075 83.0903 180.997 82.9053 180.997 82.6919C180.997 82.4785 181.075 82.2936 181.232 82.1371C181.388 81.9806 181.573 81.9023 181.787 81.9023C182 81.9023 182.185 81.9806 182.349 82.1371C182.505 82.2936 182.583 82.4785 182.583 82.6919C182.583 82.9053 182.505 83.0903 182.349 83.2468C182.192 83.4032 182.007 83.4815 181.787 83.4815C181.566 83.4815 181.388 83.4032 181.232 83.2468ZM183.864 83.2468C183.707 83.0903 183.629 82.9053 183.629 82.6919C183.629 82.4785 183.707 82.2936 183.864 82.1371C184.02 81.9806 184.205 81.9023 184.419 81.9023C184.632 81.9023 184.817 81.9806 184.981 82.1371C185.137 82.2936 185.215 82.4785 185.215 82.6919C185.215 82.9053 185.137 83.0903 184.981 83.2468C184.824 83.4032 184.639 83.4815 184.419 83.4815C184.198 83.4815 184.02 83.4032 183.864 83.2468Z" fill="#00113D"/>
<path d="M189.526 92.117V85.7293H190.572V92.117H193.154C193.68 92.117 194.114 91.9605 194.448 91.6404C194.783 91.3203 194.946 90.858 194.946 90.2391V85.7293H195.992V90.0186C195.992 90.3102 196.049 90.6019 196.163 90.8864C196.276 91.1709 196.44 91.4128 196.646 91.6191C196.853 91.8254 197.116 91.989 197.415 92.117C197.72 92.2451 198.062 92.3091 198.446 92.3091C199.207 92.3091 199.776 92.0957 200.132 91.676C200.495 91.2563 200.672 90.7015 200.672 90.0186V83.9652H201.718V89.8692C201.718 91.0571 201.419 91.925 200.829 92.4727C200.238 93.0275 199.442 93.3049 198.439 93.3049C197.756 93.3049 197.137 93.1556 196.589 92.8639C196.042 92.5723 195.693 92.2664 195.544 91.9534C195.437 92.1881 195.16 92.4442 194.711 92.7288C194.263 93.0133 193.744 93.1556 193.147 93.1556H186.197V92.1099H189.519L189.526 92.117Z" fill="#00113D"/>
<path d="M205.239 80.871V93.1627H204.193V80.871H205.239Z" fill="#00113D"/>
<path opacity="0.54" d="M225.996 0.86084H224.836V109.139H225.996V0.86084Z" fill="#00113D"/>
<path d="M314.627 13.8069V13.7927L293.878 1.81396L268.505 16.4673L247.755 28.4461V42.3027V52.3964V57.7527L252.393 55.071L273.135 43.0994V43.0923L293.878 31.1135L293.885 31.1206L307.272 38.8457" fill="#0047F6"/>
<path d="M314.627 13.8069V19.1418V43.0922L307.272 38.8456L314.627 43.0922L307.272 38.8456L314.627 13.8069Z" fill="#0020E8"/>
<path d="M273.135 65.9401V53.186V43.0994L252.393 55.071L247.755 57.7527V81.7031L268.505 93.6818L273.135 96.3564V65.9401Z" fill="url(#paint0_linear_19_5728)"/>
<path d="M293.878 79.0285L312.401 68.3373L314.627 67.0498L293.878 79.0285Z" fill="#0047F6"/>
<path d="M314.627 67.0498L335.369 55.071L314.627 67.0498Z" fill="#0047F6"/>
<path d="M286.907 35.1467L293.885 31.1206L273.135 43.0993L286.907 35.1467Z" fill="#0047F6"/>
<path d="M273.135 43.0994L252.393 55.071L273.135 43.0994Z" fill="#0047F6"/>
<path d="M340 57.7457V52.3965L335.369 55.0711L314.627 67.0498L293.878 79.0286L280.49 71.3036L279.616 70.7985L273.135 67.0498V91.0073V96.3565L293.878 108.328L319.258 93.6819L340 81.7032V57.7457Z" fill="#0047F6"/>
<path d="M307.272 38.8456L305.124 37.6079L293.885 31.1206L307.272 38.8456Z" fill="#0047F6"/>
<path d="M319.258 16.4673L314.634 13.7927H314.627V13.807V19.1419V43.0923V44.1948V46.8623V67.0498L335.369 55.071L340 52.3964V28.4461L319.258 16.4673Z" fill="url(#paint1_linear_19_5728)"/>
<path d="M280.49 71.3035L279.616 70.7985L273.135 67.0498V91.0073V96.3565" fill="#0020E8"/>
<defs>
<linearGradient id="paint0_linear_19_5728" x1="257.472" y1="75.4078" x2="305.529" y2="57.9732" gradientUnits="userSpaceOnUse">
<stop stop-color="#17E0F9"/>
<stop offset="1" stop-color="#11B0F9"/>
</linearGradient>
<linearGradient id="paint1_linear_19_5728" x1="314.627" y1="40.4248" x2="369.691" y2="40.4248" gradientUnits="userSpaceOnUse">
<stop stop-color="#17E0F9"/>
<stop offset="1" stop-color="#11B0F9"/>
</linearGradient>
</defs>
</svg>
