<svg width="48" height="48" viewBox="0 0 48 48" fill="none" xmlns="http://www.w3.org/2000/svg">
<mask id="mask0_18_628" style="mask-type:alpha" maskUnits="userSpaceOnUse" x="0" y="0" width="48" height="48">
<rect width="48" height="48" fill="#D9D9D9"/>
</mask>
<g mask="url(#mask0_18_628)">
<path d="M21.8 35.6H26.9429V21.6571H21.8V35.6ZM24.3714 17.8286C25.1714 17.8286 25.829 17.5619 26.344 17.0286C26.8575 16.4952 27.1143 15.8286 27.1143 15.0286C27.1143 14.2667 26.8575 13.619 26.344 13.0857C25.829 12.5524 25.1714 12.2857 24.3714 12.2857C23.5714 12.2857 22.9147 12.5524 22.4011 13.0857C21.8861 13.619 21.6286 14.2667 21.6286 15.0286C21.6286 15.8286 21.8861 16.4952 22.4011 17.0286C22.9147 17.5619 23.5714 17.8286 24.3714 17.8286ZM24.3714 48C18.7714 46.5905 14.1429 43.4095 10.4857 38.4571C6.82857 33.5048 5 28 5 21.9429V7.25714L24.3714 0L43.7429 7.25714V21.9429C43.7429 28 41.9143 33.5048 38.2571 38.4571C34.6 43.4095 29.9714 46.5905 24.3714 48Z" fill="#11B0F9"/>
</g>
</svg>
