<svg width="18" height="18" viewBox="0 0 18 18" fill="none" xmlns="http://www.w3.org/2000/svg">
<mask id="mask0_17_196" style="mask-type:alpha" maskUnits="userSpaceOnUse" x="0" y="0" width="18" height="18">
<rect width="18" height="18" fill="#D9D9D9"/>
</mask>
<g mask="url(#mask0_17_196)">
<path d="M9.94987 9.94987V18H15.4829C16.1953 18 16.793 17.7584 17.2762 17.2752C17.7587 16.7927 18 16.1953 18 15.4829V9.94987H9.94987ZM9.94987 8.05013H18V2.51715C18 1.80475 17.7587 1.20697 17.2762 0.723799C16.793 0.241266 16.1953 0 15.4829 0H9.94987V8.05013ZM8.05013 8.05013V0H2.51715C1.80475 0 1.20728 0.241266 0.724749 0.723799C0.241583 1.20697 0 1.80475 0 2.51715V8.05013H8.05013ZM8.05013 9.94987H0V15.4829C0 16.1953 0.241583 16.7927 0.724749 17.2752C1.20728 17.7584 1.80475 18 2.51715 18H8.05013V9.94987Z" fill="#B9B8BE"/>
</g>
</svg>
